<?xml version="1.0" encoding="utf-8"?>
<!-- Generator: Adobe Illustrator 24.1.2, SVG Export Plug-In . SVG Version: 6.00 Build 0)  -->
<svg id="light" xmlns="http://www.w3.org/2000/svg" viewBox="0 0 108.51 65.85">
    <g data-name="light">
        <g>
            <g>
                <path
                    d="M64.81,35.63A26.52,26.52,0,0,1,91.53,9.3L106,9.41a2.5,2.5,0,0,1,2.47,2.51A10.7,10.7,0,0,1,97.73,22.53l4.23,0a2.5,2.5,0,0,1,2.47,2.51A10.7,10.7,0,0,1,93.66,35.68l4.22,0a2.48,2.48,0,0,1,2.47,2.51A10.7,10.7,0,0,1,89.58,48.83L64.81,48.6Z"
                    fill="#e9e8e8" />
                <path
                    d="M43.7,35.63A26.53,26.53,0,0,0,17,9.3l-14.5.11A2.49,2.49,0,0,0,0,11.92,10.69,10.69,0,0,0,10.77,22.53l-4.22,0a2.49,2.49,0,0,0-2.47,2.51A10.69,10.69,0,0,0,14.85,35.68l-4.23,0a2.48,2.48,0,0,0-2.46,2.51A10.69,10.69,0,0,0,18.93,48.83L43.7,48.6Z"
                    fill="#e9e8e8" />
            </g>
            <g>
                <path d="M84,32.92A29.75,29.75,0,1,1,54.25,3.17,29.75,29.75,0,0,1,84,32.92" fill="#76b82a" />
                <path d="M84,32.92A29.75,29.75,0,1,1,54.25,3.17,29.75,29.75,0,0,1,84,32.92Z" fill="none"
                    stroke="#ededed" stroke-miterlimit="10" stroke-width="1.93" />
                <path
                    d="M51.51,52.11a2.19,2.19,0,0,0,4.37,0Zm-3.83-3.28A2.19,2.19,0,0,0,49.87,51h7.64a2.19,2.19,0,0,0,2.19-2.19Zm0-2.18h12V44.46h-12ZM51.5,15.9a1.12,1.12,0,0,1-.69,1.21,8.23,8.23,0,0,0-5.18,6.24,1.12,1.12,0,0,1-1.27.87A1.13,1.13,0,0,1,43.48,23,10.37,10.37,0,0,1,50,15.08a1.18,1.18,0,0,1,1.48.82m2.19-4.21c-6.66,0-13.11,5.16-13.11,12.47,0,9.49,7.1,11.48,7.1,18.12h12c0-6.64,7.1-8.63,7.1-18.12,0-7.31-6.45-12.47-13.11-12.47"
                    fill="#0b1213" />
            </g>
        </g>
        <rect id="lightRect" x="2.45" width="103.67" height="65.85" fill="none" />
    </g>
</svg>