<?xml version="1.0" encoding="utf-8"?>
<!-- Generator: Adobe Illustrator 24.3.0, SVG Export Plug-In . SVG Version: 6.00 Build 0)  -->
<svg version="1.1" id="Layer_1" xmlns="http://www.w3.org/2000/svg" xmlns:xlink="http://www.w3.org/1999/xlink" x="0px" y="0px"
	 viewBox="0 0 1920 1080" enable-background="new 0 0 1920 1080" xml:space="preserve">
<g id="achievementsSVG">
	<g id="Layer_1_1_">
		<g id="achievements">
			<g opacity="0.57">
				<rect fill="#8D9E9A" width="1919" height="1079"/>
			</g>
		</g>
		<rect x="75" y="42" fill="#8D9E9A" width="559.7" height="486"/>
		<rect x="697.6" y="42" fill="#8D9E9A" width="559.7" height="486"/>
		<rect x="1297.3" y="42" fill="#8D9E9A" width="559.7" height="486"/>
		<rect x="380.6" y="559" fill="#8D9E9A" width="559.7" height="486"/>
		<rect x="980.3" y="559" fill="#8D9E9A" width="559.7" height="486"/>
	</g>
	<g id="score">
		<rect x="125.2" y="424.2" fill="none" width="469.2" height="38.5"/>
		<text transform="matrix(1 0 0 1 218.3789 449.7393)" fill="#FFFFFF" font-family="'ArialMT'" font-size="36px">Reach Score of 100</text>
		<rect x="743.2" y="424.2" fill="none" width="469.2" height="38.5"/>
		<text transform="matrix(1 0 0 1 836.3789 449.7393)" fill="#FFFFFF" font-family="'ArialMT'" font-size="36px">Reach Score of 200</text>
		<rect x="1343.2" y="424.2" fill="none" width="469.2" height="38.5"/>
		<text transform="matrix(1 0 0 1 1436.3789 449.7393)" fill="#FFFFFF" font-family="'ArialMT'" font-size="36px">Reach Score of 300</text>
		<rect x="1025.2" y="945.2" fill="none" width="469.2" height="38.5"/>
		<text transform="matrix(1 0 0 1 1118.3789 970.7393)" fill="#FFFFFF" font-family="'ArialMT'" font-size="36px">Reach Score of 500</text>
		<rect x="431.2" y="945.2" fill="none" width="469.2" height="38.5"/>
		<text transform="matrix(1 0 0 1 524.3789 970.7393)" fill="#FFFFFF" font-family="'ArialMT'" font-size="36px">Reach Score of 400</text>
	</g>
	<g id="snif">
		<g id="hat5">
			<g>
				<g>
					<path fill="#FBB03B" d="M1209,767c-2,0-3.3-0.3-5-1.4c-0.4,3-0.8,6.1-1.2,9.1c24.5-6.6,49-14.5,72.3-24.6
						c9.7-4.2,19-9.5,26.3-17.2c1.6-1.7,3-3.7,5.2-4.8c1.7-0.8,0.1,0.7-0.7,2.2c-2.2,4-3.7,7.2-3,11.8s7,4.3,9.1,1.2
						c3.6-5.3,11.3-14.2,16.1-5.2c4,7.6,6.3,16.4,7.7,24.9c0.9,5.6,10.1,4.3,9.8-1.3c-1.4-27.6-27.9-40.4-51-47.6
						c-14.3-4.4-28.6-8.7-42.9-13.1c-6-1.8-13.7-3.2-18.4-7.7c-2.2-2.2-4.8-8.8-0.4-10.4c-2.1-2.1-4.1-4.1-6.2-6.2
						c-4.8,20.3-15.2,41-31.1,54.9c-7.5,6.6-15.1,3.5-23.1-0.5c-7.7-3.9-15.4-8-24.3-7.9c-2.9,0-4.7,2.3-5,5
						c-0.8,7.9,3.7,14.2,8.1,20.3c5,7,9.7,14.2,14.2,21.5s8.7,14.8,12.7,22.5c2,3.8,3.9,7.7,5.7,11.6c1.6,3.3,2.8,7.4,5.2,10.2
						c9.8,11.5,24.9-8.6,31.2-15.3c8.8-9.3,18-19.1,31.2-21.4c-1.3-3-2.6-6.1-3.9-9.1c-9.7,6.2-19.5,12.4-29.2,18.6
						c-5.4,3.5-0.6,11.7,5,8.6c16.6-9.1,33.1-18.2,49.7-27.3c4.9-2.7,1.6-10.8-3.9-9.1c-23.4,7.3-44.7,19.9-62.4,36.9
						c2.8,1.2,5.7,2.4,8.5,3.5c-2.3-23.3-2.2-46.7,0.5-69.9c0.6-5.4-6.8-6.1-9.3-2.5c-6.7,9.5-13.4,18.9-20.1,28.4
						c2.9,1.7,5.8,3.4,8.6,5c5.6-9.8,12-19,19.3-27.6c-2.8-1.6-5.6-3.2-8.4-4.9c-0.4,2.6-1.1,4.9-2.9,7c-4.1,4.9,2.9,12,7.1,7.1
						c2.8-3.4,4.8-7,5.5-11.4s-4.7-9.1-8.4-4.9c-7.9,9.2-14.9,19-20.9,29.6c-3.2,5.7,5,10.2,8.6,5c6.7-9.5,13.4-18.9,20.1-28.4
						c-3.1-0.8-6.2-1.7-9.3-2.5c-2.6,23.3-2.8,46.7-0.5,69.9c0.4,4.2,5.2,6.7,8.5,3.5c16.4-15.8,36.2-27.6,58-34.3
						c-1.3-3-2.6-6.1-3.9-9.1c-16.6,9.1-33.1,18.2-49.7,27.3c1.7,2.9,3.4,5.8,5,8.6c9.7-6.2,19.5-12.4,29.2-18.6
						c4.9-3.2,1.6-10.1-3.9-9.1c-11.4,2-20.6,8.9-28.7,16.9c-4.1,4-7.9,8.2-11.9,12.3c-2,2-4,4.1-6.1,6c-1,0.9-2,1.9-3.1,2.8
						c-0.8,0.8-1.8,1.4-2.8,1.9c0.1-0.5,0-1-0.3-1.5c-2-2.6-3.2-6.9-4.6-9.8c-1.7-3.6-3.5-7.2-5.4-10.7c-3.4-6.5-7.1-13-10.9-19.3
						s-7.8-12.5-12-18.6c-4-5.8-10.6-12.3-9.9-19.8c-1.7,1.7-3.3,3.3-5,5c9.6-0.1,17.8,6.3,26.4,9.8c9.4,3.8,18.6,3.3,26.7-3.3
						c17.8-14.7,29.7-38.2,34.9-60.4c0.8-3.5-2.4-7.4-6.2-6.2c-10.3,3.5-12.4,16.7-6,24.8c4.1,5.2,10.2,7.9,16.3,9.9
						c8,2.7,16.1,4.9,24.2,7.4c15.1,4.6,31.2,8.2,45.5,15.1c12.5,6,24.7,16.4,25.4,31.2c3.3-0.4,6.5-0.9,9.8-1.3
						c-1.2-7.2-3.1-14.2-5.9-20.9c-2-4.9-4.2-10.4-8.9-13.4c-10.9-6.9-21.5,3.7-27.3,12.2c3,0.4,6.1,0.8,9.1,1.2
						c-0.2-1.6,2.2-4.2,2.8-5.6c1-2,1.9-4.2,1.9-6.5c-0.1-4.7-3.7-8.2-8.2-9c-5.7-1-10.2,2.6-13.8,6.5c-4.3,4.6-8.9,8.3-14.4,11.4
						c-11.8,6.7-25,11.1-37.7,15.6c-14.2,5-28.5,9.4-43,13.3c-4.2,1.1-4.8,6.9-1.2,9.1c3.2,2,6.3,2.8,10,2.8
						C1215.4,777,1215.5,767,1209,767L1209,767z"/>
				</g>
			</g>
			<g>
				<path fill="#FBB03B" d="M1159.6,750.7c19.9,5.9,34.2,19.9,57,5.9c19.9-14.4,16.9-42.7,34.2-57H1231
					c14.4,14.4,39.7,39.7,62.5,39.7c8.5,0,11.4-3,16.9-11.4c11.4-14.4,16.9-31.3,28.3-48.6c-8-3.4-16.9-5.1-25.8-5.9
					c0,28.3,0,57,3,85.4c0,14.4,22.8,19.9,25.8,3c5.9-31.3-34.2-31.3-54.1-28.3c-37.2,5.9-71,28.3-99.7,51.1
					c5.5,3,14.4,5.9,19.9,8.5c-5.9-14.4-11.4-31.3-16.9-45.6c-5.9,5.5-11.4,11.4-16.9,16.9c19.9,5.5,39.7,5.5,57-5.9
					s28.3-31.3,45.6-39.7c-5.9-5.5-12.7-10.6-19.9-14.4c-3,10.1-7.6,19.9-14.4,28.3c5.5,0,8.5-3,14.4-3c5.9,5.9,11.4,11.4,16.9,16.9
					c-3-8.5-19.9-14.4-25.8-3c-3,5.9-3,8.5-5.5,14.4c-5.9,8.5,3,22.8,14.4,19.9c20.7-8,43.1-11.8,65.5-11.4c16.9,0,16.9-25.8,0-25.8
					c-24.9-0.4-50.3,3.4-73.9,11.4c5.5,5.9,10.6,12.7,14.4,19.9c3-5.9,3-8.5,5.9-14.4c-8-6.3-18.2-9.3-28.3-8.5
					c5.9,14.4,19.9,19.9,31.3,11.4c14.4-11.4,8.5-34.2-3-45.6c-31.3-25.8-59.6,22.8-25.8,34.2c3,0,11.4,0,14.4-3
					c11.4-11.4,16.9-25.8,22.8-39.7c3-11.4-8.5-19.9-19.9-14.4c-25.8,16.9-42.7,57-79.9,42.7c-7.6-1.7-15.2,3-16.9,10.6
					c-0.4,2.1-0.4,4.2,0,6.3c5.5,14.4,11.4,31.3,16.9,45.6c3,8.5,11.4,14.4,19.9,8.5c16.5-11.4,33.4-21.6,51.1-30.4
					c9.7-5.1,20.3-8.9,31.3-11.4c5.9,0,31.3-3,34.2-8.5c8.5,0,16.9,3,25.8,3c-3-28.3-3-57-3-85.4c0-14.4-16.9-16.9-25.8-5.5
					c-5.9,8.5-8.5,14.4-14.4,22.8c-2.1,5.1-5.1,9.7-8.5,14.4c-3,8.5-5.9,11.4-5.9,5.9c0,0-11.4-8.5-14.4-11.4
					c-8.5-5.9-16.1-12.7-22.8-19.9c-5.1-5.5-13.9-5.9-19.4-0.4l-0.4,0.4c-11.4,8.5-14.4,19.9-19.9,34.2c-3,11.4-5.9,22.8-22.8,19.9
					c-5.5,0-14.4-5.5-19.9-8.5C1151.2,719.8,1142.7,745.2,1159.6,750.7L1159.6,750.7z"/>
				<path d="M1193.8,824.6c-16.9-39.3-37.2-77.3-59.6-113.7l-8.5,8.5c22.8,8.5,48.6,14.4,71,22.8c3,0,5.5,0,8.5-5.5
					c8.5-22.8,16.9-48.6,25.8-71c-3,0-5.5,3-8.5,3c19.9,14.4,39.7,31.3,59.6,48.2c3.4,3,8,3,11.4,0c14.4-25.4,31.7-49,51.1-71
					c-3-3-8.5-3-11.4-5.5c0,47.7,5.5,95.5,16.9,142.4c3-3,8.5-3,11.4-5.9c-5.9-14.4-22.8-14.4-34.2-14.4
					c-15.2,0.4-30.4,2.5-45.6,5.9c-30,7.6-57.9,23.2-79.9,45.6c-2.5,2.1-3.4,5.9-1.3,8.5c2.1,2.5,5.9,3.4,8.5,1.3
					c0.4-0.4,0.8-0.8,1.3-1.3c19-19.4,42.7-33.8,68.5-42.7c13.1-3.4,26.2-5.1,39.7-5.5c8.5,0,25.8-3,31.3,8.5c3,8.5,14.4,3,11.4-5.9
					c-11.4-45.6-14.4-90.9-16.9-136.5c0-5.9-8.5-8.5-11.4-5.9c-21.1,21.1-39.3,45.2-54.1,71h11.4c-19.4-17.7-40.6-33.8-62.5-48.2
					c-2.5-1.7-5.9-1.3-7.6,1.3c-0.4,0.4-0.8,1.3-0.8,1.7c-8.5,22.8-16.9,48.2-25.8,71c3,0,5.9-3,8.5-5.9
					c-22.8-8.5-48.2-14.4-71-22.8c-5.9-3-11.4,5.5-8.5,8.5c19.9,37.2,39.7,76.9,59.6,113.7C1185.4,838.6,1196.8,832.6,1193.8,824.6
					L1193.8,824.6z"/>
				<path fill="#9E005D" d="M1256.4,759.1L1256.4,759.1c-3-3-3-5.9-5.5-5.9l-3-3v-3l0,0c0-3-3-5.9-3-8.5l0,0v-8.5
					c-3,3-5.9,5.9-8.5,5.9h8.5l3,3l0,0v3l0,0v3l0,0c-1.7,2.5-1.3,5.9,1.3,7.6c0.4,0.4,1.3,0.8,1.7,0.8
					C1250.9,765,1256.4,762.1,1256.4,759.1c8.5-13.9,0-36.8-16.9-39.7c-5.5,0-8.5,3-8.5,5.5c0.4,14.4,5.5,28.3,14.4,39.7
					c3,3,8.5,3,8.5,0C1259.3,765,1259.3,762.1,1256.4,759.1L1256.4,759.1z"/>
				<path fill="#9E005D" d="M1310.5,747.7c8.5,0,8.5-14.4,0-14.4S1302,747.7,1310.5,747.7z"/>
				<path fill="#9E005D" d="M1193.8,776.4h-8.5v8.5c0,1.7,1.3,3,2.5,3l0,0h11.4v-8.5c0-1.7-1.3-3-2.5-3l0,0H1193.8L1193.8,776.4z"/>
			</g>
			<g>
				<g>
					<path fill="#9E005D" d="M1197.4,788.1c-1.6-0.7-2.7-1.6-3.4-3.3c-0.5-1.1-0.8-2.4-1-3.6c-0.1-0.7,0.1-2.3-0.2-2.8
						c0.1-1.5-0.9-1.3-3.2,0.6c0.3,0.2,0.6,0.5,0.8,0.9c0.3,1.2,0.9,2.3,1.2,3.5c0.7,2.8,0.6,5.7,0.3,8.6c-0.3,2.7,2.5,5,5,5
						c3,0,4.7-2.3,5-5c0.7-5.6,0.1-12.2-2.8-17.1c-2.7-4.6-8.8-7.9-13.5-4c-4.1,3.4-3.1,10.4-1.8,14.9c1.3,4.6,4,9,8.6,11
						c2.5,1.1,5.3,0.7,6.8-1.8C1200.4,792.9,1199.9,789.2,1197.4,788.1L1197.4,788.1z"/>
				</g>
			</g>
			<g>
				<g>
					<path fill="#9E005D" d="M1315.1,741.9c-2.4-2.2-3.7-5-3.8-8.3c-1.7,1.7-3.3,3.3-5,5c1.2-0.1,1.6,0.1,1.5,1.3
						c-0.2,2.7,2.4,5,5,5c2.9,0,4.8-2.3,5-5c0.5-6.2-5.3-12-11.5-11.3c-2.6,0.3-5.1,2.1-5,5c0.1,5.8,2.5,11.3,6.8,15.3
						C1312.8,753.4,1319.9,746.3,1315.1,741.9L1315.1,741.9z"/>
				</g>
			</g>
		</g>
		<g id="hat4_2_">
			<g>
				<g>
					<path fill="#8CC63F" d="M611.4,838.4c-3.3,6.8-7.9,12.3-14.2,16.4c2.3,2.3,4.6,4.6,6.8,6.8c6.9-12.8,16.3-23.8,26.3-34.2
						c10.3-10.8,20.3-21.6,33.8-28.3c28-13.7,59.5-22.1,90-28c6.3-1.2,3.6-10.9-2.7-9.6c-16.8,3.3-33.4,7.4-49.7,12.7
						c-15,4.8-30.3,10-44.3,17.2c-13.6,7-23.9,18.1-34.3,29.1c-10.5,11.1-20.6,22.7-27.9,36.3c-2.3,4.2,2.5,9.7,6.8,6.8
						c7.7-5,13.8-11.7,17.8-20C622.8,837.6,614.2,832.6,611.4,838.4L611.4,838.4z"/>
				</g>
			</g>
			<g>
				<g>
					<path fill="#8CC63F" d="M736.9,760.3c-8.6,1.9-17.2,3.8-25.8,5.7c-9.4,2.1-5.4,16.5,4,14.5c8.6-1.9,17.2-3.8,25.8-5.7
						C750.3,772.7,746.3,758.2,736.9,760.3L736.9,760.3z"/>
				</g>
			</g>
			<path fill="#8CC63F" d="M601.8,857.2c6.3-9.3,15.5-15.5,25.1-20.4c-1.9-1.9-3.5-3.9-4.6-6.3c-7.9,7.9-17.2,15.5-25.1,23.4
				l4.6,4.6c9.3-12.5,20.4-25.1,29.7-39c3-3.2-1.6-9.3-4.6-4.6c-9.3,10.9-20.4,18.8-32.7,26.7c1.6,1.6,3.2,4.6,4.6,6.3L655,801
				l-4.6-4.6c-13.7,12.3-26.9,25.3-39,39c-1.2,1.4-0.7,3.5,0.7,4.6c1.2,0.9,2.8,0.9,3.9,0c13.5-13.7,28.1-26.2,43.9-37.4
				c7.9-4.6,15.5-10.9,23.4-14.2c9.3-4.6,18.8-6.3,28.1-9.3c10.9-3.2,21.8-4.6,31.3-10.9c1.6-0.9,2.1-3.2,1.2-4.9
				c-0.9-1.4-2.6-2.1-4.2-1.4c-18.8,7.9-39,14.2-57.8,21.8c-15.5,8.1-29.9,18.6-42.2,31.3c-7.2,7-13.9,14.2-20.4,21.8
				c-3.2,3,1.6,9.3,4.6,4.6c14.2-15.5,28.1-32.7,46.9-45.2c10.9-6.3,21.8-9.3,32.7-14.2c12.5-4.6,25.1-9.3,36-14.2
				c-1.6-1.6-1.6-4.6-3.2-6.3c-7.9,6.3-17.2,7.9-28.1,9.3c-9.5,1.9-19,4.4-28.1,7.9c-17.2,7.9-32.7,18.8-48.5,31.3
				c-7.9,7.9-17.2,15.5-25.1,23.4l4.6,4.6c12.5-14.2,26.7-26.7,39-39c1.2-1.4,0.7-3.5-0.7-4.6c-1.2-0.9-2.8-0.9-3.9,0l-56.4,46.9
				c-3.2,3,1.6,7.9,4.6,6.3c12.5-8.1,24.1-17.4,34.3-28.1l-4.6-4.6c-9.3,12.5-20.4,25.1-29.7,39c-1.4,1.2-1.9,3.2-0.7,4.6
				c1.2,1.4,3.2,1.9,4.6,0.7c0.2-0.2,0.5-0.5,0.7-0.7c7.9-7.9,17.2-15.5,25.1-23.4c3.2-3-1.6-7.9-4.6-6.3
				c-10.9,4.6-18.8,12.5-26.5,21.8C593.9,855.5,598.6,861.8,601.8,857.2L601.8,857.2z"/>
			<path d="M739.4,755.8c-29.2,6-57.3,17.2-82.8,32.7c-12.5,7.4-24.6,15.8-36,25.1c-6.5,4.4-12.3,9.5-17.2,15.5
				c-4.6,4.6-10.9,10.9-14.2,17.2c-3.5,6-2.8,13.5,1.6,18.8c3.2,4.6,10.9,7.9,15.5,4.6c3.2-1.6,6-4.4,7.7-7.7
				c3.2-3.2,4.6-6.3,7.9-9.3c4.6-6.3,10.9-14.2,15.5-20.4c18.8-23.4,45.2-39,73.3-46.9c9.3-3.2,17.2-3.2,26.5-6.3
				c4.9-0.2,9.5-1.4,14.2-3.2c3.2-1.6,7.9-1.6,10.9-4.6c4.6-6.3-1.6-12.5-7.9-12.5h-28.1c-4.6,0-4.6,7.9,0,7.9h23.4
				c2.1-0.2,4.4,0.2,6.3,1.6l0,0c-1.6,0-3,1.6-4.6,1.6c-14.2,3-29.7,4.6-43.9,9.3c-25.1,7.9-48.5,20.4-67.1,39
				c-10.9,10.9-18.8,23.4-28.1,34.3c-3.2,3-7.9,12.5-14.2,9.3c-4.6-3.2-4.6-9.3-3.2-15.5c3.2-5.8,7.4-11.1,12.5-15.5
				c4.2-4.6,9-8.8,14.2-12.5l32.7-23.4c26.2-15.5,54.8-26.5,84.5-32.7C745.5,762,744.1,755.8,739.4,755.8L739.4,755.8z"/>
			<ellipse fill="#FFFFFF" cx="617.4" cy="665" rx="40.6" ry="31.3"/>
			<path d="M681.4,780.6c-6.7-32-18.8-62.7-36-90.5c-1.2-1.2-3-1.9-4.6-1.6c-15.5,4.6-34.3,6.3-48.5-3.2
				c-10.9-7.9-17.2-21.8-9.3-34.3c15.5-25.1,62.4-25.1,70.3,6.3c3.2,14.2-4.6,31.3-20.4,32.7c-4.6,0-4.6,7.9,0,7.9
				c16.7-2.1,29.5-16,29.7-32.7c0-17.2-14.2-32.7-31.3-37.4c-17.2-4.6-37.6,1.6-49.9,13.9c-12.1,11.4-12.5,30.6-1.2,42.7
				c0.5,0.5,0.7,0.7,1.2,1.2c15.5,17.2,40.6,15.5,61,9.3c-1.6,0-3.2-1.6-4.6-1.6c17.4,27.1,29.5,57.3,36,89.1c0.7,2.1,3,3.2,5.1,2.6
				C680.7,784.1,681.9,782.2,681.4,780.6L681.4,780.6z"/>
			<path d="M623.6,671.3L623.6,671.3c0-0.9-0.7-1.6-1.4-1.6l0,0L623.6,671.3l-1.6-1.6l0,0v-1.6l0,0v-1.6h1.6v1.6l0,0v1.6l0,0V671.3
				L623.6,671.3c0-1.6,1.6,0,1.6-1.6h-1.6C623.6,669.7,625.3,669.7,623.6,671.3v-1.6l0,0v-1.6h4.6v1.6l0,0l-1.6,1.6l0,0
				C623.6,672.9,623.6,672.9,623.6,671.3L623.6,671.3C622,671.3,623.6,672.9,623.6,671.3H622v-1.6l0,0v-1.6l0,0v-1.6l0,0v-1.6l0,0
				c0,1.6,3,3.2,4.6,3.2s3-3.2,3-4.6c-1.6-3.2-4.6-6.3-7.9-4.6c-3,1.4-4.6,4.6-4.6,7.9c0,5.8,3,11.1,7.9,13.9
				c4.6,1.6,12.5-1.6,14.2-6.3c1.6-3,1.6-6.3,0-9.3s-3-3-6.3-4.6c-1.6-1.6-4.6-1.6-7.9,0c-1.2,0.2-2.3,0.7-3,1.6l-1.6,1.6l0,0
				c-3,4.6,0,10.9,4.6,14.2c1.6,1.6,4.6,1.6,7.9,1.6c2.8-1.2,5.1-3.5,6.3-6.3c1.2-4.6-0.7-9.7-4.6-12.5c-4.2-2.3-9.5-0.9-11.8,3.2
				c-0.2,0.5-0.5,0.9-0.7,1.4c-1.9,4.6-1.2,10,1.6,14.2c1.6,1.6,1.6,1.6,3.2,1.6c1.6,0,4.6,0,4.6-3
				C628.5,675.9,625.9,673.9,623.6,671.3L623.6,671.3z"/>
			<path d="M586.3,633.9h-4.6l-1.6-1.6l0,0v-1.6l0,0v-1.6l0,0v-1.4l0,0v-1.6c0-1.6,0-4.6-3.2-4.6c-1.6,0-3,0-4.6,3.2
				c-1.6,4.6,0,10.9,3.2,15.5s9.3,6.3,15.5,4.6c1.6,0,3.2-3.2,3.2-4.6C590.9,635.6,589.5,633.9,586.3,633.9L586.3,633.9z"/>
			<path d="M609.7,626.1L609.7,626.1c-0.9,0-1.6-0.7-1.6-1.4l0,0l-1.6-1.6l0,0v-1.6l0,0c0-1.6,0-1.6-1.6-3l0,0v-3.2l0,0v-3.2l0,0
				c0-0.9,0.7-1.6,1.4-1.6l0,0c0.9-1.9,0-3.9-1.6-4.6c-1.6-0.7-3.7,0-4.6,1.6c-6.3,9.3-3,23.4,6.3,28.1c1.4,0.9,3.2,0.7,4.2-0.7
				c0.2-0.2,0.5-0.7,0.5-0.9C612.3,631.2,611.8,628.1,609.7,626.1L609.7,626.1z"/>
			<path d="M636.2,629.1c-3.5-9.7-1.2-20.7,6.3-28.1c1.4-1.2,1.9-3.2,0.7-4.6c-1.2-1.4-3.2-1.9-4.6-0.7c-0.2,0.2-0.5,0.5-0.7,0.7
				c-7.9,9.3-12.5,23.4-7.9,34.3c0,1.6,3.2,3.2,4.6,3.2C635.9,632.6,636.4,630.9,636.2,629.1L636.2,629.1z"/>
		</g>
		<g id="hat3">
			<g>
				<g>
					<path fill="#29ABE2" d="M1478.7,266.2c-8.2-11.9-9.8-26.5-4.3-39.8c-3,0.4-6.1,0.8-9.1,1.2c3.9,6.8,5.3,14.4,3.8,22.1
						c3.2,0,6.4,0,9.6,0c-1.2-7.9,3-15.6,9.7-19.6c-2.4-1-4.9-2-7.3-3c0.6,2.4-0.6,4.6-3,5.3c2.1,2.1,4.1,4.1,6.2,6.2
						c2.4-10,11.4-16.8,21.7-16.4c-1.4-0.8-2.9-1.7-4.3-2.5c1.1,2.1-0.5,5.1-2.9,5.3c1.7,1.7,3.3,3.3,5,5c0.3-4.7,10.3-3.6,13.1-3.5
						c5.7,0.1,10.5-0.9,15-4.5c1.3-1,1.8-3.4,1.3-4.9c-3.5-9.5-14.1-6.4-20.3-1.7c-10.7,8.1-21.3,16.4-32,24.5
						c2.4,1.9,4.9,3.8,7.3,5.6c2.3-8.7,6.8-16,13.4-21.9c2.9-2.6,1.2-7.3-2.2-8.4c-12.1-3.7-28.5-5-33.4,9.9
						c-0.9,2.8,1.6,6.7,4.8,6.3c23.6-3.1,47.1-6.7,70.5-10.9c5.5-1,11-2,16.5-3.1c4.6-0.9,9.4-1.8,13.4-4.4
						c7.3-4.7,7.9-13.2,2.1-19.5c-3.7-3.9-8.1-7.3-12.1-10.9c-4.1-3.6-8.1-7.5-12.5-10.9c-3.2-2.5-7.1-3.9-10.9-2
						c-1.5,0.7-2.7,1.9-3.7,3.2c-0.7,0.9-1.2,1.8-1.7,2.8c-0.3,0.6-0.6,1.2-0.9,1.8c-1,0.8-0.9,1.4,0.2,1.7c1.2,2.2,0.4-1.3,0.3-1.7
						c-0.2-1.3-0.2-2.6-0.2-3.9c0.1-2.2,0.5-4.3,1-6.4c1.1-5.2,2.5-10.4,4.9-15.1c4.3-8.6,13-16.9,23.5-14.5
						c11.1,2.5,17,13.9,20.5,23.6c4.4,12.2,8,24.8,11.9,37.2c0.8-1.9,1.5-3.8,2.3-5.6c-3.4,2.1-6.6,3-10.6,3
						c0.8,3.1,1.7,6.2,2.5,9.3c16.2-9.7,32.5-21.7,50.5-27.9c8.3-2.9,17.9-4.5,26.5-1.5c9,3.2,10.2,11.7,11.1,20.2
						c0.8,7.7,1.5,15.9-1,23.3c-2.6,7.7-10.6,11-13.5,18.5c-6.7,17.2,11.9,27.3,18.9,40c4.6,8.4,5.3,19.9,4.5,29.3
						c-0.4,5.1-4.7,5.6-8.9,6.7c-5.3,1.3-10.6,2.7-15.9,4c1.3,3,2.6,6.1,3.9,9.1c10-7.2,18.5-15.7,25.6-25.7
						c3.3-4.6-4.1-10.3-7.9-6.1c-7.1,8.1-14.2,16.2-21.4,24.3c2.4,2.4,4.7,4.7,7.1,7.1c5.2-6.1,11-11.8,17.4-16.7
						c-2.3-2.3-4.6-4.6-6.8-6.8c-3.7,4.8-7.4,9.6-11.1,14.3c2.9,1.7,5.8,3.4,8.6,5c3.3-5.3,6.5-10.7,9.8-16c3-4.9-3.9-10.1-7.9-6.1
						c-10.9,11-27.1,16.3-42.3,12.7c-14.3-3.3-25.9-13.5-31.8-26.9c-1.6-3.7-6.8-2.8-8.6,0c-5.8,8.7-16.3,12.6-24.7,18.4
						c-4.2,2.9-8.1,6.1-11,10.3c-3.7,5.1-4.4,12.2-8.7,16.9c-8.2,8.8-21.9,4.2-27.9-4.6c-8.2-11.8-5.7-26.8-1.2-39.5
						c2.1-6.1-7.5-8.7-9.6-2.7c-5.3,15-7.3,32.6,1.8,46.6c7.4,11.4,21,17.8,34.4,13.2c6.3-2.2,11.2-6.5,14.1-12.5
						c3.3-6.9,5-12.7,11.3-17.6c10.3-8,22.8-12.2,30.3-23.4c-2.9,0-5.8,0-8.6,0c7,15.9,22,28.3,39.2,31.8
						c18.3,3.7,37.5-2.4,50.7-15.6c-2.6-2-5.2-4-7.9-6.1c-3.3,5.3-6.5,10.7-9.8,16c-3.5,5.7,4.8,10,8.6,5c3.7-4.8,7.4-9.6,11.1-14.3
						c3-3.9-3-9.8-6.8-6.8c-7.1,5.5-13.6,11.4-19.4,18.3c-4.1,4.9,2.8,11.9,7.1,7.1c7.1-8.1,14.2-16.2,21.4-24.3
						c-2.6-2-5.2-4-7.9-6.1c-6.1,8.5-13.5,16-22,22.1c-4.4,3.2-1.9,10.6,3.9,9.1c5.3-1.3,10.6-2.7,15.9-4c3.9-1,8.1-2,11.3-4.7
						c6.9-6,5.4-17.6,4.6-25.7c-0.9-9.6-3.4-18.4-9.5-26c-5.3-6.6-16.7-14.6-14.5-24.4c1-4.4,5.7-6.9,8.5-10.2
						c2.7-3.3,4.7-7,5.9-11.1c2.6-8.6,2-18,1-26.8c-1.1-9.2-2.6-18.5-10.5-24.4c-7.4-5.4-17.5-6.5-26.4-5.5
						c-11.5,1.4-22.2,6.3-32.3,11.9c-11.4,6.4-22.5,13.4-33.8,20.1c-4.2,2.5-2.5,9.3,2.5,9.3c5.6,0,10.8-1.5,15.6-4.4
						c1.8-1.1,3-3.5,2.3-5.6c-3.6-11.3-7.1-22.7-10.8-34c-3.3-9.7-7.4-19.8-15.4-26.6c-7.1-6.1-16.2-9.4-25.6-7.2
						c-9.4,2.2-17.1,9.4-21.7,17.7c-4.6,8.4-7.9,19.1-8,28.7c-0.1,4,0.6,10,3.6,13c3.3,3.1,8.4,2.2,11.5-0.6
						c1.3-1.2,2.4-2.7,3.3-4.2c0.5-0.9,0.8-2.2,1.5-3c0.9-1.1-1.4-1.2,1.1,0.1c2.3,1.2,4.5,3.9,6.4,5.7c2.6,2.3,5.2,4.6,7.8,6.9
						c2,1.8,11.1,7.7,10.5,10.8c-0.7,3.4-9.9,4.2-12.3,4.7c-28,5.4-56.1,10-84.4,13.7c1.6,2.1,3.2,4.2,4.8,6.3
						c2.8-8.6,15.2-4.7,21.1-2.9c-0.7-2.8-1.5-5.6-2.2-8.4c-7.8,7.1-13.3,16.1-16,26.4c-1,3.8,3.7,8.4,7.3,5.6
						c7.4-5.6,14.7-11.3,22.1-16.9c3.6-2.7,7.1-5.5,10.7-8.2c1.1-0.8,2.2-1.7,3.6-2.2c0.6-0.2,1.3-0.4,1.9-0.5c1,0.2,0.8-0.2-0.6-1
						c0.4-1.6,0.9-3.2,1.3-4.9c-2.7,2.2-6.9,1.6-10.2,1.6c-3.4-0.1-6.7,0-10,1c-6.1,1.9-10.4,6.1-10.8,12.6c-0.1,2.6,2.4,5.2,5,5
						c10.1-0.6,16.2-11.3,11.6-20.3c-0.8-1.6-2.6-2.4-4.3-2.5c-14.6-0.5-27.9,9.6-31.4,23.8c-0.9,3.6,2.4,7.3,6.2,6.2
						c7.6-2.3,11.9-9.8,10-17.6c-0.8-3.1-4.6-4.6-7.3-3c-10.9,6.5-16.1,18.5-14.3,30.9c0.7,4.9,8.7,4.7,9.6,0
						c2-10.4,0.5-20.6-4.8-29.8c-2.3-4.1-7.6-2.6-9.1,1.2c-6.4,15.6-4.3,33.8,5.3,47.6C1473.7,276.5,1482.4,271.5,1478.7,266.2
						L1478.7,266.2z"/>
				</g>
			</g>
			<g>
				<g>
					<path fill="#29ABE2" d="M1545.6,171.9c-1.2-5,0-9.8,2.6-14.1c2-3.4,6.4-9.2,10.4-9.8c-1.3,0-2.7,0-4,0c3.1,0.6,6.6,5,8.9,7.1
						c2.9,2.7,5.7,5.6,8.4,8.6c5.4,6.1,9.8,12.7,14,19.6c3.7,6.1,8,11.9,14.8,14.7c7.7,3.1,15.7,1,22.8-2.6
						c11.9-6,25.6-18.1,38.5-7.2c10.1,8.5,7.4,23.9-3.7,30c3.7,2.8,7.3,5.6,11,8.5c1.2-8.7,6.8-15.8,8.7-24.3
						c1.8-8.3,0.7-17.4-6-23.4c-6.2-5.5-14.9-6.8-22.8-5.4c-9.2,1.7-16.8,7.5-24.9,11.6c-6.7,3.4-14.1,4.8-19.9-0.8
						c-4.9-4.8-7.2-11.7-8.9-18.2c-3.5-13.3-10.6-30.3-27.6-26.8c-6.7,1.3-12,6.1-16.7,10.7c-3.8,3.6-8.1,8.9-13.5,8.8
						c2.4,1.8,4.8,3.7,7.2,5.5c-1.3-4.4,0-8.9,3.9-11.4c8.1-5.2,0.6-18.2-7.6-13c-9.5,6-14.1,17.5-10.8,28.4c1,3.2,3.9,5.4,7.2,5.5
						c12.4,0.3,19.4-9.8,28.1-16.8c2.5-2.1,5.5-4.2,8.4-2.3c4.7,2.9,5.7,11.4,7,16.2c3.5,12.9,10.4,26.6,23.9,31.2
						c8.2,2.8,16.9,0.7,24.5-2.8c7.2-3.3,13.7-8.7,21.5-10.7c6.5-1.7,13.6,0.5,12.7,8.3c-1,9.1-7.7,16.6-9,25.8
						c-0.9,6.3,4.8,11.9,11,8.5c14.2-7.8,21.5-25.9,15.4-41.2c-6.6-16.4-24.8-24.6-41.6-19.5c-9.3,2.8-16.4,9.1-25.2,12.8
						c-8.6,3.7-12.2-1.9-16.3-8.6c-4.9-8-10.4-15.7-16.7-22.6c-3.1-3.4-6.3-6.6-9.7-9.6c-3.4-3-7.2-7-11.6-8.4
						c-9.1-2.9-18.3,7.3-23,13.9c-5.9,8.3-8.2,18.3-5.8,28.2C1533.4,185.3,1547.9,181.3,1545.6,171.9L1545.6,171.9z"/>
				</g>
			</g>
			<g>
				<g>
					<path fill="#29ABE2" d="M1534.9,210.4c-5.3-3-11-2.9-16.9-2.9c-6.4,0-12.8,0-19.2,0c-10.6,0-23-1.8-30.1,7.8
						c-2.6,3.5-3.8,7.6-5.6,11.6c-2.2,4.8-5.9,8.4-7.6,13.6c-3.3,10.3-4.5,23.5-1.1,33.8c1.2,3.5,5.3,6.8,9.2,5.2
						c11.4-4.5,10.4-16.4,14.8-26c4.2-9.2,10.9-17.3,19.1-23.2c8.2-5.8,17.9-9.8,27.9-10.5c1-0.1,3.4-0.6,4.3-0.1c1.6,1,3,6.3,3.3,8
						c0.1,0.9-0.2,3.6-0.1,3.6c-1,0.1-3.2-4.6-3.5-5.1c-4.6-8.5-17.6-0.9-13,7.6c4,7.3,10.5,14.3,19.7,12.1
						c7.8-1.8,12.2-9.9,12-17.4c-0.2-7.3-4.2-18-10.9-21.8c-6.4-3.6-15.5-2-22.3-0.5c-14.2,3.1-27.5,11-37.3,21.6
						c-4.9,5.3-9.2,11.4-12.3,18c-1.7,3.6-3.1,7.3-4.2,11.1c-0.5,1.8-0.8,3.6-1.3,5.4c-0.2,0.7-0.4,1.3-0.6,2
						c-0.9,1.2-0.9,1.4,0.2,0.6c3.1,1.7,6.2,3.5,9.2,5.2c-2.5-7.6-1.4-16.7,0.7-24.3c1.1-4,4-6.7,5.9-10.3c1.6-3,2.5-6.2,4-9.2
						c1.5-3.1,2.8-3.8,6.3-3.9c4.7-0.2,9.4,0,14,0c4.8,0,9.6,0,14.4,0c3.9,0,9.7-1.1,13.2,0.9
						C1535.7,228.1,1543.3,215.1,1534.9,210.4L1534.9,210.4z"/>
				</g>
			</g>
			<g>
				<path fill="#29ABE2" d="M1564.1,169.2c0-9.9,0-19.1,9.9-19.1c-5-5-9.9-9.9-9.9-14.2c-9.2,33.3,19.1,71.5,52.4,66.6
					c9.2,0,19.1-5,28.3-5l9.2,5l-5,5c-9.9,5-14.2,5-19.1,14.2c-5,9.2-5,19.1,5,24.1c5.7,5,13.5,5,19.1,0c5-14.2,19.1-28.3,33.3-38.2
					h-14.2c5,5-14.2,19.1-19.1,24.1c-9.2,9.9-14.2,19.1-9.2,28.3c0,9.9,9.2,14.2,14.2,24.1l9.2,9.2c0,2.8,2.1,5,5,5l0,0v5h-5
					c-5,0.7-10.6-1.4-14.2-5c-9.2-5-19.1-14.2-33.3-19.1s-24.1,0-38.2,9.9c-9.2,5.7-21.2,3.5-28.3-5c-19.1-24.1,5-47.4,28.3-57.4
					c14.2-5,5-24.1-9.2-19.1c-19.1,5-33.3,19.1-33.3,38.2c-0.7,19.8,10.6,38.2,28.3,47.4c19.1,9.2,41.8,5.7,57.4-9.2
					c18.4-14.2,30.5-34.7,33.3-57.4c5-14.2-19.1-19.1-24.1-5c-5,28.3-24.1,57.4-57.4,52.4c-9.2,0-19.1-9.9-19.1-24.1
					c0-9.9,5-19.1,14.2-24.1c-5-5-5-14.2-9.9-19.1c-28.3,14.2-52.4,38.2-43.2,71.5c5,12.7,13.5,24.1,24.1,33.3
					c14.2,9.2,28.3,5,43.2-5c7.1-3.5,15.6-5.7,24.1-5c9.9,5,14.2,9.9,19.1,9.9c11.3,6.4,25.5,8.5,38.2,5c14.2-5,19.1-19.1,14.2-33.3
					c-6.4-10.6-14.2-19.8-24.1-28.3c0-5-5-5-5-9.9c0.7-7.8,6.4-13.5,14.2-14.2c14.2-9.2,19.1-28.3,9.9-42.5l0,0
					c-2.8-4.2-8.5-4.2-12.7-1.4c-0.7,0.7-1.4,0.7-1.4,1.4c-18.4,7.8-32.6,23.4-38.2,43.2h24.1c3.5-0.7,7.1-2.1,9.9-5
					c9.2-5,14.2-9.9,14.2-19.1c0-14.2-14.2-28.3-28.3-33.3c-14.2,0-33.3,9.9-47.4,0c-9.2-9.2-19.1-24.1-14.2-33.3
					c0-5-5-14.2-9.2-14.2c-24.1,0-38.2,24.1-33.3,47.4C1545,189,1568.4,184.1,1564.1,169.2L1564.1,169.2z"/>
				<path fill="#29ABE2" d="M1535.8,293.1c-19.1,24.1-11.5,53.8,11.9,68c4.2,2.8,12.2,10.6,15,6.4c0.7-0.7,1.4-2.1,1.4-2.8
					c10.6-19.1,19.1-40.4,24.1-62.3h-24.1c0,5,0,14.2-9.2,14.2s-14.2-9.9-9.9-14.2c-5,0-9.9,5-14.2,5c4.2,2.8,4.2,8.5,1.4,12.7
					c-0.7,0.7-0.7,1.4-1.4,1.4h14.2c-10.6-15.6-14.2-34.7-9.9-52.4c0.7-5-1.4-10.6-5-14.2c-9.9-9.9-24.1-5-33.3,0
					c-9.2,5-19.1,14.2-28.3,9.2c-9.9,0-5-14.2,0-19.1c9.2-14.2,33.3-5,47.4,0c0-5-5-9.9-5-14.2l0,0c0,5,5,9.9,5,14.2
					c0-5,4.2-9.2,9.9-9.9c-5-5-9.9-9.2-9.9-14.2c-5,14.2-14.2,24.1-28.3,24.1c5,0,9.9,5,14.2,5l0,0c0-5-5-9.2-5-14.2
					c-5,9.9-9.9,14.2-19.1,14.2c5,5,9.9,5,9.9,9.9c0-9.9,14.2-9.9,19.1-5c9.9,5,19.1,19.1,24.1,28.3c5-5,12-8.5,19.1-9.9
					c-14.2-23.4-9.9-53.1,9.9-71.5c5-5,0-19.1-9.9-19.1c-5,0,0-9.9,5-5c9.2,9.2-9.9,19.1-14.2,24.1c5,0,9.2,5,14.2,5
					c-5-9.9-9.9-24.1-5-33.3c5-5,9.9-9.2,9.9,0c0,5,0,9.9-5,5c-5-5,0-9.9,5-5c14.2,5-14.2,19.1-9.9,0c5-9.2,9.9-5,14.2,0
					c9.9,9.9,5,24.1,0,33.3s0,19.1,14.2,14.2c21.2-4.2,43.2-0.7,62.3,9.2c5-5,5-14.2,9.9-19.1c-5,0-9.2-4.2-9.9-9.9l-9.9,9.9
					c9.2,0,14.2,9.9,9.2,14.2c5,0,9.9-5,14.2-5c-9.2-5-5-19.1,0-24.1c-5,0-9.2,0-9.2-5c5,5,9.2,9.2,5,14.2h19.1v-14.2
					c-17,12-36.8,19.8-57.4,24.1c-9.2,0-14.2,9.9-9.2,19.1c9.9,21.2,4.2,46.7-14.2,62.3c-9.9,5,0,19.1,9.2,19.1
					c19.1-0.7,38.2,0.7,57.4,5c-0.7-8.5,0.7-16.3,5-24.1c-14.2,0-19.1-19.1-9.9-28.3c-5,0-9.9,5-14.2,5c8.5,3.5,15.6,10.6,19.1,19.1
					c0-5,5-5,5-9.2c-5,5-9.9,5-19.1,5c5,5,9.9,5,9.9,9.9V279c-5,0-9.9,5-14.2,5c5,1.4,7.8,6.4,6.4,11.3c0,0.7-0.7,2.1-1.4,2.8h-5
					c-5,5-9.9,5-19.1,9.2c4.2-2.8,4.2-8.5,1.4-12.7c-0.7-0.7-0.7-1.4-1.4-1.4c0,5,5,9.9,5,14.2l0,0c5-5,9.9-9.2,14.2-14.2
					c-19.1,0-33.3-5-52.4,0c-9.2,0-19.1,5-24.1,5c-9.9,0-19.1,5-24.1,5c-6.4,0.7-13.5-0.7-19.1-5v-5
					C1520.9,288.9,1530.9,293.8,1535.8,293.1c5,9.9,5,14.2,0,19.1c-5,14.2,14.2,19.1,24.1,5c9.9-19.1-9.9-43.2-28.3-47.4
					c-14.2-4.2-29,4.2-33.3,18.4c-1.4,5-1.4,9.9,0,14.9c5,24.1,33.3,24.1,57.4,19.1c27.6-10.6,56.7-13.5,85.7-9.9
					c9.9,0,19.1-9.9,14.2-14.2c-9.2-14.2-38.2-14.2-43.2,5c-0.7,5,1.4,10.6,5,14.2c9.2,5,24.1,9.9,28.3,0s5-19.1-5-24.1
					c-5-5-19.1,0-19.1,9.9c0,19.1,24.1,28.3,43.2,19.1c19.1-14.2,9.9-43.2-9.9-52.4c-4.2-2.8-9.9-2.1-12.7,2.1
					c-0.7,0.7-1.4,2.1-1.4,2.8V303c0.7,5,4.2,9.2,9.9,9.9c10.6,1.4,20.5-2.1,28.3-9.9c5,0,5-5,5-9.9c-0.7-19.8-14.2-37.5-33.3-43.2
					c-5-0.7-10.6,1.4-14.2,5c-19.1,24.1,0,62.3,28.3,62.3c14.2,0,14.2-19.1,5-24.1c-20.5-5.7-41.1-8.5-62.3-9.2c5,5,5,14.2,9.9,19.1
					c24.1-24.1,33.3-57.4,19.1-85.7c-5,5-5,9.9-9.9,19.1c24.1,0,47.4-9.2,71.5-24.1c5-5,9.9-9.9,0-19.1c-14.2-14.2-43.2,5-33.3,24.1
					c1.4,5,7.1,8.5,12,7.1c3.5-0.7,5.7-3.5,7.1-7.1c5.7-12.7,3.5-27.6-5-38.2c-5-5-9.9-9.9-14.2-9.9c-4.2,0-9.9,5-14.2,9.9
					c-14.9,16.3-13.5,41.1,2.8,55.2c0.7,0.7,1.4,1.4,2.1,2.1c4.2,2.8,9.9,2.1,12.7-2.1c0.7-0.7,1.4-2.1,1.4-2.8
					c14.2-24.1-9.2-52.4-33.3-47.4c-5,0-9.2,4.2-9.9,9.9c0,19.1,5,33.3,24.1,38.2c9.9,0,19.1-14.2,9.9-19.1
					c-24.8-14.2-53.1-19.1-81.4-14.2l14.2,14.2c9.9-19.1,9.9-43.2-5-57.4c-9.9-14.2-30.5-17.7-44.6-7.1c-1.4,0.7-2.1,1.4-3.5,2.8
					c-9.9,14.2-9.9,33.3,0,43.2s33.3,5,42.5-9.9c7.1-12.7,2.8-29-9.9-36.1c-1.4-0.7-2.8-1.4-4.2-2.1c-14.2-5-33.3,0-33.3,19.1
					c0,14.2,9.9,33.3,28.3,33.3c14.2,0,24.1-19.1,24.1-33.3c-5-19.1-28.3-24.1-43.2-14.2c-24.1,19.1-14.2,47.4-5,66.6
					c0,5,9.2,5,14.2,5c14.2-9.2,28.3-19.1,28.3-33.3s-9.2-28.3-24.1-28.3s-28.3,9.9-28.3,24.1c0,14.2,9.9,28.3,24.1,28.3
					c-5-5-5-14.2-9.9-19.1c-24.1,26.2-28.3,65.2-9.9,95.6c9.9,14.2,24.1,0,19.1-9.9c-9.9-19.1-24.1-43.2-47.4-43.2
					c-19.1,0-38.2,14.2-33.3,33.3c0,5,4.2,9.2,9.9,9.2c14.2,0,33.3-9.2,38.2-24.1c0-5,0-14.2-5-14.2c-19.1-9.9-43.2,14.2-33.3,33.3
					c3.5,3.5,9.2,5.7,14.2,5c22-3.5,39.7-20.5,43.2-43.2c0-5-5-14.2-9.9-14.2c-16.3,0.7-30.5,12-33.3,28.3c-0.7,5,1.4,10.6,5,14.2
					c9.9,5,24.1,5,28.3-5c2.8-4.2,2.1-9.9-2.1-12.7c-0.7-0.7-2.1-1.4-2.8-1.4c-19.1-5-47.4-14.2-62.3,0c-13.5,9.9-5.1,20.1-0.2,36.4
					c4.2,14.9,13.4,11.7,29,8.1c1.4,0,7.3,8.6,8.7,7.9c9.9,0,0.7,4.9,10.6,0.7c2.8-4.2,8.5-5,12.7-1.4c0.7,0.7,1.4,0.7,1.4,1.4
					c0-5-5-9.9-5-14.2c-9.2,28.3,0,52.4,14.2,76.5c2.8,4.2,8.5,4.2,12.7,1.4c0.7-0.7,1.4-0.7,1.4-1.4c12-12.7,11.3-32.6-1.4-44.6
					c-0.7-0.7-2.1-2.1-3.5-2.8c-4.2-2.8-9.9-2.1-12.7,2.1c-0.7,0.7-1.4,2.1-1.4,2.8c-4.2,19.1,7.8,38.2,26.9,41.8
					c2.1,0.7,4.2,0.7,6.4,0.7c17,0.7,30.5-12.7,31.2-29.7c0-5-0.7-9.2-2.8-13.5c-3.5-6.4-11.3-9.2-18.4-5.7
					c-2.1,1.4-4.2,3.5-5.7,5.7c-5.7,19.8-5.1,24-15,42.5c4.1-12.8,0,0,4.3,0c-14.2-9.9-16.9-19.8-7-34.7c0.7-1.4,1.4-2.1,2.8-3.5
					c5-28.3-14.2-38.2-19.1-28.3L1535.8,293.1z"/>
				<path d="M1540.8,212.4c-19.1-19.8-19.1-51.7,0-71.5c4.2-5.7,11.3-9.2,19.1-9.9c9.9,0,14.2,9.9,19.1,14.2
					c9.9,19.1,14.2,38.2,9.9,57.4c5-5,14.2-5,19.1-9.2l0,0c0-2.8,2.1-5,4.2-5l0,0c0-5,5-5,9.9-9.2c5-5,12-8.5,19.1-9.9
					c13.5-4.2,28.3-0.7,38.2,9.9c9.9,9.2,14.2,24.1,9.9,33.3c-5,14.2-19.1,24.1-28.3,19.1c-5.7,0-9.9,5-9.9,10.6
					c0,3.5,2.1,6.4,5,8.5c19.1,9.9,57.4,38.2,28.3,62.3c-24.1,24.1-62.3,0-80.7-14.2c-5-5-19.1,0-19.1,9.2c0,22-17.7,40.4-40.4,40.4
					c-4.2,0-8.5-0.7-12-2.1c-19.1-9.9-28.3-38.2-14.2-57.4c5-9.9-5-24.1-14.2-14.2c-9.9,9.2-26.2,8.5-35.4-1.4
					c-0.7-0.7-2.1-2.1-2.8-3.5c-9.2-10.6-9.2-26.9,0-38.2c14.2-24.1,52.4-19.1,76.5-14.2c14.2,5,19.1-19.1,5-24.1
					c-38.2-9.9-90.6-9.9-104.8,33.3c-9.9,19.1,0,47.4,14.2,62.3c18.4,14.2,43.9,14.2,62.3,0l-14.2-14.2c-19.1,28.3-5,76.5,28.3,90.6
					c38.2,14.2,80.7-19.1,80.7-57.4c-5,5-9.2,5-19.1,9.9c18.4,14.2,39.7,24.1,62.3,28.3c19.1,0,38.2-5,47.4-19.1
					c14.2-14.2,14.2-33.3,5-52.4s-28.3-28.3-43.2-43.2c0,5-5,14.2-5,19.1c24.1,0,42.5-14.2,52.4-38.2s-5-47.4-24.1-62.3
					c-19.8-13.5-45.3-14.9-66.6-5c-14.2,9.9-47.4,33.3-28.3,52.4c9.9,9.9,19.1,0,19.1-9.9c5-28.3-5-52.4-19.1-76.5
					c-9.9-9.9-19.1-19.1-28.3-19.1c-12.7,0.7-24.1,5.7-33.3,14.2c-33.3,24.1-33.3,80.7-5,104.8
					C1536.5,240.7,1550.7,221.6,1540.8,212.4L1540.8,212.4z"/>
				<path d="M1588.2,298.1c9.2,0,14.2-5,24.1-9.9c5.7-5.7,10.6-12,14.2-19.1c0-9.9,5-14.2,0-24.1c0-9.9-9.2-14.2-14.2-19.1
					c-9.2-9.9-28.3-9.9-42.5-5c-14.9,6.4-23.4,22.7-19.1,38.2c0,19.1,14.2,33.3,33.3,38.2L1588.2,298.1c0-5,5-5,5-9.2
					s0-14.2-9.9-14.2h-9.2v-5l0,0v-5h24.1v5l0,0v5l0,0v5l0,0l-5,5l0,0c-5,0-9.2,4.2-9.9,9.2C1579,293.8,1583.3,298.1,1588.2,298.1
					L1588.2,298.1z"/>
				<path fill="#FFFF00" d="M1588.2,269.7h14.2v-14.2c0-2.8-2.1-5-5-5l0,0h-19.1v14.2c0,2.8,2.1,5,4.2,5l0,0H1588.2z"/>
			</g>
			<g>
				<g>
					<path fill="#FFFF00" d="M1594.5,267.6c-2.9,2.7-6.9,1.9-9.9-0.2c-2.4-1.6-6.8-5.8-5.7-9.1c1.3-3.7,7.3-4.1,10.5-4.3
						c3.8-0.2,6.9-0.3,7.7,4c1.1,5.9,0.9,15.5-7.3,14.7c-7.6-0.7-9.1-9.7-8.5-15.7c0.7-6.4-9.3-6.3-10,0c-1.4,14,9,29.8,24.8,25
						c6.9-2.1,10.5-8.2,11.1-15.1c0.6-6.4,0.4-14.6-4.7-19.3c-5.3-4.9-15-4.2-21.4-2.3c-6.5,1.9-12.5,7.1-12.5,14.4
						c0,7.1,6.3,14.1,12.2,17.4c6.8,3.8,14.9,3.1,20.7-2.2C1606.3,270.3,1599.2,263.2,1594.5,267.6L1594.5,267.6z"/>
				</g>
			</g>
		</g>
		<g id="hat2">
			<g>
				<g>
					<path fill="#FBB03B" d="M1121.4,107.7c2,3,1.7,6.7-0.4,9.6c-0.3,0.4-2.8,2.5-2.2,2.8c-0.7-0.3-0.8-2-0.5-2.6
						c2.8-5.8-5.9-10.9-8.6-5c-4.1,8.7,2.9,21.8,13.4,16.1c8.9-4.8,12.6-17.4,7-26C1126.5,97.3,1117.9,102.3,1121.4,107.7
						L1121.4,107.7z"/>
				</g>
			</g>
			<g>
				<g>
					<path fill="#FBB03B" d="M855,195.6c-2.9,5.1-11,10.6-16.9,6.5c-4.5-3.2,1.5-5.3,4.5-5.5c3.8-0.2,7.7,0.5,11.5,0.8
						c6.4,0.5,6.4-9.5,0-10c-7.5-0.6-16.2-2.3-22.7,2.7c-5.5,4.2-6.9,11.8-2.4,17.3c9.7,11.8,28,4.7,34.5-6.7
						C866.8,195,858.2,190,855,195.6L855,195.6z"/>
				</g>
			</g>
			<g>
				<g>
					<path fill="#FBB03B" d="M885.7,277.2c-6,1.6-10.2,5.8-12.2,11.7c-1.9,5.7,6.1,8.2,9.1,3.9c31.3-44.7,78.5-80.3,131.2-95.6
						c15.7-4.5,33.2-6.9,48.2,0.9c5.7,2.9,10.8-5.7,5-8.6c-27.8-14.2-60.8-2-87.1,9.9c-27.1,12.3-52,29.4-73.4,50
						c-12.1,11.7-23,24.6-32.6,38.4c3,1.3,6.1,2.6,9.1,3.9c0.9-2.6,2.6-4,5.2-4.7C894.5,285.1,891.9,275.5,885.7,277.2L885.7,277.2z
						"/>
				</g>
			</g>
			<g>
				<path fill="#FBB03B" d="M846.1,199.9L846.1,199.9C846.1,198.3,844.2,198.3,846.1,199.9C844.2,198.3,844.2,199.9,846.1,199.9
					L846.1,199.9c-1.9,0-1.9,0-3.7,1.9h1.9C844.2,199.9,844.2,199.9,846.1,199.9L846.1,199.9l1.9,1.9l0,0l1.9,1.9l0,0v-5.3H848
					C847.7,200.2,847.7,200.2,846.1,199.9C847.7,198.3,846.1,198.3,846.1,199.9h1.9C847.7,198.3,846.1,198.3,846.1,199.9
					L846.1,199.9v-1.6l0,0c-1.9,0-1.9-1.9-3.7-1.9c0,1.1,0.8,1.9,1.9,1.9l0,0l0,0v3.5l0,0v1.9l0,0
					C847.7,198.3,847.7,200.2,846.1,199.9L846.1,199.9C846.1,201.8,847.7,200.2,846.1,199.9L846.1,199.9v1.9l0,0
					C842.4,198.3,844.2,198.3,846.1,199.9L846.1,199.9l1.9-1.9h5.3l-1.9-1.9l0,0c-1.9,1.9-3.7,3.7-1.9,5.3c1.9,1.6,3.7,3.7,5.3,1.9
					c3.7-3.7,5.3-9,3.7-12.5c-1.9-1.9-3.7-1.9-7.2,0c-2.1,1.6-3.5,4.2-3.7,7.2c-0.3,2.4,0.3,5,1.9,7.2c0,1.9,1.9,1.9,3.7,1.9
					c1.9,0,1.9,0,3.7-1.9c3.5-5.3,1.9-12.5-3.7-14.3c-3.7-1.9-7.2-1.9-9,0c-3.7,1.9-3.7,5.3-5.3,9c0,3.7,1.9,5.3,5.3,7.2
					c2.7,1.9,6.1,1.9,9,0c2.1-1.6,3.5-4.2,3.7-7.2v-3.7c0-1.9-1.9-1.9-3.7-1.9c-1.9,0-3.7-1.9-5.3-1.9c-3.7-0.3-7.2,0.3-10.6,1.9
					c-3.5,1.9-5.3,3.7-5.3,7.2s0,7.2,1.9,9c4.5,4,11.2,3.5,15.1-0.8c1.9-2.1,2.9-5,2.7-8c0-3.5,0-7.2-1.9-9c0-1.1-0.8-1.9-1.6-1.9
					l0,0c-1.9-1.9-1.9-1.9-3.5-1.9c-1.9-0.3-4,0.5-5.3,1.9c-5.3,3.7-9,10.6-5.3,16.2c2.9,5,8.8,7.2,14.3,5.3c1.9,0,1.9-1.9,3.7-1.9
					c1.6-1.1,1.6-3.2,0.5-4.8c-0.3-0.3-0.3-0.5-0.5-0.5c-3.7-5.3-9-7.2-16.2-7.2c-1.9,0-3.5,1.6-3.7,3.5v5.3c0,1.9,1.9,1.9,1.9,3.7
					c1.3,1.3,3.5,2.1,5.3,1.9c1.9,0,3.5-1.6,3.5-3.5C849.8,201.8,848,199.9,846.1,199.9L846.1,199.9z"/>
				<path fill="#FBB03B" d="M1112.5,121.3L1112.5,121.3v-1.9l0,0c0-1.9-1.9-3.7-1.9-5.3c0,1.9,0,1.9-1.9,3.5l0,0
					c0,1.1-0.8,1.9-1.6,1.9l0,0h-1.9c0-1.9,1.9-1.9,1.9-3.7s1.9-1.9,1.9-3.7l0,0l1.9-1.9h-5.3l3.7,3.7l0,0c-1.9,0-3.7-1.9-5.3-3.7
					v2.4l0,0v1.9l0,0v1.9l0,0c0,1.1-0.8,1.9-1.6,1.9l0,0h-3.7c-1.9,0-3.7,1.6-3.7,3.7s1.6,3.7,3.7,3.7c9,0,17.8-10.6,14.3-19.7
					c0-1.9-3.7-3.7-5.3-3.7c-5.3,1.9-9,5.3-9,10.6C1107.2,119.7,1108.8,121.3,1112.5,121.3c5.8,0.3,11.2-2.4,14.3-7.2
					c1.9-2.7,1.9-6.4,0-9c-1.9-3.7-3.5-5.3-7.2-5.3s-7.2,0-9,1.9c-3.5,1.9-5.3,5.3-7.2,7.2c-2.1,2.4-3.5,5.6-3.7,9
					c0,2.4,0.5,5,1.9,7.2c1.9,1.9,1.9,3.5,5.3,3.5c3.5,1.9,7.2,0,10.6-1.9c3.5-1.9,3.5-7.2,5.3-10.6c0.3-1.9-0.5-4-1.9-5.3
					c-5.3-1.9-10.6,0-12.5,3.7c-3.7,3.5-3.7,9,0,14.3c1.1,1.6,3.2,1.9,4.8,0.5c0.3-0.3,0.5-0.3,0.5-0.5
					C1114.1,125.3,1114.1,123.4,1112.5,121.3L1112.5,121.3z"/>
				<path fill="#FBB03B" d="M883.5,287.6c5.3-23.4,26.8-39.3,46.5-50.2c12.5-7.2,25-10.6,39.3-16.2s30.3-10.6,44.6-16.2
					c17.8-5.3,34-10.6,51.8-14.3c1.9,0,3.5-1.6,3.7-3.5c0-14.3-26.8-9-34-9c-16.2,1.9-32.1,7.2-46.5,12.5
					c-16.2,5.3-30.5,12.5-44.6,17.8c-14.1,4.8-26.8,12.7-37.4,23.4c-9,12.5-16.2,26.8-17.8,41.2c-1.9,5.3,7.2,7.2,9,1.9
					c3.5-10.9,9-21.2,16.2-30.5c7.2-9,17.8-16.2,28.7-21.5c21.5-12.5,44.6-21.5,69.8-30.3c2.4-0.8,3.7-3.5,2.9-5.8
					c-0.5-2.1-2.7-3.5-4.8-3.2c-25,9-50.2,17.8-73.3,32.1c-14.3,10.6-25,17.8-32.1,26.8c-8,9.6-14.1,20.5-17.8,32.1
					c3.7,0,5.3,1.9,9,1.9c1.9-12.5,7.2-23.4,12.5-34c3.2-5,7.4-9.3,12.5-12.5c5.3-3.7,12.5-7.2,17.8-10.6
					c25.8-12.5,52.9-22.6,80.5-30.5c3.7,0,41.2-7.2,41.2-3.7c1.9-1.9,1.9-3.5,3.7-3.5c-32.1,7.2-64.3,17.8-94.8,28.7
					c-25,9-51.8,19.7-71.4,37.4c-10.4,8.5-17.5,20.7-19.7,34C874.5,291.3,883.5,292.9,883.5,287.6L883.5,287.6z"/>
				<path d="M924.7,212.4c-8.2,1.9-15.7,6.4-21.5,12.5L887,246.4c-9,16.2-17.8,34-21.5,51.8c0,3.5,1.9,5.3,3.7,5.3
					c12.5,1.9,21.5-10.6,28.7-19.7c8-9.3,16.2-18.3,25-26.8c18.9-16.7,40.6-30,64.3-39.3c23.6-9,48.3-14.3,73.3-16.2
					c5.3,0,12.5,0,16.2-3.5c5.3-5.3,1.9-10.6-3.5-14.3c-5.8-3.7-12.7-5.6-19.7-5.3c-7.2-1.6-14.3-2.1-21.5-1.9
					c-34,0-64.3,14.3-94.8,28.7c-5.3,1.9,0,9,3.7,7.2c25-12.5,50.2-23.4,77-26.8c13.3-1.6,26.6-0.3,39.3,3.7c3.5,0,5.3,1.9,9,3.7
					l1.9,1.9h-17.8c-46.7,3.5-91.1,21.5-127,51.8c-9.8,8-18.9,17-26.8,26.8c-3.2,5.6-7.4,10.4-12.5,14.3c-3.7,5.3-7.2,9-14.3,9
					c1.9,1.9,3.7,3.7,3.7,5.3c4.2-17,10.9-33.2,19.7-48.3c4.2-7.4,9-14.6,14.3-21.5c5.3-5.3,10.6-12.5,19.7-12.5
					C931.6,219.6,930,212.4,924.7,212.4L924.7,212.4z"/>
				<path d="M1051.7,178.7c1.9-17,7.2-33.5,16.2-48.3c7.2-12.5,21.5-25,35.9-19.7c0-1.9,1.9-5.3,1.9-7.2
					c-8.2,0.3-14.9,7.4-14.6,15.7c0,0.8,0,1.3,0.3,2.1c1.9,9,12.5,14.3,21.5,12.5c10.6-1.9,17.8-10.6,21.5-21.5s-7.2-17.8-16.2-17.8
					c-10.6,1.9-21.5,9-23.4,19.7c-1.9,5.3,7.2,7.2,9,1.9c1.9-7.2,9-12.5,16.2-14.3c3.7,0,7.2,0,9,3.7c1.9,3.7-1.9,9-3.7,10.6
					c-3.7,5.3-12.5,10.6-17.8,5.3c-2.7-1.3-4-4.2-3.7-7.2c0-3.7,3.7-5.3,5.3-3.7c2.1,0,3.7-1.9,3.7-4c0-1.3-0.8-2.7-1.9-3.2
					c-17.8-9-35.9,3.5-44.6,17.8c-10.6,16.2-16.2,37.4-19.7,57.1c0,1.9,1.6,3.5,3.5,3.7C1049.8,183.7,1051.7,180.3,1051.7,178.7
					L1051.7,178.7z"/>
				<path d="M937.2,210.8c-12.5-19.7-32.1-32.1-53.6-41.2c-10.6-5.3-21.5-9-34-7.2c-9,1.9-19.7,7.2-23.4,16.2s-3.5,21.5,5.3,28.7
					c1.9-1.9,1.9-5.3,3.7-7.2c-3.7,0-3.7-3.7-3.7-5.3c1.9-3.5,5.3-5.3,9-5.3c7.2-1.9,19.7-1.9,19.7,9c0,9-9,12.5-15.9,12.5
					c-9-1.9-14.3-10.6-16.2-19.7c0-5.3-9-3.5-9,1.9c1.9,10.6,9,21.5,19.7,25c9.8,3.5,21-0.3,26.8-9c3.7-9,1.9-19.7-5.3-25
					c-5.3-3.5-10.6-3.5-17.8-1.9c-5.3-0.3-10.4,1.9-14.3,5.3c-3.7,3.5-7.2,9-5.3,14.3s5.3,9,10.6,9c3.5,0,5.3-5.3,3.5-7.2
					c-7.2-7.2-5.3-17.8,0-25c9-7.2,21.5-7.2,32.1-3.5c12.5,3.5,23.4,10.6,34,17.8s19.7,14.3,25,25
					C931.6,219.8,940.6,216.1,937.2,210.8L937.2,210.8z"/>
			</g>
		</g>
		<g id="hat1">
			<g>
				<path fill="#93278F" d="M326,214.6c4.5,7.8,9.6,15.4,15,22.6c2.9-2.9,7.6-6,10.5-8.9c-10.5-13.6-8.9-33.1-7.6-49.6
					c1.6-10.5,3.1-21,1.6-31.5c-1.3-4.7-3.4-9.4-6-13.6c-2.9-4.5-4.5-7.6-7.6-12.1c-4.7-8.7-7.4-18.5-7.6-28.6c0-2.9-1.6-6-4.5-6
					c-2.5-1.1-5.6-0.4-7.6,1.6c-6,6-3.1,13.6-1.6,21c3.1,7.6,4.5,15,7.6,22.6c4.5,15,8.9,30.2,13.6,46.7c2.9,8.9,16.5,4.5,13.6-3.1
					c-4.5-13.6-7.6-27-12.1-42.2c-1.6-7.6-4.5-13.6-6-19.7c-1.6-3.1-1.6-7.6-3.1-10.5v-4.5l0,0c-4.5-1.6-7.6-3.1-12.1-4.5
					c1.6,10.5,2.9,19.7,7.6,28.6c1.6,4.5,4.5,8.9,6,13.6c3.1,4.5,6,7.6,7.6,12.1c1.6,4.9,1.6,10.1,0,15c0,4.5-1.6,10.5-1.6,15
					c-1.6,10.5-3.1,19.7-1.6,30.2c1.6,10.5,4.5,21,12.1,30.2c4.5,6,15-1.6,10.5-8.9c-4.5-7.8-9.6-15.4-15-22.6
					c-1.8-3.1-5.6-4.2-8.9-3.1c-3.6,2.2-4.9,6.7-3.1,10.5L326,214.6z"/>
				<g>
					<g>
						<path fill="#93278F" d="M381,238c2.6,0.1,5.2,0.1,7.7,0.2c5.5,0.1,7-8.9,1.3-9.8c-5.8-0.9-6.8-7.8-6.4-12.8
							c0.7-8,3.6-15.7,1.1-23.7c-2.2-6.9-7.6-11.7-12.9-16.4c-5.7-5.1-11-10.5-15.8-16.5c-18.9-23.8-29.3-53.2-39.2-81.6
							c-3,1.3-6.1,2.6-9.1,3.9c14.3,23,30,45.7,40.9,70.7c10.4,23.9,16.5,49.8,17.7,75.8c0.6,13.3,0.9,27.5-3.5,40.2
							c-3.4,9.7-10,17.9-18,24.2c-8.5,6.7-18.6,11.4-29,14.7c-8.8,2.8-20.9,3.1-21.8,14.7c-0.7,9-1.3,29.7,13.7,24.5
							c6.3-2.2,11.4-8.9,16.1-13.2c5.9-5.6,11.8-11.1,17.7-16.7c4.1-3.9-1.2-10.8-6.1-7.9c-6.8,4.2-12.2,10-15.5,17.2
							c-2.4,5.1,3.5,10,7.9,6.1c27.5-25,57.1-47.7,88.5-67.6c7.9-5,16-9.5,23.9-14.4c5.6-3.5,12-9.4,9.1-16.7
							c-2.5-6.2-9.4-7.2-15.1-5.3c-8.6,2.8-16.5,9.2-24.2,13.9c-5.5,3.3-0.5,12,5,8.6c6.7-4.1,13.5-9.3,20.7-12.4
							c2-0.9,4.9-2.5,3.3,0.4c-1.4,2.5-6.2,4.3-8.5,5.6c-13.2,7.7-26.2,16-38.8,24.6c-24.9,17.1-48.6,35.9-70.9,56.2
							c2.6,2,5.2,4,7.9,6.1c2.7-5.8,6.5-10.3,12-13.6c-2-2.6-4-5.2-6.1-7.9c-4.7,4.4-9.4,8.9-14.1,13.3c-2.4,2.2-4.7,4.4-7.1,6.7
							c-2.2,2.1-4.7,5.5-7.4,6.7c-1.6,0.7-1.2,1.3-1.8-0.6c-0.3-0.8,0-2.3,0-3.1c0-2.9-0.4-6,0-8.9c0.4-3.2,1.6-3.3,4.6-4
							c2.6-0.7,5.2-1.3,7.8-2.1c18.5-5.5,36.6-15.2,48.1-31.1c13.5-18.6,13.2-43.5,11.4-65.4c-1.9-23.8-7.6-47.2-16.7-69.2
							c-11.1-26.7-27.6-50.7-42.8-75.2c-2.9-4.6-11.1-1.7-9.1,3.9c10.6,30.1,21.7,60.8,41.8,86c4.9,6.2,10.4,11.8,16.4,17
							c2.9,2.6,6.2,5.2,8.3,8.5c2.5,4.1,2.4,8.5,1.7,13c-1.1,7.2-2.8,14.1-0.4,21.3c1.9,5.8,6.2,11,12.5,12c0.4-3.3,0.9-6.5,1.3-9.8
							c-2.6-0.1-5.2-0.1-7.7-0.2C374.6,227.9,374.6,237.9,381,238L381,238z"/>
					</g>
				</g>
				<path fill="#93278F" d="M327.6,199.4c-3.1,4.5-7.6,7.6-10.5,12.1c4.5,1.6,7.6,2.9,12.1,4.5c0-43.6,18.1-91.8-6-130.9
					c-1.6-3.4-5.8-4.7-8.9-3.1s-4.7,5.8-3.1,8.9c8.9,21,21,39.1,34.6,57.2c6,8.9,13.4,16.5,19.7,24.1c2.9,4,4.9,8.7,6,13.6
					c1.6,6,0,12.1,0,16.5c-1.6,13.6-3.1,28.6-4.5,42.2c3.1-3.1,6-4.5,8.9-7.6c-9.4-3.4-18.3-7.4-27-12.1
					c-9.2-4.7-17.7-10.3-25.5-16.5l-1.6-1.6c-0.2-2.2,0.2-4.2,1.6-6c1.6-6,1.6-10.5,2.9-16.5c1.8-11.4,2.7-23,3.1-34.6
					c0.2-12.5-0.2-25-1.6-37.5h-13.6c2.9,21,7.6,42.2,12.1,61.7c4.5,16.5,10.5,33.1,19.7,46.7c5.6,7.6,12.7,13.6,21,18.1
					c3.1,1.6,7.6,1.6,8.9-1.6c1.3-3.1,1.6-7.6,0-8.9c-17-15.2-32.2-32.4-45.1-51.2c-1.6-3.4-5.8-4.7-8.9-2.9s-4.7,5.8-2.9,8.9
					c8.9,18.3,20.6,35.1,34.6,49.6L364,222c-11.2-10.3-19.7-22.6-25.9-36c-3.1,3.1-7.6,6-10.5,8.9c11.6,13.6,25.5,25.2,40.7,34.6
					c2.9,2,6.9,1.1,8.9-1.8c1.6-2.2,1.6-5.1,0-7.1c-5.8-11.2-10.9-22.8-15-34.6c-4.7,1.3-9.4,3.4-13.6,6c4.2,6.9,7.4,14.5,8.9,22.6
					c4.5,0,8.9-1.6,13.6-1.6c-4.5-13.6-8.9-27-15-40.7l-13.6,4.5c3.1,7.1,4.2,15,3.1,22.6c4.5,0,8.9-1.6,13.4-1.6
					c-7.4-14.3-13-29.5-16.5-45.1c-4.2,1.8-8.9,2.7-13.6,3.1c6,15,10.5,28.6,16.5,43.6c4.5-2.9,7.6-4.5,12.1-7.6
					c-10.7-10.7-16.3-25.5-15-40.7c-4.5,1.6-7.6,3.1-12.1,4.5c13.6,13.6,22.6,31.5,28.6,51.2c4.2-1.8,8.9-2.7,13.6-3.1
					c-4.5-16.5-10.5-33.1-15-48c-4.5,2.9-7.6,4.5-12.1,7.6c6,8.9,12.1,18.1,15,28.6c4.5-3.1,7.6-4.5,12.1-7.6
					c-12.1-11.2-22.8-23.7-31.5-37.5l-8.9,8.9c17.4,9.8,30.4,25.9,36,45.1c4.5-2.9,7.6-4.5,12.1-7.6c-12.1-13.6-22.6-28.6-28.6-45.1
					c-4.5,3.1-7.6,4.5-12.1,7.6c7.4,7.6,13.4,16.3,18.1,25.7c2.7,4.2,4.7,8.7,6,13.6c0.2,1.1,0.7,2.2,1.6,3.1v2.9l0,0v-1.6
					c2.9,0,4.5-1.6,2.9-1.6c1.6,1.6,3.8,2.7,6,2.9c-15.4-21.2-28.4-43.8-39.1-67.7c-4.7,1.3-9.4,3.4-13.6,6
					c17.7,28.2,32.8,57.9,45.1,88.7l8.9,22.6c3.1,7.6,4.5,12.1,0,18.1S365,277.3,359,282c-7.6,4.5-13.4,10.5-21,15
					c-4.5,3.1-7.6,4.5-12.1,7.6c-2.9,1.6-6,4.5-8.9,4.5c-2.2,1.1-4.9,1.8-7.6,1.6l0,0c0,0-3.1-1.6-1.6,0l0,0v-1.6
					c-1.6,2.9-1.6,6-3.1,8.9c27-15,51.2-36.2,67.7-63.2h-12.1c2.9,7.6,2.9,15-1.6,21c4.5,2.9,7.6,4.5,12.1,7.6
					c4.5-8.9,7.6-16.5,12.1-25.5c-4.2-1.8-8.9-2.7-13.6-3.1c-0.2,3.1-1.3,6.3-3.1,8.9c0,1.6,0,1.6-1.6,1.6l-1.6,1.6
					c-1.6,1.6-2.9,2.9-4.5,2.9c-6.3,4.9-12.7,9.4-19.7,13.6c-15.2,11.8-27,27.5-34.6,45.1c4.5,0,8.9-1.6,13.6-1.6
					c-1.6-2.9-3.1-6-4.5-8.9c-1.8-3.1-5.6-4.2-8.9-3.1c-2.9,1.3-4.5,4.2-4.5,7.6c3.1,10.5,13.6,10.5,22.6,6c4-1.6,7.6-4.2,10.5-7.6
					c4.7-3.1,8.7-7.4,12.1-12.1c8.9-7.6,18.1-16.5,25.5-24.1c4.7-3.1,8.7-7.4,12.1-12.1c2.9-3.1,7.6-7.6,8.9-12.1
					c1.3-5.1,0.2-10.7-3.1-15c-0.2-1.6-0.7-3.1-1.6-4.5v-4.5c-4.5,1.6-7.6,1.6-12.1,3.1c12.1,12.1,30.2,6,43.6,0
					c4.9-3.1,10.7-4.7,16.5-4.5h7.4c-1.6,0,3.1,1.6,1.6,0l1.6,1.6v1.6c1.6-3.1,3.1-7.6,4.5-10.5c-31.9,14.1-62.3,31.7-90.3,52.7
					c-7.8,6-15.4,12.5-22.6,19.7c3.8,2.7,7.4,5.6,10.5,8.9c12.1-25.7,36.2-46.7,63.2-57.2c8.9-2.9,4.5-15-4.5-13.4
					c-8.9,1.6-16.5,2.9-25.7,4.5c1.3,4.7,3.4,9.4,6,13.6c15-9.2,31.3-16.3,48-21c-1.8-4.2-2.7-8.9-3.1-13.6
					c-2.7,1.6-5.8,2.7-8.9,3.1c-2.9,1.6-6,4.5-4.5,8.9c1.6,2.9,4.5,6,8.9,4.5c2.7-1.6,5.8-2.7,8.9-3.1c3.1-1.6,6-4.5,4.5-8.9
					c-1.6-3.1-4.5-6-8.9-4.5c-18.5,4.7-36.4,12.3-52.7,22.6c-7.6,4.5-3.1,15,6,13.6c9.2-1.3,16.5-3.1,25.7-4.5
					c-1.8-4.2-2.7-8.9-3.1-13.6c-30.2,10.5-57.2,33.1-70.6,63.2c-3.1,7.6,4.5,13.6,10.5,8.9c31.3-28.6,66.8-51.8,105.2-69.3
					c4.5-1.6,6-6,4.5-10.5c-7.6-13.6-25.7-13.6-37.5-7.6c-7.6,2.9-13.6,6-19.7,7.6c-2.9,1.1-5.8,1.8-8.9,1.6h-3.1
					c-1.6,0-1.6-1.6-3.1-3.1c-2.9-4.5-10.5-1.6-12.1,3.1c-1.6,4.7,0,7.6,0,12.1c1.6,3.1,2.9,7.6,4.5,8.9v7.6
					c-3.1,2.9-7.6,6-10.5,8.9c-15,13.4-30.2,27-43.6,40.7c-1.6,1.6-3.1,1.6-3.1,3.1c0,0-2.9,1.6-1.6,1.6l-1.6,1.6c0,0-1.6,1.6-1.6,0
					h-4.5c-4.7,1.3-9.4,3.4-13.6,6l4.5,8.9c1.6,2.9,4.5,2.9,7.6,2.9s4.5-2.9,6-4.5c6-16.5,18.1-30.2,33.1-40.7
					c13.4-8.9,30.2-19.7,31.5-37.5c0-7.6-10.5-10.5-13.6-3.1c-4.5,8.9-7.6,16.5-12.1,25.7c-3.1,7.6,7.6,15,12.1,7.6
					c7.6-10.5,7.6-24.1,1.6-36.2c-2-3.4-6.3-4.5-9.6-2.5c-0.9,0.7-1.8,1.3-2.5,2.5c-15.6,24.6-37.3,44.9-63.2,58.8
					c-3.1,1.8-4.2,5.6-3.1,8.9c3.1,7.6,10.5,8.9,18.1,8.9c7.4-1.6,14.3-4,21-7.6c16.5-9.2,31.9-19.7,46.7-31.5
					c6.9-5.1,11.8-12.5,13.6-21c1.6-8.9-2.9-18.1-6-27c-6.3-18.1-13.9-35.7-22.6-52.7c-8.9-18.1-19.7-37.5-30.2-54.1
					c-1.8-3.1-5.6-4.2-8.9-2.9c-3.1,1.6-6,4.5-4.5,7.6c8.9,21,18.1,40.7,31.5,60.1c1.6,1.6,2.9,4.5,4.5,6c1.6,2.9,3.6,5.4,6,7.6
					c6,4.5,12.1,0,15-6c1.6-4.5,0-8.9-1.6-13.6c-2-5.4-4.5-10.3-7.6-15c-6-10.7-13.2-20.8-21-30.2c-1.6-2.9-6-2.9-8.9-1.6
					c-2.9,1.1-4.2,4.2-3.1,7.1c0,0.2,0.2,0.2,0.2,0.4c7.1,19.2,18.5,36.6,33.1,51.2c4.5,4.5,13.6,0,12.1-7.6
					c-7.6-22.6-22.6-42.2-43.6-52.7c-6-3.1-13.6,2.9-8.9,8.9c9.2,15,20.1,28.8,32.8,41.3c4.5,4.5,13.6,0,12.1-7.6
					c-3.1-13.6-10.5-24.1-18.1-34.6c-4.5-6-13.6,0-12.1,7.6c4.5,16.5,10.5,33.1,15,48c2.9,8.9,16.5,4.5,13.6-3.1
					c-6-21.2-16.8-40.9-31.5-57.2c-2.7-2.9-7.1-2.9-9.8-0.2c-1.3,1.3-2,2.9-2.2,4.7c-1.6,18.1,6,37.5,19.7,51.2
					c2.9,1.6,6,3.1,8.9,1.6c2.9-1.1,4.2-4.2,3.1-7.1c0-0.2-0.2-0.2-0.2-0.4c-6-15-10.5-28.6-16.5-43.6c-1.6-3.1-4.5-6-8.9-4.5
					c-4.5,1.6-6,4.5-4.5,8.9c4.5,16.5,10.5,32.6,18.1,48c2.9,4.5,12.1,4.5,13.4-1.6c1.6-10.5,1.6-19.4-2.9-29.9
					c-1.6-3.1-4.5-6-8.9-4.5c-3.1,1.6-6,4.5-4.5,8.9c4.5,13.6,8.9,27,15,40.7c1.6,2.9,4.5,6,7.6,4.5c2.9,0,6-3.1,6-7.6
					c-1.3-10.7-4.9-21-10.7-29.9c-4.5,2.9-8.9,1.6-12.1,2.9c-2.9,1.6-4.5,4.5-4.5,7.6c4.5,13.6,8.9,25.5,16.5,37.5
					c2.9-3.1,6-6,8.9-8.9c-13.6-8.9-25.7-21-37.5-33.1c-1.8-2.5-5.4-2.9-7.8-1.1c-0.4,0.2-0.7,0.7-1.1,1.1c-2.7,2.2-3.1,6-1.6,8.9
					c6.5,15,16.1,28.4,28.6,39.1c2.9,2.9,7.6,2.9,10.5,0s2.9-7.6,0-10.5l0,0c-13.6-13.4-24.8-29.3-33.1-46.7
					c-4.5,3.1-7.6,4.5-12.1,7.6c13.4,19.7,29,38,46.7,54.1c2.7-3.8,5.6-7.4,8.9-10.5c-13.6-6-21-18.1-27-31.5
					c-7.6-15-10.5-33.1-15-51.2c-2.7-10.3-4.7-21-6-31.5c0.2-4-2.7-7.4-6.7-7.6c-0.2,0-0.7,0-0.9,0c-4,0.2-7.1,3.6-7.6,7.6
					c2.9,24.1,1.6,46.7-1.6,70.6c-1.6,6-1.6,10.5-2.9,16.5s-1.6,12.1,2.9,16.5c3.1,4.5,8.9,7.6,13.6,10.5l13.6,8.9
					c11.2,6.5,22.6,11.8,34.6,16.5c4.5,1.6,8.9-2.9,8.9-7.6c1.6-12.1,3.1-25.7,4.5-37.5c0-6,1.6-12.1,1.6-18.1
					c0-6.3-1.6-12.5-4.5-18.1c-4.5-8.9-13.6-18.1-19.7-25.5c-6.9-8.7-13.6-17.7-19.7-27c-7.4-10.7-13.6-22.3-18.1-34.6
					c-4.5,3.1-7.6,4.5-12.1,7.6c10.5,16.5,12.1,36.2,10.5,55.6c-1.6,22.6-6,45.1-6,67.7c0.2,3.8,3.4,6.9,7.1,6.7
					c1.8,0,3.6-0.9,4.7-2.2l12.1-12.1c2.9-2.7,3.1-7.4,0.2-10.3l-0.2-0.2C335,197.8,328.9,197.8,327.6,199.4L327.6,199.4z"/>
				<path d="M306.4,213c6-48.9,7.6-98.3,4.5-147.5c-1.6,0-4.5,1.6-6,1.6c25.7,40.7,51.4,81.1,75.3,123.3c3.1,3.1,8.9,0,6-2.9
					c-25.5-40.7-51.2-81.3-75.3-123.3c-1.6-2.9-7.6-1.6-6,1.6c2.9,49.2,1.6,98.5-4.5,147.5c-0.2,1.6,1.1,3.1,2.7,3.4
					c1.6,0.2,3.1-1.1,3.4-2.7C306.6,213.5,306.6,213.2,306.4,213L306.4,213z"/>
				<path d="M286.9,282.3c-0.2,10.9,0.2,22.1,1.6,33.1c0,6,1.6,10.5,1.6,16.5c0,4.5,0,10.5,2.9,13.6c4.5,8.9,18.1,3.1,24.1-1.6
					c7.8-4.9,15.4-10.5,22.6-16.5c31.5-26.8,65.2-50.9,100.8-72.2c4.5-3.1,10.5-6,15-8.9c4.7-1.1,7.8-5.6,7.6-10.5
					c-1.6-4.5-7.6-7.6-12.1-10.5c-6-3.1-10.5-7.6-16.5-10.5c-3.1-2.9-7.6,3.1-3.1,6c4.2,2.7,8.3,5.6,12.1,8.9c1.6,1.6,4.5,2.9,6,4.5
					c1.6,0,4.5,2.9,6,4.5c0,1.6-7.6,4.5-8.9,6c-4.5,2.9-7.6,4.5-12.1,7.6c-15,8.9-31.5,19.7-46.7,30.2
					c-15.2,10.3-29.7,21.2-43.6,33.1c-7.6,6-13.6,12.1-19.7,16.5c-6,4.5-13.6,10.5-22.6,12.1c-2.9,0-2.9,0-4.5-3.1
					c0-2.9-1.6-4.5-1.6-7.6c-1.3-5.4-1.8-10.9-1.6-16.5c-1.3-10.9-1.8-22.1-1.6-33.1C294.5,277.6,287.2,277.6,286.9,282.3
					L286.9,282.3z"/>
				<path d="M321.6,292.8c13-7.6,24.4-17.9,33.1-30.2c0.9-1.8,0-3.8-1.6-4.5s-3.6,0-4.5,1.6c-8.9,10.9-19.7,20.8-31.5,28.6
					C314,289.6,318.4,295.7,321.6,292.8L321.6,292.8z"/>
				<path d="M392.2,234c11.8-2.9,23.9-4.5,36-4.5c4.5,0,4.5-7.6,0-7.6c-13.6,0-25.5,0-39.1,4.5C386.1,228,387.7,235.4,392.2,234z"/>
				<path d="M311.1,65.6c1.6-3.1-1.6-7.6-4.5-8.9c-4.5-1.6-7.6,0-12.1,2.9c-3.1,3.1-4.5,7.6-6,10.5c-1.6,4.5-2.9,8.9-4.5,13.4
					c-2.9,7.6-6,16.5-13.4,22.6c-6,4.5-15,7.6-21,1.6c-3.1-3.1-8.9,1.6-4.5,4.5c12.1,10.5,30.2,2.9,37.5-8.9
					c4.5-7.6,7.6-16.5,10.5-24.1c1.3-4,2.7-8,4.5-12.1c0-1.6,1.6-3.1,3.1-4.5c1.6,0,1.6,0,1.6,1.6C302.1,68.7,309.5,70.2,311.1,65.6
					L311.1,65.6z"/>
				<path d="M315.5,64c-6-6-15-2.9-19.7,4.5s-6,16.5-7.6,25.7s-2.9,16.5-8.9,24.1c-4.5,6-10.5,10.5-18.1,8.9c-2-0.2-4,1.3-4.2,3.4
					c-0.2,1.8,0.9,3.6,2.7,4.2c16.5,3.1,28.6-10.5,33.1-25.5c2.7-8.9,4.7-17.9,6-27c1.1-4,2.7-8,4.5-12.1c1.6-3.1,6-4.5,7.6-3.1
					C314,71.4,318.4,66.9,315.5,64L315.5,64z"/>
				<path d="M311.1,61.1c-7.6,3.1-13.4,8.9-16.5,16.5c-3.1,8.9-3.1,18.1-3.1,28.6s0,19.7-3.1,30.2c-2.9,8.7-8.7,16.3-16.5,21
					c-1.3,1.1-1.8,3.1-0.7,4.5c1.1,1.3,3.1,1.8,4.5,0.7c0.2-0.2,0.4-0.4,0.7-0.7c14.5-11.8,22.8-29.5,22.6-48
					c0-10.5-1.6-19.7,1.6-30.2c1.6-7.6,6-15,13.6-16.5C316.9,67.1,315.5,59.5,311.1,61.1L311.1,61.1z"/>
				<path fill="#FBB03B" d="M344.1,205.4c1.8-6.5,2.7-13,3.1-19.7c-1.6,0-4.5,1.6-6,1.6c4.5,4.5,7.6,10.5,12.1,15
					c1.6,1.6,3.1,2.9,6,0c4-4.5,9.4-7.4,15-8.9c-1.6-1.6-3.1-3.1-4.5-4.5c-3.1,6-7.6,12.1-6,19.7c0.2,6.3,4.5,11.8,10.5,13.6
					c-0.2-2.7,0.2-5.1,1.6-7.6c-7.1-0.2-14.1-1.3-21-2.9c-1.6,0-4.5,1.6-4.5,2.9c0.2,4.5-2.2,8.5-6,10.5c1.6,1.6,3.1,1.6,6,2.9v-15
					c-0.2-1.6-1.3-2.9-3.1-3.1c-5.6-0.2-11.2-1.1-16.5-2.9v7.6c7.8,0,15.4-1.6,22.6-4.5c2-0.7,3.1-2.7,2.7-4.7
					c-0.4-1.8-2.2-2.9-4-2.7c-6,1.6-13.6,2.9-21,4.5c-4.5,0-4.5,6,0,7.6c5.6,0.2,11.2,1.1,16.5,3.1l-3.1-3.1v15c0,2.9,3.1,4.5,6,2.9
					c6-2.9,10.5-8.9,8.9-16.5c-1.6,1.6-2.9,2.9-4.5,2.9c7.4,1.8,15,2.7,22.6,3.1c4.5,0,4.5-6,1.6-7.6c-2.9-1.3-4.5-4.2-4.5-7.6
					c0-4.5,2.9-8.9,6-13.6c0.9-1.6,0.2-3.6-1.6-4.5c-0.9-0.4-2-0.4-2.9,0c-6.3,2.9-12.3,6.5-18.1,10.5h6c-4.5-4.5-7.6-10.5-12.1-15
					c-1.6-3.1-7.6-1.6-6,1.6c0.2,6-0.2,12.1-1.6,18.1C335.2,208.5,342.8,210.1,344.1,205.4L344.1,205.4z"/>
				<path fill="#FBB03B" d="M354.6,208.5L354.6,208.5v-6l0,0v-3.1l0,0c0-1.6,0-4.5-3.1-4.5c-1.6,0-4.5,0-4.5,3.1
					c-1.6,9.4,4.9,17.9,14.1,19.4c0.2,0,0.7,0,0.9,0.2c3.1,0,4.5-4.5,3.1-6l0,0V210l0,0v-1.6l0,0v-3.1l0,0v-1.6l0,0
					c-1.6,0-4.5-1.6-6-1.6c0,6-1.6,13.6-1.6,19.7c-0.2,1.6,1.1,3.1,2.7,3.4s3.1-1.1,3.4-2.7c0-0.2,0-0.4,0-0.4
					c0-6,1.6-13.6,1.6-19.7c0-1.6-1.3-2.9-3.1-3.1c-1.6-0.2-3.4,0.4-4.5,1.6c-2.9,6-2.9,13.6,1.6,18.1c1.6-1.6,1.6-4.5,3.1-6h-4.5
					l-1.6-1.6l0,0v-3.1l0,0v-1.6l0,0c-3.1,0-4.5-1.6-7.6-1.6c-1.6,6,0,10.5,1.6,16.5c0,1.6,2.9,1.6,4.5,1.6
					C356.2,213,356.2,211.5,354.6,208.5L354.6,208.5z"/>
				<path fill="#FBB03B" d="M348.6,205.4c-1.6,2.7-2.7,5.8-2.9,8.9c2.7-0.2,5.1,0.2,7.6,1.6v-21c-0.2-1.6-1.6-2.9-3.4-2.7
					c-1.6,0.2-2.7,1.3-2.7,2.7v22.6c-0.2,1.6,1.1,3.1,2.7,3.4s3.1-1.1,3.4-2.7c0-0.2,0-0.4,0-0.4V195h-7.6v21
					c0.2,1.6,1.6,2.9,3.4,2.7c1.6-0.2,2.7-1.3,2.7-2.7c1.6-2.7,2.7-5.8,3.1-8.9c0-1.6,0-4.5-3.1-4.5L348.6,205.4L348.6,205.4z"/>
			</g>
		</g>
	</g>
	<g id="gray">
		<g id="hat5_1_" opacity="0.78" class="a-hat">
			<g>
				<path d="M1209,772c-2.6,0.2-5.4-0.5-7.5-2.1c21.6-5.8,42.9-12.8,63.7-21.1c11.9-4.7,24-10.1,32.7-19.5c1.9-2.1,3.7-4.4,6.3-5.6
					s6.2-0.9,7.6,1.6c2.7,4.8-5.4,10.1-4,15.4c4.6-7,12.7-14.9,19.9-10.8c2.8,1.6,4.4,4.5,5.7,7.4c3.5,7.7,6,15.9,7.3,24.3
					c-0.3-12.1-8.2-23-18.2-29.9s-21.7-10.6-33.3-14.1c-14.8-4.5-29.5-9-44.3-13.5c-6.3-1.9-13.1-4.2-17-9.6
					c-3.9-5.4-2.6-14.8,3.8-16.5c-4.7,20.6-15.2,39.7-29.9,54.8c-2.7,2.8-5.7,5.4-9.3,6.8c-14.5,5.5-28.5-12.1-43.9-11.4
					c-1,5.9,2.8,11.4,6.3,16.3c14.3,20,26.7,41.4,36.8,63.8c0.8,1.7,1.7,3.6,3.4,4.3c2.3,1,4.9-0.6,6.8-2.2
					c16.2-13.2,28-34.3,48.6-37.6c-9.7,6.2-19.5,12.4-29.2,18.6c16.6-9.1,33.1-18.2,49.7-27.3c-22.5,6.9-43.3,19.2-60.2,35.6
					c-2.4-23.2-2.2-46.7,0.5-69.9c-6.7,9.5-13.4,18.9-20.1,28.4c5.7-10.2,12.4-19.8,20.1-28.6c-0.4,3.4-1.9,6.7-4.2,9.2"/>
				<g>
					<path d="M1209,767c-2,0-3.3-0.3-5-1.4c-0.4,3-0.8,6.1-1.2,9.1c24.5-6.6,49-14.5,72.3-24.6c9.7-4.2,19-9.5,26.3-17.2
						c1.6-1.7,3-3.7,5.2-4.8c1.7-0.8,0.1,0.7-0.7,2.2c-2.2,4-3.7,7.2-3,11.8s7,4.3,9.1,1.2c3.6-5.3,11.3-14.2,16.1-5.2
						c4,7.6,6.3,16.4,7.7,24.9c0.9,5.6,10.1,4.3,9.8-1.3c-1.4-27.6-27.9-40.4-51-47.6c-14.3-4.4-28.6-8.7-42.9-13.1
						c-6-1.8-13.7-3.2-18.4-7.7c-2.2-2.2-4.8-8.8-0.4-10.4c-2.1-2.1-4.1-4.1-6.2-6.2c-4.8,20.3-15.2,41-31.1,54.9
						c-7.5,6.6-15.1,3.5-23.1-0.5c-7.7-3.9-15.4-8-24.3-7.9c-2.9,0-4.7,2.3-5,5c-0.8,7.9,3.7,14.2,8.1,20.3c5,7,9.7,14.2,14.2,21.5
						s8.7,14.8,12.7,22.5c2,3.8,3.9,7.7,5.7,11.6c1.6,3.3,2.8,7.4,5.2,10.2c9.8,11.5,24.9-8.6,31.2-15.3c8.8-9.3,18-19.1,31.2-21.4
						c-1.3-3-2.6-6.1-3.9-9.1c-9.7,6.2-19.5,12.4-29.2,18.6c-5.4,3.5-0.6,11.7,5,8.6c16.6-9.1,33.1-18.2,49.7-27.3
						c4.9-2.7,1.6-10.8-3.9-9.1c-23.4,7.3-44.7,19.9-62.4,36.9c2.8,1.2,5.7,2.4,8.5,3.5c-2.3-23.3-2.2-46.7,0.5-69.9
						c0.6-5.4-6.8-6.1-9.3-2.5c-6.7,9.5-13.4,18.9-20.1,28.4c2.9,1.7,5.8,3.4,8.6,5c5.6-9.8,12-19,19.3-27.6
						c-2.8-1.6-5.6-3.2-8.4-4.9c-0.4,2.6-1.1,4.9-2.9,7c-4.1,4.9,2.9,12,7.1,7.1c2.8-3.4,4.8-7,5.5-11.4s-4.7-9.1-8.4-4.9
						c-7.9,9.2-14.9,19-20.9,29.6c-3.2,5.7,5,10.2,8.6,5c6.7-9.5,13.4-18.9,20.1-28.4c-3.1-0.8-6.2-1.7-9.3-2.5
						c-2.6,23.3-2.8,46.7-0.5,69.9c0.4,4.2,5.2,6.7,8.5,3.5c16.4-15.8,36.2-27.6,58-34.3c-1.3-3-2.6-6.1-3.9-9.1
						c-16.6,9.1-33.1,18.2-49.7,27.3c1.7,2.9,3.4,5.8,5,8.6c9.7-6.2,19.5-12.4,29.2-18.6c4.9-3.2,1.6-10.1-3.9-9.1
						c-11.4,2-20.6,8.9-28.7,16.9c-4.1,4-7.9,8.2-11.9,12.3c-2,2-4,4.1-6.1,6c-1,0.9-2,1.9-3.1,2.8c-0.8,0.8-1.8,1.4-2.8,1.9
						c0.1-0.5,0-1-0.3-1.5c-2-2.6-3.2-6.9-4.6-9.8c-1.7-3.6-3.5-7.2-5.4-10.7c-3.4-6.5-7.1-13-10.9-19.3s-7.8-12.5-12-18.6
						c-4-5.8-10.6-12.3-9.9-19.8c-1.7,1.7-3.3,3.3-5,5c9.6-0.1,17.8,6.3,26.4,9.8c9.4,3.8,18.6,3.3,26.7-3.3
						c17.8-14.7,29.7-38.2,34.9-60.4c0.8-3.5-2.4-7.4-6.2-6.2c-10.3,3.5-12.4,16.7-6,24.8c4.1,5.2,10.2,7.9,16.3,9.9
						c8,2.7,16.1,4.9,24.2,7.4c15.1,4.6,31.2,8.2,45.5,15.1c12.5,6,24.7,16.4,25.4,31.2c3.3-0.4,6.5-0.9,9.8-1.3
						c-1.2-7.2-3.1-14.2-5.9-20.9c-2-4.9-4.2-10.4-8.9-13.4c-10.9-6.9-21.5,3.7-27.3,12.2c3,0.4,6.1,0.8,9.1,1.2
						c-0.2-1.6,2.2-4.2,2.8-5.6c1-2,1.9-4.2,1.9-6.5c-0.1-4.7-3.7-8.2-8.2-9c-5.7-1-10.2,2.6-13.8,6.5c-4.3,4.6-8.9,8.3-14.4,11.4
						c-11.8,6.7-25,11.1-37.7,15.6c-14.2,5-28.5,9.4-43,13.3c-4.2,1.1-4.8,6.9-1.2,9.1c3.2,2,6.3,2.8,10,2.8
						C1215.4,777,1215.5,767,1209,767L1209,767z"/>
				</g>
			</g>
			<g>
				<path stroke="#000000" stroke-miterlimit="10" d="M1159.6,750.7c19.9,5.9,34.2,19.9,57,5.9c19.9-14.4,16.9-42.7,34.2-57H1231
					c14.4,14.4,39.7,39.7,62.5,39.7c8.5,0,11.4-3,16.9-11.4c11.4-14.4,16.9-31.3,28.3-48.6c-8-3.4-16.9-5.1-25.8-5.9
					c0,28.3,0,57,3,85.4c0,14.4,22.8,19.9,25.8,3c5.9-31.3-34.2-31.3-54.1-28.3c-37.2,5.9-71,28.3-99.7,51.1
					c5.5,3,14.4,5.9,19.9,8.5c-5.9-14.4-11.4-31.3-16.9-45.6c-5.9,5.5-11.4,11.4-16.9,16.9c19.9,5.5,39.7,5.5,57-5.9
					s28.3-31.3,45.6-39.7c-5.9-5.5-12.7-10.6-19.9-14.4c-3,10.1-7.6,19.9-14.4,28.3c5.5,0,8.5-3,14.4-3c5.9,5.9,11.4,11.4,16.9,16.9
					c-3-8.5-19.9-14.4-25.8-3c-3,5.9-3,8.5-5.5,14.4c-5.9,8.5,3,22.8,14.4,19.9c20.7-8,43.1-11.8,65.5-11.4c16.9,0,16.9-25.8,0-25.8
					c-24.9-0.4-50.3,3.4-73.9,11.4c5.5,5.9,10.6,12.7,14.4,19.9c3-5.9,3-8.5,5.9-14.4c-8-6.3-18.2-9.3-28.3-8.5
					c5.9,14.4,19.9,19.9,31.3,11.4c14.4-11.4,8.5-34.2-3-45.6c-31.3-25.8-59.6,22.8-25.8,34.2c3,0,11.4,0,14.4-3
					c11.4-11.4,16.9-25.8,22.8-39.7c3-11.4-8.5-19.9-19.9-14.4c-25.8,16.9-42.7,57-79.9,42.7c-7.6-1.7-15.2,3-16.9,10.6
					c-0.4,2.1-0.4,4.2,0,6.3c5.5,14.4,11.4,31.3,16.9,45.6c3,8.5,11.4,14.4,19.9,8.5c16.5-11.4,33.4-21.6,51.1-30.4
					c9.7-5.1,20.3-8.9,31.3-11.4c5.9,0,31.3-3,34.2-8.5c8.5,0,16.9,3,25.8,3c-3-28.3-3-57-3-85.4c0-14.4-16.9-16.9-25.8-5.5
					c-5.9,8.5-8.5,14.4-14.4,22.8c-2.1,5.1-5.1,9.7-8.5,14.4c-3,8.5-5.9,11.4-5.9,5.9c0,0-11.4-8.5-14.4-11.4
					c-8.5-5.9-16.1-12.7-22.8-19.9c-5.1-5.5-13.9-5.9-19.4-0.4l-0.4,0.4c-11.4,8.5-14.4,19.9-19.9,34.2c-3,11.4-5.9,22.8-22.8,19.9
					c-5.5,0-14.4-5.5-19.9-8.5C1151.2,719.8,1142.7,745.2,1159.6,750.7L1159.6,750.7z"/>
				<path stroke="#000000" stroke-miterlimit="10" d="M1193.8,824.6c-16.9-39.3-37.2-77.3-59.6-113.7l-8.5,8.5
					c22.8,8.5,48.6,14.4,71,22.8c3,0,5.5,0,8.5-5.5c8.5-22.8,16.9-48.6,25.8-71c-3,0-5.5,3-8.5,3c19.9,14.4,39.7,31.3,59.6,48.2
					c3.4,3,8,3,11.4,0c14.4-25.4,31.7-49,51.1-71c-3-3-8.5-3-11.4-5.5c0,47.7,5.5,95.5,16.9,142.4c3-3,8.5-3,11.4-5.9
					c-5.9-14.4-22.8-14.4-34.2-14.4c-15.2,0.4-30.4,2.5-45.6,5.9c-30,7.6-57.9,23.2-79.9,45.6c-2.5,2.1-3.4,5.9-1.3,8.5
					c2.1,2.5,5.9,3.4,8.5,1.3c0.4-0.4,0.8-0.8,1.3-1.3c19-19.4,42.7-33.8,68.5-42.7c13.1-3.4,26.2-5.1,39.7-5.5
					c8.5,0,25.8-3,31.3,8.5c3,8.5,14.4,3,11.4-5.9c-11.4-45.6-14.4-90.9-16.9-136.5c0-5.9-8.5-8.5-11.4-5.9
					c-21.1,21.1-39.3,45.2-54.1,71h11.4c-19.4-17.7-40.6-33.8-62.5-48.2c-2.5-1.7-5.9-1.3-7.6,1.3c-0.4,0.4-0.8,1.3-0.8,1.7
					c-8.5,22.8-16.9,48.2-25.8,71c3,0,5.9-3,8.5-5.9c-22.8-8.5-48.2-14.4-71-22.8c-5.9-3-11.4,5.5-8.5,8.5
					c19.9,37.2,39.7,76.9,59.6,113.7C1185.4,838.6,1196.8,832.6,1193.8,824.6L1193.8,824.6z"/>
				<path stroke="#000000" stroke-miterlimit="10" d="M1256.4,759.1L1256.4,759.1c-3-3-3-5.9-5.5-5.9l-3-3v-3l0,0c0-3-3-5.9-3-8.5
					l0,0v-8.5c-3,3-5.9,5.9-8.5,5.9h8.5l3,3l0,0v3l0,0v3l0,0c-1.7,2.5-1.3,5.9,1.3,7.6c0.4,0.4,1.3,0.8,1.7,0.8
					C1250.9,765,1256.4,762.1,1256.4,759.1c8.5-13.9,0-36.8-16.9-39.7c-5.5,0-8.5,3-8.5,5.5c0.4,14.4,5.5,28.3,14.4,39.7
					c3,3,8.5,3,8.5,0C1259.3,765,1259.3,762.1,1256.4,759.1L1256.4,759.1z"/>
				<path stroke="#000000" stroke-miterlimit="10" d="M1310.5,747.7c8.5,0,8.5-14.4,0-14.4S1302,747.7,1310.5,747.7z"/>
				<path stroke="#000000" stroke-miterlimit="10" d="M1193.8,776.4h-8.5v8.5c0,1.7,1.3,3,2.5,3l0,0h11.4v-8.5c0-1.7-1.3-3-2.5-3
					l0,0H1193.8L1193.8,776.4z"/>
			</g>
			<g>
				<path d="M1194.9,792.4c-5.4-2-7.1-8.8-7.1-14.5c0-1.1,0.1-2.2,0.7-3c1.9-2.3,5.5,0.5,6.7,3.3c1.8,4.3,2.4,9.1,1.7,13.8"/>
				<g>
					<path d="M1197.4,788.1c-1.6-0.7-2.7-1.6-3.4-3.3c-0.5-1.1-0.8-2.4-1-3.6c-0.1-0.7,0.1-2.3-0.2-2.8c0.1-1.5-0.9-1.3-3.2,0.6
						c0.3,0.2,0.6,0.5,0.8,0.9c0.3,1.2,0.9,2.3,1.2,3.5c0.7,2.8,0.6,5.7,0.3,8.6c-0.3,2.7,2.5,5,5,5c3,0,4.7-2.3,5-5
						c0.7-5.6,0.1-12.2-2.8-17.1c-2.7-4.6-8.8-7.9-13.5-4c-4.1,3.4-3.1,10.4-1.8,14.9c1.3,4.6,4,9,8.6,11c2.5,1.1,5.3,0.7,6.8-1.8
						C1200.4,792.9,1199.9,789.2,1197.4,788.1L1197.4,788.1z"/>
				</g>
			</g>
			<g>
				<path d="M1311.6,745.4c-3.3-2.9-5.3-7.4-5.3-11.8c3.5-0.6,7.1,2.8,6.5,6.3"/>
				<g>
					<path d="M1315.1,741.9c-2.4-2.2-3.7-5-3.8-8.3c-1.7,1.7-3.3,3.3-5,5c1.2-0.1,1.6,0.1,1.5,1.3c-0.2,2.7,2.4,5,5,5
						c2.9,0,4.8-2.3,5-5c0.5-6.2-5.3-12-11.5-11.3c-2.6,0.3-5.1,2.1-5,5c0.1,5.8,2.5,11.3,6.8,15.3
						C1312.8,753.4,1319.9,746.3,1315.1,741.9L1315.1,741.9z"/>
				</g>
			</g>
		</g>
		<g id="hat4_1_" opacity="0.78" class="a-hat">
			<g>
				<g>
					<path fill="#8CC63F" stroke="#000000" stroke-miterlimit="10" d="M611.4,838.4c-3.3,6.8-7.9,12.3-14.2,16.4
						c2.3,2.3,4.6,4.6,6.8,6.8c6.9-12.8,16.3-23.8,26.3-34.2c10.3-10.8,20.3-21.6,33.8-28.3c28-13.7,59.5-22.1,90-28
						c6.3-1.2,3.6-10.9-2.7-9.6c-16.8,3.3-33.4,7.4-49.7,12.7c-15,4.8-30.3,10-44.3,17.2c-13.6,7-23.9,18.1-34.3,29.1
						c-10.5,11.1-20.6,22.7-27.9,36.3c-2.3,4.2,2.5,9.7,6.8,6.8c7.7-5,13.8-11.7,17.8-20C622.8,837.6,614.2,832.6,611.4,838.4
						L611.4,838.4z"/>
				</g>
			</g>
			<g>
				<g>
					<path d="M736.9,760.3c-8.6,1.9-17.2,3.8-25.8,5.7c-9.4,2.1-5.4,16.5,4,14.5c8.6-1.9,17.2-3.8,25.8-5.7
						C750.3,772.7,746.3,758.2,736.9,760.3L736.9,760.3z"/>
				</g>
			</g>
			<path stroke="#000000" stroke-miterlimit="10" d="M604,861.6c6.3-9.3,13.3-19.9,22.9-24.8c-1.9-1.9-3.5-3.9-4.6-6.3
				c-7.9,7.9-17.2,15.5-25.1,23.4L604,861.6c9.3-12.5,18.2-28.2,27.5-42.1c3-3.2-1.6-9.3-4.6-4.6c-9.3,10.9-20.4,18.8-32.7,26.7
				c1.6,1.6,3.2,4.6,4.6,6.3L655,801l-4.6-4.6c-13.7,12.3-26.9,25.3-39,39c-1.2,1.4-0.7,3.5,0.7,4.6c1.2,0.9,2.8,0.9,3.9,0
				c13.5-13.7,28.1-26.2,43.9-37.4c7.9-4.6,15.5-10.9,23.4-14.2c9.3-4.6,18.8-6.3,28.1-9.3c10.9-3.2,35.1-4.5,44.6-10.8
				c1.6-0.9-11.2-3.3-12.1-5c-0.9-1.4-2.6-2.1-4.2-1.4c-18.8,7.9-39,14.2-57.8,21.8c-15.5,8.1-29.9,18.6-42.2,31.3
				c-7.2,7-13.9,14.2-20.4,21.8c-3.2,3,1.6,9.3,4.6,4.6c14.2-15.5,28.1-32.7,46.9-45.2c10.9-6.3,21.8-9.3,32.7-14.2
				c12.5-4.6,25.1-9.3,36-14.2c-1.6-1.6-1.6-4.6-3.2-6.3c-7.9,6.3-17.2,7.9-28.1,9.3c-9.5,1.9-19,4.4-28.1,7.9
				c-17.2,7.9-32.7,18.8-48.5,31.3c-7.9,7.9-17.2,15.5-25.1,23.4l4.6,4.6c12.5-14.2,26.7-26.7,39-39c1.2-1.4,0.7-3.5-0.7-4.6
				c-1.2-0.9-2.8-0.9-3.9,0l-56.4,46.9c-3.2,3,1.6,7.9,4.6,6.3c12.5-8.1,24.1-17.4,34.3-28.1l-4.6-4.6c-9.3,12.5-20.4,25.1-29.7,39
				c-1.4,1.2-1.9,3.2-0.7,4.6c1.2,1.4,3.2,1.9,4.6,0.7c0.2-0.2,0.3,2.8,0.5,2.6c7.9-7.9,17.4-18.8,25.3-26.7c3.2-3-1.6-7.9-4.6-6.3
				c-10.9,4.6-18.8,12.5-26.5,21.8C593.9,855.5,600.8,866.2,604,861.6L604,861.6z"/>
			<path stroke="#000000" stroke-miterlimit="10" d="M739.4,755.8c-29.2,6-57.3,17.2-82.8,32.7c-12.5,7.4-24.6,15.8-36,25.1
				c-6.5,4.4-12.3,9.5-17.2,15.5c-4.6,4.6-10.9,10.9-14.2,17.2c-3.5,6-2.8,13.5,1.6,18.8c3.2,4.6,10.9,7.9,15.5,4.6
				c3.2-1.6,6-4.4,7.7-7.7c3.2-3.2,4.6-6.3,7.9-9.3c4.6-6.3,10.9-14.2,15.5-20.4c18.8-23.4,45.2-39,73.3-46.9
				c9.3-3.2,17.2-3.2,26.5-6.3c4.9-0.2,9.5-1.4,14.2-3.2c3.2-1.6,7.9-1.6,10.9-4.6c4.6-6.3-1.6-12.5-7.9-12.5h-28.1
				c-4.6,0-4.6,7.9,0,7.9h23.4c2.1-0.2,4.4,0.2,6.3,1.6l0,0c-1.6,0-3,1.6-4.6,1.6c-14.2,3-29.7,4.6-43.9,9.3
				c-25.1,7.9-48.5,20.4-67.1,39c-10.9,10.9-18.8,23.4-28.1,34.3c-3.2,3-7.9,12.5-14.2,9.3c-4.6-3.2-4.6-9.3-3.2-15.5
				c3.2-5.8,7.4-11.1,12.5-15.5c4.2-4.6,9-8.8,14.2-12.5l32.7-23.4c26.2-15.5,54.8-26.5,84.5-32.7
				C745.5,762,744.1,755.8,739.4,755.8L739.4,755.8z"/>
			<ellipse stroke="#000000" stroke-miterlimit="10" cx="617.4" cy="665" rx="40.6" ry="31.3"/>
			<path stroke="#000000" stroke-miterlimit="10" d="M681.4,780.6c-6.7-32-18.8-62.7-36-90.5c-1.2-1.2-3-1.9-4.6-1.6
				c-15.5,4.6-34.3,6.3-48.5-3.2c-10.9-7.9-17.2-21.8-9.3-34.3c15.5-25.1,62.4-25.1,70.3,6.3c3.2,14.2-4.6,31.3-20.4,32.7
				c-4.6,0-4.6,7.9,0,7.9c16.7-2.1,29.5-16,29.7-32.7c0-17.2-14.2-32.7-31.3-37.4c-17.2-4.6-37.6,1.6-49.9,13.9
				c-12.1,11.4-12.5,30.6-1.2,42.7c0.5,0.5,0.7,0.7,1.2,1.2c15.5,17.2,40.6,15.5,61,9.3c-1.6,0-3.2-1.6-4.6-1.6
				c17.4,27.1,29.5,57.3,36,89.1c0.7,2.1,3,3.2,5.1,2.6C680.7,784.1,681.9,782.2,681.4,780.6L681.4,780.6z"/>
			<path stroke="#000000" stroke-miterlimit="10" d="M623.6,671.3L623.6,671.3c0-0.9-0.7-1.6-1.4-1.6l0,0L623.6,671.3l-1.6-1.6l0,0
				v-1.6l0,0v-1.6h1.6v1.6l0,0v1.6l0,0V671.3L623.6,671.3c0-1.6,1.6,0,1.6-1.6h-1.6C623.6,669.7,625.3,669.7,623.6,671.3v-1.6l0,0
				v-1.6h4.6v1.6l0,0l-1.6,1.6l0,0C623.6,672.9,623.6,672.9,623.6,671.3L623.6,671.3C622,671.3,623.6,672.9,623.6,671.3H622v-1.6
				l0,0v-1.6l0,0v-1.6l0,0v-1.6l0,0c0,1.6,3,3.2,4.6,3.2s3-3.2,3-4.6c-1.6-3.2-4.6-6.3-7.9-4.6c-3,1.4-4.6,4.6-4.6,7.9
				c0,5.8,3,11.1,7.9,13.9c4.6,1.6,12.5-1.6,14.2-6.3c1.6-3,1.6-6.3,0-9.3s-3-3-6.3-4.6c-1.6-1.6-4.6-1.6-7.9,0
				c-1.2,0.2-2.3,0.7-3,1.6l-1.6,1.6l0,0c-3,4.6,0,10.9,4.6,14.2c1.6,1.6,4.6,1.6,7.9,1.6c2.8-1.2,5.1-3.5,6.3-6.3
				c1.2-4.6-0.7-9.7-4.6-12.5c-4.2-2.3-9.5-0.9-11.8,3.2c-0.2,0.5-0.5,0.9-0.7,1.4c-1.9,4.6-1.2,10,1.6,14.2
				c1.6,1.6,1.6,1.6,3.2,1.6c1.6,0,4.6,0,4.6-3C628.5,675.9,625.9,673.9,623.6,671.3L623.6,671.3z"/>
			<path stroke="#000000" stroke-miterlimit="10" d="M586.3,633.9h-4.6l-1.6-1.6l0,0v-1.6l0,0v-1.6l0,0v-1.4l0,0v-1.6
				c0-1.6,0-4.6-3.2-4.6c-1.6,0-3,0-4.6,3.2c-1.6,4.6,0,10.9,3.2,15.5s9.3,6.3,15.5,4.6c1.6,0,3.2-3.2,3.2-4.6
				C590.9,635.6,589.5,633.9,586.3,633.9L586.3,633.9z"/>
			<path stroke="#000000" stroke-miterlimit="10" d="M609.7,626.1L609.7,626.1c-0.9,0-1.6-0.7-1.6-1.4l0,0l-1.6-1.6l0,0v-1.6l0,0
				c0-1.6,0-1.6-1.6-3l0,0v-3.2l0,0v-3.2l0,0c0-0.9,0.7-1.6,1.4-1.6l0,0c0.9-1.9,0-3.9-1.6-4.6c-1.6-0.7-3.7,0-4.6,1.6
				c-6.3,9.3-3,23.4,6.3,28.1c1.4,0.9,3.2,0.7,4.2-0.7c0.2-0.2,0.5-0.7,0.5-0.9C612.3,631.2,611.8,628.1,609.7,626.1L609.7,626.1z"
				/>
			<path stroke="#000000" stroke-miterlimit="10" d="M636.2,629.1c-3.5-9.7-1.2-20.7,6.3-28.1c1.4-1.2,1.9-3.2,0.7-4.6
				c-1.2-1.4-3.2-1.9-4.6-0.7c-0.2,0.2-0.5,0.5-0.7,0.7c-7.9,9.3-12.5,23.4-7.9,34.3c0,1.6,3.2,3.2,4.6,3.2
				C635.9,632.6,636.4,630.9,636.2,629.1L636.2,629.1z"/>
			<g>
				<g>
					<path d="M613,856.5c9.7,0,9.7-15,0-15C603.3,841.5,603.3,856.5,613,856.5L613,856.5z"/>
				</g>
			</g>
		</g>
		<g id="hat3_1_" opacity="0.78" class="a-hat">
			<g>
				<g>
					<path stroke="#000000" stroke-miterlimit="10" d="M1478.7,266.2c-8.2-11.9-9.8-26.5-4.3-39.8c-3,0.4-6.1,0.8-9.1,1.2
						c3.9,6.8,5.3,14.4,3.8,22.1c3.2,0,6.4,0,9.6,0c-1.2-7.9,3-15.6,9.7-19.6c-2.4-1-4.9-2-7.3-3c0.6,2.4-0.6,4.6-3,5.3
						c2.1,2.1,4.1,4.1,6.2,6.2c2.4-10,11.4-16.8,21.7-16.4c-1.4-0.8-2.9-1.7-4.3-2.5c1.1,2.1-0.5,5.1-2.9,5.3c1.7,1.7,3.3,3.3,5,5
						c0.3-4.7,10.3-3.6,13.1-3.5c5.7,0.1,10.5-0.9,15-4.5c1.3-1,1.8-3.4,1.3-4.9c-3.5-9.5-14.1-6.4-20.3-1.7
						c-10.7,8.1-21.3,16.4-32,24.5c2.4,1.9,4.9,3.8,7.3,5.6c2.3-8.7,6.8-16,13.4-21.9c2.9-2.6,1.2-7.3-2.2-8.4
						c-12.1-3.7-28.5-5-33.4,9.9c-0.9,2.8,1.6,6.7,4.8,6.3c23.6-3.1,47.1-6.7,70.5-10.9c5.5-1,11-2,16.5-3.1
						c4.6-0.9,9.4-1.8,13.4-4.4c7.3-4.7,7.9-13.2,2.1-19.5c-3.7-3.9-8.1-7.3-12.1-10.9c-4.1-3.6-8.1-7.5-12.5-10.9
						c-3.2-2.5-7.1-3.9-10.9-2c-1.5,0.7-2.7,1.9-3.7,3.2c-0.7,0.9-1.2,1.8-1.7,2.8c-0.3,0.6-0.6,1.2-0.9,1.8c-1,0.8-0.9,1.4,0.2,1.7
						c1.2,2.2,0.4-1.3,0.3-1.7c-0.2-1.3-0.2-2.6-0.2-3.9c0.1-2.2,0.5-4.3,1-6.4c1.1-5.2,2.5-10.4,4.9-15.1
						c4.3-8.6,13-16.9,23.5-14.5c11.1,2.5,17,13.9,20.5,23.6c4.4,12.2,8,24.8,11.9,37.2c0.8-1.9,1.5-3.8,2.3-5.6
						c-3.4,2.1-6.6,3-10.6,3c0.8,3.1,1.7,6.2,2.5,9.3c16.2-9.7,32.5-21.7,50.5-27.9c8.3-2.9,17.9-4.5,26.5-1.5
						c9,3.2,10.2,11.7,11.1,20.2c0.8,7.7,1.5,15.9-1,23.3c-2.6,7.7-10.6,11-13.5,18.5c-6.7,17.2,11.9,27.3,18.9,40
						c4.6,8.4,5.3,19.9,4.5,29.3c-0.4,5.1-4.7,5.6-8.9,6.7c-5.3,1.3-10.6,2.7-15.9,4c1.3,3,2.6,6.1,3.9,9.1
						c10-7.2,18.5-15.7,25.6-25.7c3.3-4.6-4.1-10.3-7.9-6.1c-7.1,8.1-14.2,16.2-21.4,24.3c2.4,2.4,4.7,4.7,7.1,7.1
						c5.2-6.1,11-11.8,17.4-16.7c-2.3-2.3-4.6-4.6-6.8-6.8c-3.7,4.8-7.4,9.6-11.1,14.3c2.9,1.7,5.8,3.4,8.6,5
						c3.3-5.3,6.5-10.7,9.8-16c3-4.9-3.9-10.1-7.9-6.1c-10.9,11-27.1,16.3-42.3,12.7c-14.3-3.3-25.9-13.5-31.8-26.9
						c-1.6-3.7-6.8-2.8-8.6,0c-5.8,8.7-16.3,12.6-24.7,18.4c-4.2,2.9-8.1,6.1-11,10.3c-3.7,5.1-4.4,12.2-8.7,16.9
						c-8.2,8.8-21.9,4.2-27.9-4.6c-8.2-11.8-5.7-26.8-1.2-39.5c2.1-6.1-7.5-8.7-9.6-2.7c-5.3,15-7.3,32.6,1.8,46.6
						c7.4,11.4,21,17.8,34.4,13.2c6.3-2.2,11.2-6.5,14.1-12.5c3.3-6.9,5-12.7,11.3-17.6c10.3-8,22.8-12.2,30.3-23.4
						c-2.9,0-5.8,0-8.6,0c7,15.9,22,28.3,39.2,31.8c18.3,3.7,37.5-2.4,50.7-15.6c-2.6-2-5.2-4-7.9-6.1c-3.3,5.3-6.5,10.7-9.8,16
						c-3.5,5.7,4.8,10,8.6,5c3.7-4.8,7.4-9.6,11.1-14.3c3-3.9-3-9.8-6.8-6.8c-7.1,5.5-13.6,11.4-19.4,18.3
						c-4.1,4.9,2.8,11.9,7.1,7.1c7.1-8.1,14.2-16.2,21.4-24.3c-2.6-2-5.2-4-7.9-6.1c-6.1,8.5-13.5,16-22,22.1
						c-4.4,3.2-1.9,10.6,3.9,9.1c5.3-1.3,10.6-2.7,15.9-4c3.9-1,8.1-2,11.3-4.7c6.9-6,5.4-17.6,4.6-25.7c-0.9-9.6-3.4-18.4-9.5-26
						c-5.3-6.6-16.7-14.6-14.5-24.4c1-4.4,5.7-6.9,8.5-10.2c2.7-3.3,4.7-7,5.9-11.1c2.6-8.6,2-18,1-26.8
						c-1.1-9.2-2.6-18.5-10.5-24.4c-7.4-5.4-17.5-6.5-26.4-5.5c-11.5,1.4-22.2,6.3-32.3,11.9c-11.4,6.4-22.5,13.4-33.8,20.1
						c-4.2,2.5-2.5,9.3,2.5,9.3c5.6,0,10.8-1.5,15.6-4.4c1.8-1.1,3-3.5,2.3-5.6c-3.6-11.3-7.1-22.7-10.8-34
						c-3.3-9.7-7.4-19.8-15.4-26.6c-7.1-6.1-16.2-9.4-25.6-7.2c-9.4,2.2-17.1,9.4-21.7,17.7c-4.6,8.4-7.9,19.1-8,28.7
						c-0.1,4,0.6,10,3.6,13c3.3,3.1,8.4,2.2,11.5-0.6c1.3-1.2,2.4-2.7,3.3-4.2c0.5-0.9,0.8-2.2,1.5-3c0.9-1.1-1.4-1.2,1.1,0.1
						c2.3,1.2,4.5,3.9,6.4,5.7c2.6,2.3,5.2,4.6,7.8,6.9c2,1.8,11.1,7.7,10.5,10.8c-0.7,3.4-9.9,4.2-12.3,4.7
						c-28,5.4-56.1,10-84.4,13.7c1.6,2.1,3.2,4.2,4.8,6.3c2.8-8.6,15.2-4.7,21.1-2.9c-0.7-2.8-1.5-5.6-2.2-8.4
						c-7.8,7.1-13.3,16.1-16,26.4c-1,3.8,3.7,8.4,7.3,5.6c7.4-5.6,14.7-11.3,22.1-16.9c3.6-2.7,7.1-5.5,10.7-8.2
						c1.1-0.8,2.2-1.7,3.6-2.2c0.6-0.2,1.3-0.4,1.9-0.5c1,0.2,0.8-0.2-0.6-1c0.4-1.6,0.9-3.2,1.3-4.9c-2.7,2.2-6.9,1.6-10.2,1.6
						c-3.4-0.1-6.7,0-10,1c-6.1,1.9-10.4,6.1-10.8,12.6c-0.1,2.6,2.4,5.2,5,5c10.1-0.6,16.2-11.3,11.6-20.3
						c-0.8-1.6-2.6-2.4-4.3-2.5c-14.6-0.5-27.9,9.6-31.4,23.8c-0.9,3.6,2.4,7.3,6.2,6.2c7.6-2.3,11.9-9.8,10-17.6
						c-0.8-3.1-4.6-4.6-7.3-3c-10.9,6.5-16.1,18.5-14.3,30.9c0.7,4.9,8.7,4.7,9.6,0c2-10.4,0.5-20.6-4.8-29.8
						c-2.3-4.1-7.6-2.6-9.1,1.2c-6.4,15.6-4.3,33.8,5.3,47.6C1473.7,276.5,1482.4,271.5,1478.7,266.2L1478.7,266.2z"/>
				</g>
			</g>
			<g>
				<path d="M1538.4,173.9c-3.4-12.1,4.5-25,15-31.9c1-0.7,2.1-1.3,3.3-1.3c1.4,0,2.6,0.9,3.7,1.8c12.1,9.5,22.5,21.3,30.5,34.5
					c3.4,5.6,6.9,12,13.1,14.2c7.9,2.8,16.1-2.3,23.2-6.7c7.2-4.4,15-8.5,23.4-8.4c11.4,0.1,22.1,8.7,24.7,19.7s-3.1,23.5-13.3,28.7
					c0.7-6.5,4.3-12.3,6.8-18.4c2.5-6.1,3.9-13.4,0.5-19c-3.8-6.2-12.3-7.8-19.4-6.2c-7.1,1.7-13.2,5.9-19.5,9.4
					c-6.4,3.5-13.6,6.4-20.7,5c-12.2-2.4-18.5-15.9-21.5-28c-2.2-8.6-5.2-19.1-13.9-20.9c-14.1-3-22.2,20.5-36.5,19.6
					c-2.6-7.2,0.7-16.1,7.4-19.9"/>
				<g>
					<path d="M1545.6,171.9c-1.2-5,0-9.8,2.6-14.1c2-3.4,6.4-9.2,10.4-9.8c-1.3,0-2.7,0-4,0c3.1,0.6,6.6,5,8.9,7.1
						c2.9,2.7,5.7,5.6,8.4,8.6c5.4,6.1,9.8,12.7,14,19.6c3.7,6.1,8,11.9,14.8,14.7c7.7,3.1,15.7,1,22.8-2.6
						c11.9-6,25.6-18.1,38.5-7.2c10.1,8.5,7.4,23.9-3.7,30c3.7,2.8,7.3,5.6,11,8.5c1.2-8.7,6.8-15.8,8.7-24.3
						c1.8-8.3,0.7-17.4-6-23.4c-6.2-5.5-14.9-6.8-22.8-5.4c-9.2,1.7-16.8,7.5-24.9,11.6c-6.7,3.4-14.1,4.8-19.9-0.8
						c-4.9-4.8-7.2-11.7-8.9-18.2c-3.5-13.3-10.6-30.3-27.6-26.8c-6.7,1.3-12,6.1-16.7,10.7c-3.8,3.6-8.1,8.9-13.5,8.8
						c2.4,1.8,4.8,3.7,7.2,5.5c-1.3-4.4,0-8.9,3.9-11.4c8.1-5.2,0.6-18.2-7.6-13c-9.5,6-14.1,17.5-10.8,28.4c1,3.2,3.9,5.4,7.2,5.5
						c12.4,0.3,19.4-9.8,28.1-16.8c2.5-2.1,5.5-4.2,8.4-2.3c4.7,2.9,5.7,11.4,7,16.2c3.5,12.9,10.4,26.6,23.9,31.2
						c8.2,2.8,16.9,0.7,24.5-2.8c7.2-3.3,13.7-8.7,21.5-10.7c6.5-1.7,13.6,0.5,12.7,8.3c-1,9.1-7.7,16.6-9,25.8
						c-0.9,6.3,4.8,11.9,11,8.5c14.2-7.8,21.5-25.9,15.4-41.2c-6.6-16.4-24.8-24.6-41.6-19.5c-9.3,2.8-16.4,9.1-25.2,12.8
						c-8.6,3.7-12.2-1.9-16.3-8.6c-4.9-8-10.4-15.7-16.7-22.6c-3.1-3.4-6.3-6.6-9.7-9.6c-3.4-3-7.2-7-11.6-8.4
						c-9.1-2.9-18.3,7.3-23,13.9c-5.9,8.3-8.2,18.3-5.8,28.2C1533.4,185.3,1547.9,181.3,1545.6,171.9L1545.6,171.9z"/>
				</g>
			</g>
			<g>
				<path d="M1531.1,216.9c-2.6-1.8-6.1-1.9-9.3-1.9c-11.5,0-23,0-34.5-0.1c-3.1,0-6.4,0-9.1,1.5c-5.7,3.1-6.5,10.9-9.9,16.5
					c-1.3,2.2-3.2,4.2-4.4,6.5c-1.5,2.8-2,6-2.5,9.1c-1.3,7.9-2.5,16.2,0.2,23.6c4.1-1.1,5.3-6.3,6.2-10.5
					c5.9-27,31.4-48.4,59.1-49.5c2.7-0.1,5.6,0,7.7,1.8c1.3,1.1,2.1,2.7,2.8,4.2c1.8,3.8,3.6,7.9,3.2,12.1c-0.3,4.2-3.5,8.5-7.8,8.5
					c-4.7,0-7.8-4.7-10-8.8"/>
				<g>
					<path d="M1534.9,210.4c-5.3-3-11-2.9-16.9-2.9c-6.4,0-12.8,0-19.2,0c-10.6,0-23-1.8-30.1,7.8c-2.6,3.5-3.8,7.6-5.6,11.6
						c-2.2,4.8-5.9,8.4-7.6,13.6c-3.3,10.3-4.5,23.5-1.1,33.8c1.2,3.5,5.3,6.8,9.2,5.2c11.4-4.5,10.4-16.4,14.8-26
						c4.2-9.2,10.9-17.3,19.1-23.2c8.2-5.8,17.9-9.8,27.9-10.5c1-0.1,3.4-0.6,4.3-0.1c1.6,1,3,6.3,3.3,8c0.1,0.9-0.2,3.6-0.1,3.6
						c-1,0.1-3.2-4.6-3.5-5.1c-4.6-8.5-17.6-0.9-13,7.6c4,7.3,10.5,14.3,19.7,12.1c7.8-1.8,12.2-9.9,12-17.4
						c-0.2-7.3-4.2-18-10.9-21.8c-6.4-3.6-15.5-2-22.3-0.5c-14.2,3.1-27.5,11-37.3,21.6c-4.9,5.3-9.2,11.4-12.3,18
						c-1.7,3.6-3.1,7.3-4.2,11.1c-0.5,1.8-0.8,3.6-1.3,5.4c-0.2,0.7-0.4,1.3-0.6,2c-0.9,1.2-0.9,1.4,0.2,0.6
						c3.1,1.7,6.2,3.5,9.2,5.2c-2.5-7.6-1.4-16.7,0.7-24.3c1.1-4,4-6.7,5.9-10.3c1.6-3,2.5-6.2,4-9.2c1.5-3.1,2.8-3.8,6.3-3.9
						c4.7-0.2,9.4,0,14,0c4.8,0,9.6,0,14.4,0c3.9,0,9.7-1.1,13.2,0.9C1535.7,228.1,1543.3,215.1,1534.9,210.4L1534.9,210.4z"/>
				</g>
			</g>
			<g>
				<path stroke="#000000" stroke-miterlimit="10" d="M1564.1,169.2c0-9.9,0-19.1,9.9-19.1c-5-5-9.9-9.9-9.9-14.2
					c-9.2,33.3,19.1,71.5,52.4,66.6c9.2,0,19.1-5,28.3-5l9.2,5l-5,5c-9.9,5-14.2,5-19.1,14.2c-5,9.2-5,19.1,5,24.1
					c5.7,5,13.5,5,19.1,0c5-14.2,19.1-28.3,33.3-38.2h-14.2c5,5-14.2,19.1-19.1,24.1c-9.2,9.9-14.2,19.1-9.2,28.3
					c0,9.9,9.2,14.2,14.2,24.1l9.2,9.2c0,2.8,2.1,5,5,5l0,0v5h-5c-5,0.7-10.6-1.4-14.2-5c-9.2-5-19.1-14.2-33.3-19.1
					s-24.1,0-38.2,9.9c-9.2,5.7-21.2,3.5-28.3-5c-19.1-24.1,5-47.4,28.3-57.4c14.2-5,5-24.1-9.2-19.1c-19.1,5-33.3,19.1-33.3,38.2
					c-0.7,19.8,10.6,38.2,28.3,47.4c19.1,9.2,41.8,5.7,57.4-9.2c18.4-14.2,30.5-34.7,33.3-57.4c5-14.2-19.1-19.1-24.1-5
					c-5,28.3-24.1,57.4-57.4,52.4c-9.2,0-19.1-9.9-19.1-24.1c0-9.9,5-19.1,14.2-24.1c-5-5-5-14.2-9.9-19.1
					c-28.3,14.2-52.4,38.2-43.2,71.5c5,12.7,13.5,24.1,24.1,33.3c14.2,9.2,28.3,5,43.2-5c7.1-3.5,15.6-5.7,24.1-5
					c9.9,5,14.2,9.9,19.1,9.9c11.3,6.4,25.5,8.5,38.2,5c14.2-5,19.1-19.1,14.2-33.3c-6.4-10.6-14.2-19.8-24.1-28.3c0-5-5-5-5-9.9
					c0.7-7.8,6.4-13.5,14.2-14.2c14.2-9.2,19.1-28.3,9.9-42.5l0,0c-2.8-4.2-8.5-4.2-12.7-1.4c-0.7,0.7-1.4,0.7-1.4,1.4
					c-18.4,7.8-32.6,23.4-38.2,43.2h24.1c3.5-0.7,7.1-2.1,9.9-5c9.2-5,14.2-9.9,14.2-19.1c0-14.2-14.2-28.3-28.3-33.3
					c-14.2,0-33.3,9.9-47.4,0c-9.2-9.2-19.1-24.1-14.2-33.3c0-5-5-14.2-9.2-14.2c-24.1,0-38.2,24.1-33.3,47.4
					C1545,189,1568.4,184.1,1564.1,169.2L1564.1,169.2z"/>
				<path stroke="#000000" stroke-miterlimit="10" d="M1535.8,293.1c-19.1,24.1-11.5,53.8,11.9,68c4.2,2.8,12.2,10.6,15,6.4
					c0.7-0.7,1.4-2.1,1.4-2.8c10.6-19.1,19.1-40.4,24.1-62.3h-24.1c0,5,0,14.2-9.2,14.2s-14.2-9.9-9.9-14.2c-5,0-9.9,5-14.2,5
					c4.2,2.8,4.2,8.5,1.4,12.7c-0.7,0.7-0.7,1.4-1.4,1.4h14.2c-10.6-15.6-14.2-34.7-9.9-52.4c0.7-5-1.4-10.6-5-14.2
					c-9.9-9.9-24.1-5-33.3,0c-9.2,5-19.1,14.2-28.3,9.2c-9.9,0-5-14.2,0-19.1c9.2-14.2,33.3-5,47.4,0c0-5-5-9.9-5-14.2l0,0
					c0,5,5,9.9,5,14.2c0-5,4.2-9.2,9.9-9.9c-5-5-9.9-9.2-9.9-14.2c-5,14.2-14.2,24.1-28.3,24.1c5,0,9.9,5,14.2,5l0,0
					c0-5-5-9.2-5-14.2c-5,9.9-9.9,14.2-19.1,14.2c5,5,9.9,5,9.9,9.9c0-9.9,14.2-9.9,19.1-5c9.9,5,19.1,19.1,24.1,28.3
					c5-5,12-8.5,19.1-9.9c-14.2-23.4-9.9-53.1,9.9-71.5c5-5,0-19.1-9.9-19.1c-5,0,0-9.9,5-5c9.2,9.2-9.9,19.1-14.2,24.1
					c5,0,9.2,5,14.2,5c-5-9.9-9.9-24.1-5-33.3c5-5,9.9-9.2,9.9,0c0,5,0,9.9-5,5c-5-5,0-9.9,5-5c14.2,5-14.2,19.1-9.9,0
					c5-9.2,9.9-5,14.2,0c9.9,9.9,5,24.1,0,33.3s0,19.1,14.2,14.2c21.2-4.2,43.2-0.7,62.3,9.2c5-5,5-14.2,9.9-19.1
					c-5,0-9.2-4.2-9.9-9.9l-9.9,9.9c9.2,0,14.2,9.9,9.2,14.2c5,0,9.9-5,14.2-5c-9.2-5-5-19.1,0-24.1c-5,0-9.2,0-9.2-5
					c5,5,9.2,9.2,5,14.2h19.1v-14.2c-17,12-36.8,19.8-57.4,24.1c-9.2,0-14.2,9.9-9.2,19.1c9.9,21.2,4.2,46.7-14.2,62.3
					c-9.9,5,0,19.1,9.2,19.1c19.1-0.7,38.2,0.7,57.4,5c-0.7-8.5,0.7-16.3,5-24.1c-14.2,0-19.1-19.1-9.9-28.3c-5,0-9.9,5-14.2,5
					c8.5,3.5,15.6,10.6,19.1,19.1c0-5,5-5,5-9.2c-5,5-9.9,5-19.1,5c5,5,9.9,5,9.9,9.9V279c-5,0-9.9,5-14.2,5c5,1.4,7.8,6.4,6.4,11.3
					c0,0.7-0.7,2.1-1.4,2.8h-5c-5,5-9.9,5-19.1,9.2c4.2-2.8,4.2-8.5,1.4-12.7c-0.7-0.7-0.7-1.4-1.4-1.4c0,5,5,9.9,5,14.2l0,0
					c5-5,9.9-9.2,14.2-14.2c-19.1,0-33.3-5-52.4,0c-9.2,0-19.1,5-24.1,5c-9.9,0-19.1,5-24.1,5c-6.4,0.7-13.5-0.7-19.1-5v-5
					C1520.9,288.9,1530.9,293.8,1535.8,293.1c5,9.9,5,14.2,0,19.1c-5,14.2,14.2,19.1,24.1,5c9.9-19.1-9.9-43.2-28.3-47.4
					c-14.2-4.2-29,4.2-33.3,18.4c-1.4,5-1.4,9.9,0,14.9c5,24.1,33.3,24.1,57.4,19.1c27.6-10.6,56.7-13.5,85.7-9.9
					c9.9,0,19.1-9.9,14.2-14.2c-9.2-14.2-38.2-14.2-43.2,5c-0.7,5,1.4,10.6,5,14.2c9.2,5,24.1,9.9,28.3,0s5-19.1-5-24.1
					c-5-5-19.1,0-19.1,9.9c0,19.1,24.1,28.3,43.2,19.1c19.1-14.2,9.9-43.2-9.9-52.4c-4.2-2.8-9.9-2.1-12.7,2.1
					c-0.7,0.7-1.4,2.1-1.4,2.8V303c0.7,5,4.2,9.2,9.9,9.9c10.6,1.4,20.5-2.1,28.3-9.9c5,0,5-5,5-9.9c-0.7-19.8-14.2-37.5-33.3-43.2
					c-5-0.7-10.6,1.4-14.2,5c-19.1,24.1,0,62.3,28.3,62.3c14.2,0,14.2-19.1,5-24.1c-20.5-5.7-41.1-8.5-62.3-9.2c5,5,5,14.2,9.9,19.1
					c24.1-24.1,33.3-57.4,19.1-85.7c-5,5-5,9.9-9.9,19.1c24.1,0,47.4-9.2,71.5-24.1c5-5,9.9-9.9,0-19.1c-14.2-14.2-43.2,5-33.3,24.1
					c1.4,5,7.1,8.5,12,7.1c3.5-0.7,5.7-3.5,7.1-7.1c5.7-12.7,3.5-27.6-5-38.2c-5-5-9.9-9.9-14.2-9.9c-4.2,0-9.9,5-14.2,9.9
					c-14.9,16.3-13.5,41.1,2.8,55.2c0.7,0.7,1.4,1.4,2.1,2.1c4.2,2.8,9.9,2.1,12.7-2.1c0.7-0.7,1.4-2.1,1.4-2.8
					c14.2-24.1-9.2-52.4-33.3-47.4c-5,0-9.2,4.2-9.9,9.9c0,19.1,5,33.3,24.1,38.2c9.9,0,19.1-14.2,9.9-19.1
					c-24.8-14.2-53.1-19.1-81.4-14.2l14.2,14.2c9.9-19.1,9.9-43.2-5-57.4c-9.9-14.2-30.5-17.7-44.6-7.1c-1.4,0.7-2.1,1.4-3.5,2.8
					c-9.9,14.2-9.9,33.3,0,43.2s33.3,5,42.5-9.9c7.1-12.7,2.8-29-9.9-36.1c-1.4-0.7-2.8-1.4-4.2-2.1c-14.2-5-33.3,0-33.3,19.1
					c0,14.2,9.9,33.3,28.3,33.3c14.2,0,24.1-19.1,24.1-33.3c-5-19.1-28.3-24.1-43.2-14.2c-24.1,19.1-14.2,47.4-5,66.6
					c0,5,9.2,5,14.2,5c14.2-9.2,28.3-19.1,28.3-33.3s-9.2-28.3-24.1-28.3s-28.3,9.9-28.3,24.1c0,14.2,9.9,28.3,24.1,28.3
					c-5-5-5-14.2-9.9-19.1c-24.1,26.2-28.3,65.2-9.9,95.6c9.9,14.2,24.1,0,19.1-9.9c-9.9-19.1-24.1-43.2-47.4-43.2
					c-19.1,0-38.2,14.2-33.3,33.3c0,5,4.2,9.2,9.9,9.2c14.2,0,33.3-9.2,38.2-24.1c0-5,0-14.2-5-14.2c-19.1-9.9-43.2,14.2-33.3,33.3
					c3.5,3.5,9.2,5.7,14.2,5c22-3.5,39.7-20.5,43.2-43.2c0-5-5-14.2-9.9-14.2c-16.3,0.7-30.5,12-33.3,28.3c-0.7,5,1.4,10.6,5,14.2
					c9.9,5,24.1,5,28.3-5c2.8-4.2,2.1-9.9-2.1-12.7c-0.7-0.7-2.1-1.4-2.8-1.4c-19.1-5-47.4-14.2-62.3,0c-13.5,9.9-5.1,20.1-0.2,36.4
					c4.2,14.9,13.4,11.7,29,8.1c1.4,0,7.3,8.6,8.7,7.9c9.9,0,0.7,4.9,10.6,0.7c2.8-4.2,8.5-5,12.7-1.4c0.7,0.7,1.4,0.7,1.4,1.4
					c0-5-5-9.9-5-14.2c-9.2,28.3,0,52.4,14.2,76.5c2.8,4.2,8.5,4.2,12.7,1.4c0.7-0.7,1.4-0.7,1.4-1.4c12-12.7,11.3-32.6-1.4-44.6
					c-0.7-0.7-2.1-2.1-3.5-2.8c-4.2-2.8-9.9-2.1-12.7,2.1c-0.7,0.7-1.4,2.1-1.4,2.8c-4.2,19.1,7.8,38.2,26.9,41.8
					c2.1,0.7,4.2,0.7,6.4,0.7c17,0.7,30.5-12.7,31.2-29.7c0-5-0.7-9.2-2.8-13.5c-3.5-6.4-11.3-9.2-18.4-5.7
					c-2.1,1.4-4.2,3.5-5.7,5.7c-5.7,19.8-5.1,24-15,42.5c4.1-12.8,0,0,4.3,0c-14.2-9.9-16.9-19.8-7-34.7c0.7-1.4,1.4-2.1,2.8-3.5
					c5-28.3-14.2-38.2-19.1-28.3L1535.8,293.1z"/>
				<path stroke="#000000" stroke-miterlimit="10" d="M1540.8,212.4c-19.1-19.8-19.1-51.7,0-71.5c4.2-5.7,11.3-9.2,19.1-9.9
					c9.9,0,14.2,9.9,19.1,14.2c9.9,19.1,14.2,38.2,9.9,57.4c5-5,14.2-5,19.1-9.2l0,0c0-2.8,2.1-5,4.2-5l0,0c0-5,5-5,9.9-9.2
					c5-5,12-8.5,19.1-9.9c13.5-4.2,28.3-0.7,38.2,9.9c9.9,9.2,14.2,24.1,9.9,33.3c-5,14.2-19.1,24.1-28.3,19.1
					c-5.7,0-9.9,5-9.9,10.6c0,3.5,2.1,6.4,5,8.5c19.1,9.9,57.4,38.2,28.3,62.3c-24.1,24.1-62.3,0-80.7-14.2c-5-5-19.1,0-19.1,9.2
					c0,22-17.7,40.4-40.4,40.4c-4.2,0-8.5-0.7-12-2.1c-19.1-9.9-28.3-38.2-14.2-57.4c5-9.9-5-24.1-14.2-14.2
					c-9.9,9.2-26.2,8.5-35.4-1.4c-0.7-0.7-2.1-2.1-2.8-3.5c-9.2-10.6-9.2-26.9,0-38.2c14.2-24.1,52.4-19.1,76.5-14.2
					c14.2,5,19.1-19.1,5-24.1c-38.2-9.9-90.6-9.9-104.8,33.3c-9.9,19.1,0,47.4,14.2,62.3c18.4,14.2,43.9,14.2,62.3,0l-14.2-14.2
					c-19.1,28.3-5,76.5,28.3,90.6c38.2,14.2,80.7-19.1,80.7-57.4c-5,5-9.2,5-19.1,9.9c18.4,14.2,39.7,24.1,62.3,28.3
					c19.1,0,38.2-5,47.4-19.1c14.2-14.2,14.2-33.3,5-52.4s-28.3-28.3-43.2-43.2c0,5-5,14.2-5,19.1c24.1,0,42.5-14.2,52.4-38.2
					s-5-47.4-24.1-62.3c-19.8-13.5-45.3-14.9-66.6-5c-14.2,9.9-47.4,33.3-28.3,52.4c9.9,9.9,19.1,0,19.1-9.9
					c5-28.3-5-52.4-19.1-76.5c-9.9-9.9-19.1-19.1-28.3-19.1c-12.7,0.7-24.1,5.7-33.3,14.2c-33.3,24.1-33.3,80.7-5,104.8
					C1536.5,240.7,1550.7,221.6,1540.8,212.4L1540.8,212.4z"/>
				<path stroke="#000000" stroke-miterlimit="10" d="M1588.2,298.1c9.2,0,14.2-5,24.1-9.9c5.7-5.7,10.6-12,14.2-19.1
					c0-9.9,5-14.2,0-24.1c0-9.9-9.2-14.2-14.2-19.1c-9.2-9.9-28.3-9.9-42.5-5c-14.9,6.4-23.4,22.7-19.1,38.2
					c0,19.1,14.2,33.3,33.3,38.2L1588.2,298.1c0-5,5-5,5-9.2s0-14.2-9.9-14.2h-9.2v-5l0,0v-5h24.1v5l0,0v5l0,0v5l0,0l-5,5l0,0
					c-5,0-9.2,4.2-9.9,9.2C1579,293.8,1583.3,298.1,1588.2,298.1L1588.2,298.1z"/>
				<path stroke="#000000" stroke-miterlimit="10" d="M1588.2,269.7h14.2v-14.2c0-2.8-2.1-5-5-5l0,0h-19.1v14.2c0,2.8,2.1,5,4.2,5
					l0,0H1588.2z"/>
			</g>
			<g>
				<g>
					<path stroke="#000000" stroke-miterlimit="10" d="M1594.5,267.6c-2.9,2.7-6.9,1.9-9.9-0.2c-2.4-1.6-6.8-5.8-5.7-9.1
						c1.3-3.7,7.3-4.1,10.5-4.3c3.8-0.2,6.9-0.3,7.7,4c1.1,5.9,0.9,15.5-7.3,14.7c-7.6-0.7-9.1-9.7-8.5-15.7c0.7-6.4-9.3-6.3-10,0
						c-1.4,14,9,29.8,24.8,25c6.9-2.1,10.5-8.2,11.1-15.1c0.6-6.4,0.4-14.6-4.7-19.3c-5.3-4.9-15-4.2-21.4-2.3
						c-6.5,1.9-12.5,7.1-12.5,14.4c0,7.1,6.3,14.1,12.2,17.4c6.8,3.8,14.9,3.1,20.7-2.2C1606.3,270.3,1599.2,263.2,1594.5,267.6
						L1594.5,267.6z"/>
				</g>
			</g>
		</g>
		<g id="hat2_2_" opacity="0.78" class="a-hat">
			<g>
				<g>
					<path d="M1121.4,107.7c2,3,1.7,6.7-0.4,9.6c-0.3,0.4-2.8,2.5-2.2,2.8c-0.7-0.3-0.8-2-0.5-2.6c2.8-5.8-5.9-10.9-8.6-5
						c-4.1,8.7,2.9,21.8,13.4,16.1c8.9-4.8,12.6-17.4,7-26C1126.5,97.3,1117.9,102.3,1121.4,107.7L1121.4,107.7z"/>
				</g>
			</g>
			<g>
				<g>
					<path d="M855,195.6c-2.9,5.1-11,10.6-16.9,6.5c-4.5-3.2,1.5-5.3,4.5-5.5c3.8-0.2,7.7,0.5,11.5,0.8c6.4,0.5,6.4-9.5,0-10
						c-7.5-0.6-16.2-2.3-22.7,2.7c-5.5,4.2-6.9,11.8-2.4,17.3c9.7,11.8,28,4.7,34.5-6.7C866.8,195,858.2,190,855,195.6L855,195.6z"
						/>
				</g>
			</g>
			<g>
				<g>
					<path d="M885.7,277.2c-6,1.6-10.2,5.8-12.2,11.7c-1.9,5.7,6.1,8.2,9.1,3.9c31.3-44.7,78.5-80.3,131.2-95.6
						c15.7-4.5,33.2-6.9,48.2,0.9c5.7,2.9,10.8-5.7,5-8.6c-27.8-14.2-60.8-2-87.1,9.9c-27.1,12.3-52,29.4-73.4,50
						c-12.1,11.7-23,24.6-32.6,38.4c3,1.3,6.1,2.6,9.1,3.9c0.9-2.6,2.6-4,5.2-4.7C894.5,285.1,891.9,275.5,885.7,277.2L885.7,277.2z
						"/>
				</g>
			</g>
			<g>
				<path stroke="#000000" stroke-miterlimit="10" d="M846.1,199.9L846.1,199.9C846.1,198.3,844.2,198.3,846.1,199.9
					C844.2,198.3,844.2,199.9,846.1,199.9L846.1,199.9c-1.9,0-1.9,0-3.7,1.9h1.9C844.2,199.9,844.2,199.9,846.1,199.9L846.1,199.9
					l1.9,1.9l0,0l1.9,1.9l0,0v-5.3H848C847.7,200.2,847.7,200.2,846.1,199.9C847.7,198.3,846.1,198.3,846.1,199.9h1.9
					C847.7,198.3,846.1,198.3,846.1,199.9L846.1,199.9v-1.6l0,0c-1.9,0-1.9-1.9-3.7-1.9c0,1.1,0.8,1.9,1.9,1.9l0,0l0,0v3.5l0,0v1.9
					l0,0C847.7,198.3,847.7,200.2,846.1,199.9L846.1,199.9C846.1,201.8,847.7,200.2,846.1,199.9L846.1,199.9v1.9l0,0
					C842.4,198.3,844.2,198.3,846.1,199.9L846.1,199.9l1.9-1.9h5.3l-1.9-1.9l0,0c-1.9,1.9-3.7,3.7-1.9,5.3c1.9,1.6,3.7,3.7,5.3,1.9
					c3.7-3.7,5.3-9,3.7-12.5c-1.9-1.9-3.7-1.9-7.2,0c-2.1,1.6-3.5,4.2-3.7,7.2c-0.3,2.4,0.3,5,1.9,7.2c0,1.9,1.9,1.9,3.7,1.9
					c1.9,0,1.9,0,3.7-1.9c3.5-5.3,1.9-12.5-3.7-14.3c-3.7-1.9-7.2-1.9-9,0c-3.7,1.9-3.7,5.3-5.3,9c0,3.7,1.9,5.3,5.3,7.2
					c2.7,1.9,6.1,1.9,9,0c2.1-1.6,3.5-4.2,3.7-7.2v-3.7c0-1.9-1.9-1.9-3.7-1.9c-1.9,0-3.7-1.9-5.3-1.9c-3.7-0.3-7.2,0.3-10.6,1.9
					c-3.5,1.9-5.3,3.7-5.3,7.2s0,7.2,1.9,9c4.5,4,11.2,3.5,15.1-0.8c1.9-2.1,2.9-5,2.7-8c0-3.5,0-7.2-1.9-9c0-1.1-0.8-1.9-1.6-1.9
					l0,0c-1.9-1.9-1.9-1.9-3.5-1.9c-1.9-0.3-4,0.5-5.3,1.9c-5.3,3.7-9,10.6-5.3,16.2c2.9,5,8.8,7.2,14.3,5.3c1.9,0,1.9-1.9,3.7-1.9
					c1.6-1.1,1.6-3.2,0.5-4.8c-0.3-0.3-0.3-0.5-0.5-0.5c-3.7-5.3-9-7.2-16.2-7.2c-1.9,0-3.5,1.6-3.7,3.5v5.3c0,1.9,1.9,1.9,1.9,3.7
					c1.3,1.3,3.5,2.1,5.3,1.9c1.9,0,3.5-1.6,3.5-3.5C849.8,201.8,848,199.9,846.1,199.9L846.1,199.9z"/>
				<path stroke="#000000" stroke-miterlimit="10" d="M1112.5,121.3L1112.5,121.3v-1.9l0,0c0-1.9-1.9-3.7-1.9-5.3
					c0,1.9,0,1.9-1.9,3.5l0,0c0,1.1-0.8,1.9-1.6,1.9l0,0h-1.9c0-1.9,1.9-1.9,1.9-3.7s1.9-1.9,1.9-3.7l0,0l1.9-1.9h-5.3l3.7,3.7l0,0
					c-1.9,0-3.7-1.9-5.3-3.7v2.4l0,0v1.9l0,0v1.9l0,0c0,1.1-0.8,1.9-1.6,1.9l0,0h-3.7c-1.9,0-3.7,1.6-3.7,3.7s1.6,3.7,3.7,3.7
					c9,0,17.8-10.6,14.3-19.7c0-1.9-3.7-3.7-5.3-3.7c-5.3,1.9-9,5.3-9,10.6C1107.2,119.7,1108.8,121.3,1112.5,121.3
					c5.8,0.3,11.2-2.4,14.3-7.2c1.9-2.7,1.9-6.4,0-9c-1.9-3.7-3.5-5.3-7.2-5.3s-7.2,0-9,1.9c-3.5,1.9-5.3,5.3-7.2,7.2
					c-2.1,2.4-3.5,5.6-3.7,9c0,2.4,0.5,5,1.9,7.2c1.9,1.9,1.9,3.5,5.3,3.5c3.5,1.9,7.2,0,10.6-1.9c3.5-1.9,3.5-7.2,5.3-10.6
					c0.3-1.9-0.5-4-1.9-5.3c-5.3-1.9-10.6,0-12.5,3.7c-3.7,3.5-3.7,9,0,14.3c1.1,1.6,3.2,1.9,4.8,0.5c0.3-0.3,0.5-0.3,0.5-0.5
					C1114.1,125.3,1114.1,123.4,1112.5,121.3L1112.5,121.3z"/>
				<path stroke="#000000" stroke-miterlimit="10" d="M883.5,287.6c5.3-23.4,26.8-39.3,46.5-50.2c12.5-7.2,25-10.6,39.3-16.2
					s30.3-10.6,44.6-16.2c17.8-5.3,34-10.6,51.8-14.3c1.9,0,3.5-1.6,3.7-3.5c0-14.3-26.8-9-34-9c-16.2,1.9-32.1,7.2-46.5,12.5
					c-16.2,5.3-30.5,12.5-44.6,17.8c-14.1,4.8-26.8,12.7-37.4,23.4c-9,12.5-16.2,26.8-17.8,41.2c-1.9,5.3,7.2,7.2,9,1.9
					c3.5-10.9,9-21.2,16.2-30.5c7.2-9,17.8-16.2,28.7-21.5c21.5-12.5,44.6-21.5,69.8-30.3c2.4-0.8,3.7-3.5,2.9-5.8
					c-0.5-2.1-2.7-3.5-4.8-3.2c-25,9-50.2,17.8-73.3,32.1c-14.3,10.6-25,17.8-32.1,26.8c-8,9.6-14.1,20.5-17.8,32.1
					c3.7,0,5.3,1.9,9,1.9c1.9-12.5,7.2-23.4,12.5-34c3.2-5,7.4-9.3,12.5-12.5c5.3-3.7,12.5-7.2,17.8-10.6
					c25.8-12.5,52.9-22.6,80.5-30.5c3.7,0,41.2-7.2,41.2-3.7c1.9-1.9,1.9-3.5,3.7-3.5c-32.1,7.2-64.3,17.8-94.8,28.7
					c-25,9-51.8,19.7-71.4,37.4c-10.4,8.5-17.5,20.7-19.7,34C874.5,291.3,883.5,292.9,883.5,287.6L883.5,287.6z"/>
				<path fill="none" stroke="#000000" stroke-miterlimit="10" d="M924.7,212.4c-8.2,1.9-15.7,6.4-21.5,12.5L887,246.4
					c-9,16.2-17.8,34-21.5,51.8c0,3.5,1.9,5.3,3.7,5.3c12.5,1.9,21.5-10.6,28.7-19.7c8-9.3,16.2-18.3,25-26.8
					c18.9-16.7,40.6-30,64.3-39.3c23.6-9,48.3-14.3,73.3-16.2c5.3,0,12.5,0,16.2-3.5c5.3-5.3,1.9-10.6-3.5-14.3
					c-5.8-3.7-12.7-5.6-19.7-5.3c-7.2-1.6-14.3-2.1-21.5-1.9c-34,0-64.3,14.3-94.8,28.7c-5.3,1.9,0,9,3.7,7.2
					c25-12.5,50.2-23.4,77-26.8c13.3-1.6,26.6-0.3,39.3,3.7c3.5,0,5.3,1.9,9,3.7l1.9,1.9h-17.8c-46.7,3.5-91.1,21.5-127,51.8
					c-9.8,8-18.9,17-26.8,26.8c-3.2,5.6-7.4,10.4-12.5,14.3c-3.7,5.3-7.2,9-14.3,9c1.9,1.9,3.7,3.7,3.7,5.3
					c4.2-17,10.9-33.2,19.7-48.3c4.2-7.4,9-14.6,14.3-21.5c5.3-5.3,10.6-12.5,19.7-12.5C931.6,219.6,930,212.4,924.7,212.4
					L924.7,212.4z"/>
				<path fill="none" stroke="#000000" stroke-miterlimit="10" d="M1051.7,178.7c1.9-17,7.2-33.5,16.2-48.3
					c7.2-12.5,21.5-25,35.9-19.7c0-1.9,1.9-5.3,1.9-7.2c-8.2,0.3-14.9,7.4-14.6,15.7c0,0.8,0,1.3,0.3,2.1c1.9,9,12.5,14.3,21.5,12.5
					c10.6-1.9,17.8-10.6,21.5-21.5s-7.2-17.8-16.2-17.8c-10.6,1.9-21.5,9-23.4,19.7c-1.9,5.3,7.2,7.2,9,1.9
					c1.9-7.2,9-12.5,16.2-14.3c3.7,0,7.2,0,9,3.7c1.9,3.7-1.9,9-3.7,10.6c-3.7,5.3-12.5,10.6-17.8,5.3c-2.7-1.3-4-4.2-3.7-7.2
					c0-3.7,3.7-5.3,5.3-3.7c2.1,0,3.7-1.9,3.7-4c0-1.3-0.8-2.7-1.9-3.2c-17.8-9-35.9,3.5-44.6,17.8c-10.6,16.2-16.2,37.4-19.7,57.1
					c0,1.9,1.6,3.5,3.5,3.7C1049.8,183.7,1051.7,180.3,1051.7,178.7L1051.7,178.7z"/>
				<path fill="none" stroke="#000000" stroke-miterlimit="10" d="M937.2,210.8c-12.5-19.7-32.1-32.1-53.6-41.2
					c-10.6-5.3-21.5-9-34-7.2c-9,1.9-19.7,7.2-23.4,16.2s-3.5,21.5,5.3,28.7c1.9-1.9,1.9-5.3,3.7-7.2c-3.7,0-3.7-3.7-3.7-5.3
					c1.9-3.5,5.3-5.3,9-5.3c7.2-1.9,19.7-1.9,19.7,9c0,9-9,12.5-15.9,12.5c-9-1.9-14.3-10.6-16.2-19.7c0-5.3-9-3.5-9,1.9
					c1.9,10.6,9,21.5,19.7,25c9.8,3.5,21-0.3,26.8-9c3.7-9,1.9-19.7-5.3-25c-5.3-3.5-10.6-3.5-17.8-1.9c-5.3-0.3-10.4,1.9-14.3,5.3
					c-3.7,3.5-7.2,9-5.3,14.3s5.3,9,10.6,9c3.5,0,5.3-5.3,3.5-7.2c-7.2-7.2-5.3-17.8,0-25c9-7.2,21.5-7.2,32.1-3.5
					c12.5,3.5,23.4,10.6,34,17.8s19.7,14.3,25,25C931.6,219.8,940.6,216.1,937.2,210.8L937.2,210.8z"/>
			</g>
		</g>
		<g id="hat1_2_" opacity="0.78" class="a-hat">
			<g>
				<path stroke="#000000" stroke-miterlimit="10" d="M326,214.6c4.5,7.8,9.6,15.4,15,22.6c2.9-2.9,7.6-6,10.5-8.9
					c-10.5-13.6-8.9-33.1-7.6-49.6c1.6-10.5,3.1-21,1.6-31.5c-1.3-4.7-3.4-9.4-6-13.6c-2.9-4.5-4.5-7.6-7.6-12.1
					c-4.7-8.7-7.4-18.5-7.6-28.6c0-2.9-1.6-6-4.5-6c-2.5-1.1-5.6-0.4-7.6,1.6c-6,6-3.1,13.6-1.6,21c3.1,7.6,4.5,15,7.6,22.6
					c4.5,15,8.9,30.2,13.6,46.7c2.9,8.9,16.5,4.5,13.6-3.1c-4.5-13.6-7.6-27-12.1-42.2c-1.6-7.6-4.5-13.6-6-19.7
					c-1.6-3.1-1.6-7.6-3.1-10.5v-4.5l0,0c-4.5-1.6-7.6-3.1-12.1-4.5c1.6,10.5,2.9,19.7,7.6,28.6c1.6,4.5,4.5,8.9,6,13.6
					c3.1,4.5,6,7.6,7.6,12.1c1.6,4.9,1.6,10.1,0,15c0,4.5-1.6,10.5-1.6,15c-1.6,10.5-3.1,19.7-1.6,30.2c1.6,10.5,4.5,21,12.1,30.2
					c4.5,6,15-1.6,10.5-8.9c-4.5-7.8-9.6-15.4-15-22.6c-1.8-3.1-5.6-4.2-8.9-3.1c-3.6,2.2-4.9,6.7-3.1,10.5L326,214.6z"/>
				<g>
					<path d="M381,233c2.6,0.1,5.2,0.1,7.7,0.2c-7.5-0.7-10.8-10.1-10.1-17.6c0.7-7.5,3.6-15.2,1.3-22.3
						c-2.1-6.4-7.7-10.7-12.7-15.2c-28.7-25.4-42.5-63.2-55.2-99.3c5.9,9.5,11.8,19,17.7,28.4c5.3,8.6,10.6,17.1,15.4,26
						c18.1,33.8,27.5,72.3,26.3,110.7c-0.3,9.2-1.2,18.5-4.5,27.1c-9.2,23.9-34.8,37.5-59.7,43.3c-2.9,0.7-6.1,1.5-7.5,4.1
						c-0.8,1.4-0.8,3.1-0.8,4.7c0,3.5,0,7.1,0,10.6c0,2.7,0.2,5.8,2.5,7.3c3.1,2,7-0.6,9.7-3.1c9-8.4,17.9-16.9,26.9-25.3
						c-6.1,3.5-10.9,9-13.7,15.4c34.7-31.6,72.8-59.4,113.5-82.8c4.2-2.4,9.1-6.8,6.8-11.1c-2.4-4.4-9.1-2.4-13.4,0.2
						c-6.2,3.8-12.4,7.5-18.5,11.3"/>
					<g>
						<path d="M381,238c2.6,0.1,5.2,0.1,7.7,0.2c5.5,0.1,7-8.9,1.3-9.8c-5.8-0.9-6.8-7.8-6.4-12.8c0.7-8,3.6-15.7,1.1-23.7
							c-2.2-6.9-7.6-11.7-12.9-16.4c-5.7-5.1-11-10.5-15.8-16.5c-18.9-23.8-29.3-53.2-39.2-81.6c-3,1.3-6.1,2.6-9.1,3.9
							c14.3,23,30,45.7,40.9,70.7c10.4,23.9,16.5,49.8,17.7,75.8c0.6,13.3,0.9,27.5-3.5,40.2c-3.4,9.7-10,17.9-18,24.2
							c-8.5,6.7-18.6,11.4-29,14.7c-8.8,2.8-20.9,3.1-21.8,14.7c-0.7,9-1.3,29.7,13.7,24.5c6.3-2.2,11.4-8.9,16.1-13.2
							c5.9-5.6,11.8-11.1,17.7-16.7c4.1-3.9-1.2-10.8-6.1-7.9c-6.8,4.2-12.2,10-15.5,17.2c-2.4,5.1,3.5,10,7.9,6.1
							c27.5-25,57.1-47.7,88.5-67.6c7.9-5,16-9.5,23.9-14.4c5.6-3.5,12-9.4,9.1-16.7c-2.5-6.2-9.4-7.2-15.1-5.3
							c-8.6,2.8-16.5,9.2-24.2,13.9c-5.5,3.3-0.5,12,5,8.6c6.7-4.1,13.5-9.3,20.7-12.4c2-0.9,4.9-2.5,3.3,0.4
							c-1.4,2.5-6.2,4.3-8.5,5.6c-13.2,7.7-26.2,16-38.8,24.6c-24.9,17.1-48.6,35.9-70.9,56.2c2.6,2,5.2,4,7.9,6.1
							c2.7-5.8,6.5-10.3,12-13.6c-2-2.6-4-5.2-6.1-7.9c-4.7,4.4-9.4,8.9-14.1,13.3c-2.4,2.2-4.7,4.4-7.1,6.7
							c-2.2,2.1-4.7,5.5-7.4,6.7c-1.6,0.7-1.2,1.3-1.8-0.6c-0.3-0.8,0-2.3,0-3.1c0-2.9-0.4-6,0-8.9c0.4-3.2,1.6-3.3,4.6-4
							c2.6-0.7,5.2-1.3,7.8-2.1c18.5-5.5,36.6-15.2,48.1-31.1c13.5-18.6,13.2-43.5,11.4-65.4c-1.9-23.8-7.6-47.2-16.7-69.2
							c-11.1-26.7-27.6-50.7-42.8-75.2c-2.9-4.6-11.1-1.7-9.1,3.9c10.6,30.1,21.7,60.8,41.8,86c4.9,6.2,10.4,11.8,16.4,17
							c2.9,2.6,6.2,5.2,8.3,8.5c2.5,4.1,2.4,8.5,1.7,13c-1.1,7.2-2.8,14.1-0.4,21.3c1.9,5.8,6.2,11,12.5,12c0.4-3.3,0.9-6.5,1.3-9.8
							c-2.6-0.1-5.2-0.1-7.7-0.2C374.6,227.9,374.6,237.9,381,238L381,238z"/>
					</g>
				</g>
				<path stroke="#000000" stroke-miterlimit="10" d="M327.6,199.4c-3.1,4.5-7.6,7.6-10.5,12.1c4.5,1.6,7.6,2.9,12.1,4.5
					c0-43.6,18.1-91.8-6-130.9c-1.6-3.4-5.8-4.7-8.9-3.1s-4.7,5.8-3.1,8.9c8.9,21,21,39.1,34.6,57.2c6,8.9,13.4,16.5,19.7,24.1
					c2.9,4,4.9,8.7,6,13.6c1.6,6,0,12.1,0,16.5c-1.6,13.6-3.1,28.6-4.5,42.2c3.1-3.1,6-4.5,8.9-7.6c-9.4-3.4-18.3-7.4-27-12.1
					c-9.2-4.7-17.7-10.3-25.5-16.5l-1.6-1.6c-0.2-2.2,0.2-4.2,1.6-6c1.6-6,1.6-10.5,2.9-16.5c1.8-11.4,2.7-23,3.1-34.6
					c0.2-12.5-0.2-25-1.6-37.5h-13.6c2.9,21,7.6,42.2,12.1,61.7c4.5,16.5,10.5,33.1,19.7,46.7c5.6,7.6,12.7,13.6,21,18.1
					c3.1,1.6,7.6,1.6,8.9-1.6c1.3-3.1,1.6-7.6,0-8.9c-17-15.2-32.2-32.4-45.1-51.2c-1.6-3.4-5.8-4.7-8.9-2.9s-4.7,5.8-2.9,8.9
					c8.9,18.3,20.6,35.1,34.6,49.6L364,222c-11.2-10.3-19.7-22.6-25.9-36c-3.1,3.1-7.6,6-10.5,8.9c11.6,13.6,25.5,25.2,40.7,34.6
					c2.9,2,6.9,1.1,8.9-1.8c1.6-2.2,1.6-5.1,0-7.1c-5.8-11.2-10.9-22.8-15-34.6c-4.7,1.3-9.4,3.4-13.6,6c4.2,6.9,7.4,14.5,8.9,22.6
					c4.5,0,8.9-1.6,13.6-1.6c-4.5-13.6-8.9-27-15-40.7l-13.6,4.5c3.1,7.1,4.2,15,3.1,22.6c4.5,0,8.9-1.6,13.4-1.6
					c-7.4-14.3-13-29.5-16.5-45.1c-4.2,1.8-8.9,2.7-13.6,3.1c6,15,10.5,28.6,16.5,43.6c4.5-2.9,7.6-4.5,12.1-7.6
					c-10.7-10.7-16.3-25.5-15-40.7c-4.5,1.6-7.6,3.1-12.1,4.5c13.6,13.6,22.6,31.5,28.6,51.2c4.2-1.8,8.9-2.7,13.6-3.1
					c-4.5-16.5-10.5-33.1-15-48c-4.5,2.9-7.6,4.5-12.1,7.6c6,8.9,12.1,18.1,15,28.6c4.5-3.1,7.6-4.5,12.1-7.6
					c-12.1-11.2-22.8-23.7-31.5-37.5l-8.9,8.9c17.4,9.8,30.4,25.9,36,45.1c4.5-2.9,7.6-4.5,12.1-7.6c-12.1-13.6-22.6-28.6-28.6-45.1
					c-4.5,3.1-7.6,4.5-12.1,7.6c7.4,7.6,13.4,16.3,18.1,25.7c2.7,4.2,4.7,8.7,6,13.6c0.2,1.1,0.7,2.2,1.6,3.1v2.9l0,0v-1.6
					c2.9,0,4.5-1.6,2.9-1.6c1.6,1.6,3.8,2.7,6,2.9c-15.4-21.2-28.4-43.8-39.1-67.7c-4.7,1.3-9.4,3.4-13.6,6
					c17.7,28.2,32.8,57.9,45.1,88.7l8.9,22.6c3.1,7.6,4.5,12.1,0,18.1S365,277.3,359,282c-7.6,4.5-13.4,10.5-21,15
					c-4.5,3.1-7.6,4.5-12.1,7.6c-2.9,1.6-6,4.5-8.9,4.5c-2.2,1.1-4.9,1.8-7.6,1.6l0,0c0,0-3.1-1.6-1.6,0l0,0v-1.6
					c-1.6,2.9-1.6,6-3.1,8.9c27-15,51.2-36.2,67.7-63.2h-12.1c2.9,7.6,2.9,15-1.6,21c4.5,2.9,7.6,4.5,12.1,7.6
					c4.5-8.9,7.6-16.5,12.1-25.5c-4.2-1.8-8.9-2.7-13.6-3.1c-0.2,3.1-1.3,6.3-3.1,8.9c0,1.6,0,1.6-1.6,1.6l-1.6,1.6
					c-1.6,1.6-2.9,2.9-4.5,2.9c-6.3,4.9-12.7,9.4-19.7,13.6c-15.2,11.8-27,27.5-34.6,45.1c4.5,0,8.9-1.6,13.6-1.6
					c-1.6-2.9-3.1-6-4.5-8.9c-1.8-3.1-5.6-4.2-8.9-3.1c-2.9,1.3-4.5,4.2-4.5,7.6c3.1,10.5,13.6,10.5,22.6,6c4-1.6,7.6-4.2,10.5-7.6
					c4.7-3.1,8.7-7.4,12.1-12.1c8.9-7.6,18.1-16.5,25.5-24.1c4.7-3.1,8.7-7.4,12.1-12.1c2.9-3.1,7.6-7.6,8.9-12.1
					c1.3-5.1,0.2-10.7-3.1-15c-0.2-1.6-0.7-3.1-1.6-4.5v-4.5c-4.5,1.6-7.6,1.6-12.1,3.1c12.1,12.1,30.2,6,43.6,0
					c4.9-3.1,10.7-4.7,16.5-4.5h7.4c-1.6,0,3.1,1.6,1.6,0l1.6,1.6v1.6c1.6-3.1,3.1-7.6,4.5-10.5c-31.9,14.1-62.3,31.7-90.3,52.7
					c-7.8,6-15.4,12.5-22.6,19.7c3.8,2.7,7.4,5.6,10.5,8.9c12.1-25.7,36.2-46.7,63.2-57.2c8.9-2.9,4.5-15-4.5-13.4
					c-8.9,1.6-16.5,2.9-25.7,4.5c1.3,4.7,3.4,9.4,6,13.6c15-9.2,31.3-16.3,48-21c-1.8-4.2-2.7-8.9-3.1-13.6
					c-2.7,1.6-5.8,2.7-8.9,3.1c-2.9,1.6-6,4.5-4.5,8.9c1.6,2.9,4.5,6,8.9,4.5c2.7-1.6,5.8-2.7,8.9-3.1c3.1-1.6,6-4.5,4.5-8.9
					c-1.6-3.1-4.5-6-8.9-4.5c-18.5,4.7-36.4,12.3-52.7,22.6c-7.6,4.5-3.1,15,6,13.6c9.2-1.3,16.5-3.1,25.7-4.5
					c-1.8-4.2-2.7-8.9-3.1-13.6c-30.2,10.5-57.2,33.1-70.6,63.2c-3.1,7.6,4.5,13.6,10.5,8.9c31.3-28.6,66.8-51.8,105.2-69.3
					c4.5-1.6,6-6,4.5-10.5c-7.6-13.6-25.7-13.6-37.5-7.6c-7.6,2.9-13.6,6-19.7,7.6c-2.9,1.1-5.8,1.8-8.9,1.6h-3.1
					c-1.6,0-1.6-1.6-3.1-3.1c-2.9-4.5-10.5-1.6-12.1,3.1c-1.6,4.7,0,7.6,0,12.1c1.6,3.1,2.9,7.6,4.5,8.9v7.6
					c-3.1,2.9-7.6,6-10.5,8.9c-15,13.4-30.2,27-43.6,40.7c-1.6,1.6-3.1,1.6-3.1,3.1c0,0-2.9,1.6-1.6,1.6l-1.6,1.6c0,0-1.6,1.6-1.6,0
					h-4.5c-4.7,1.3-9.4,3.4-13.6,6l4.5,8.9c1.6,2.9,4.5,2.9,7.6,2.9s4.5-2.9,6-4.5c6-16.5,18.1-30.2,33.1-40.7
					c13.4-8.9,30.2-19.7,31.5-37.5c0-7.6-10.5-10.5-13.6-3.1c-4.5,8.9-7.6,16.5-12.1,25.7c-3.1,7.6,7.6,15,12.1,7.6
					c7.6-10.5,7.6-24.1,1.6-36.2c-2-3.4-6.3-4.5-9.6-2.5c-0.9,0.7-1.8,1.3-2.5,2.5c-15.6,24.6-37.3,44.9-63.2,58.8
					c-3.1,1.8-4.2,5.6-3.1,8.9c3.1,7.6,10.5,8.9,18.1,8.9c7.4-1.6,14.3-4,21-7.6c16.5-9.2,31.9-19.7,46.7-31.5
					c6.9-5.1,11.8-12.5,13.6-21c1.6-8.9-2.9-18.1-6-27c-6.3-18.1-13.9-35.7-22.6-52.7c-8.9-18.1-19.7-37.5-30.2-54.1
					c-1.8-3.1-5.6-4.2-8.9-2.9c-3.1,1.6-6,4.5-4.5,7.6c8.9,21,18.1,40.7,31.5,60.1c1.6,1.6,2.9,4.5,4.5,6c1.6,2.9,3.6,5.4,6,7.6
					c6,4.5,12.1,0,15-6c1.6-4.5,0-8.9-1.6-13.6c-2-5.4-4.5-10.3-7.6-15c-6-10.7-13.2-20.8-21-30.2c-1.6-2.9-6-2.9-8.9-1.6
					c-2.9,1.1-4.2,4.2-3.1,7.1c0,0.2,0.2,0.2,0.2,0.4c7.1,19.2,18.5,36.6,33.1,51.2c4.5,4.5,13.6,0,12.1-7.6
					c-7.6-22.6-22.6-42.2-43.6-52.7c-6-3.1-13.6,2.9-8.9,8.9c9.2,15,20.1,28.8,32.8,41.3c4.5,4.5,13.6,0,12.1-7.6
					c-3.1-13.6-10.5-24.1-18.1-34.6c-4.5-6-13.6,0-12.1,7.6c4.5,16.5,10.5,33.1,15,48c2.9,8.9,16.5,4.5,13.6-3.1
					c-6-21.2-16.8-40.9-31.5-57.2c-2.7-2.9-7.1-2.9-9.8-0.2c-1.3,1.3-2,2.9-2.2,4.7c-1.6,18.1,6,37.5,19.7,51.2
					c2.9,1.6,6,3.1,8.9,1.6c2.9-1.1,4.2-4.2,3.1-7.1c0-0.2-0.2-0.2-0.2-0.4c-6-15-10.5-28.6-16.5-43.6c-1.6-3.1-4.5-6-8.9-4.5
					c-4.5,1.6-6,4.5-4.5,8.9c4.5,16.5,10.5,32.6,18.1,48c2.9,4.5,12.1,4.5,13.4-1.6c1.6-10.5,1.6-19.4-2.9-29.9
					c-1.6-3.1-4.5-6-8.9-4.5c-3.1,1.6-6,4.5-4.5,8.9c4.5,13.6,8.9,27,15,40.7c1.6,2.9,4.5,6,7.6,4.5c2.9,0,6-3.1,6-7.6
					c-1.3-10.7-4.9-21-10.7-29.9c-4.5,2.9-8.9,1.6-12.1,2.9c-2.9,1.6-4.5,4.5-4.5,7.6c4.5,13.6,8.9,25.5,16.5,37.5
					c2.9-3.1,6-6,8.9-8.9c-13.6-8.9-25.7-21-37.5-33.1c-1.8-2.5-5.4-2.9-7.8-1.1c-0.4,0.2-0.7,0.7-1.1,1.1c-2.7,2.2-3.1,6-1.6,8.9
					c6.5,15,16.1,28.4,28.6,39.1c2.9,2.9,7.6,2.9,10.5,0s2.9-7.6,0-10.5l0,0c-13.6-13.4-24.8-29.3-33.1-46.7
					c-4.5,3.1-7.6,4.5-12.1,7.6c13.4,19.7,29,38,46.7,54.1c2.7-3.8,5.6-7.4,8.9-10.5c-13.6-6-21-18.1-27-31.5
					c-7.6-15-10.5-33.1-15-51.2c-2.7-10.3-4.7-21-6-31.5c0.2-4-2.7-7.4-6.7-7.6c-0.2,0-0.7,0-0.9,0c-4,0.2-7.1,3.6-7.6,7.6
					c2.9,24.1,1.6,46.7-1.6,70.6c-1.6,6-1.6,10.5-2.9,16.5s-1.6,12.1,2.9,16.5c3.1,4.5,8.9,7.6,13.6,10.5l13.6,8.9
					c11.2,6.5,22.6,11.8,34.6,16.5c4.5,1.6,8.9-2.9,8.9-7.6c1.6-12.1,3.1-25.7,4.5-37.5c0-6,1.6-12.1,1.6-18.1
					c0-6.3-1.6-12.5-4.5-18.1c-4.5-8.9-13.6-18.1-19.7-25.5c-6.9-8.7-13.6-17.7-19.7-27c-7.4-10.7-13.6-22.3-18.1-34.6
					c-4.5,3.1-7.6,4.5-12.1,7.6c10.5,16.5,12.1,36.2,10.5,55.6c-1.6,22.6-6,45.1-6,67.7c0.2,3.8,3.4,6.9,7.1,6.7
					c1.8,0,3.6-0.9,4.7-2.2l12.1-12.1c2.9-2.7,3.1-7.4,0.2-10.3l-0.2-0.2C335,197.8,328.9,197.8,327.6,199.4L327.6,199.4z"/>
				<path stroke="#000000" stroke-miterlimit="10" d="M306.4,213c6-48.9,7.6-98.3,4.5-147.5c-1.6,0-4.5,1.6-6,1.6
					c25.7,40.7,51.4,81.1,75.3,123.3c3.1,3.1,8.9,0,6-2.9c-25.5-40.7-51.2-81.3-75.3-123.3c-1.6-2.9-7.6-1.6-6,1.6
					c2.9,49.2,1.6,98.5-4.5,147.5c-0.2,1.6,1.1,3.1,2.7,3.4c1.6,0.2,3.1-1.1,3.4-2.7C306.6,213.5,306.6,213.2,306.4,213L306.4,213z"
					/>
				<path stroke="#000000" stroke-miterlimit="10" d="M286.9,282.3c-0.2,10.9,0.2,22.1,1.6,33.1c0,6,1.6,10.5,1.6,16.5
					c0,4.5,0,10.5,2.9,13.6c4.5,8.9,18.1,3.1,24.1-1.6c7.8-4.9,15.4-10.5,22.6-16.5c31.5-26.8,65.2-50.9,100.8-72.2
					c4.5-3.1,10.5-6,15-8.9c4.7-1.1,7.8-5.6,7.6-10.5c-1.6-4.5-7.6-7.6-12.1-10.5c-6-3.1-10.5-7.6-16.5-10.5c-3.1-2.9-7.6,3.1-3.1,6
					c4.2,2.7,8.3,5.6,12.1,8.9c1.6,1.6,4.5,2.9,6,4.5c1.6,0,4.5,2.9,6,4.5c0,1.6-7.6,4.5-8.9,6c-4.5,2.9-7.6,4.5-12.1,7.6
					c-15,8.9-31.5,19.7-46.7,30.2c-15.2,10.3-29.7,21.2-43.6,33.1c-7.6,6-13.6,12.1-19.7,16.5c-6,4.5-13.6,10.5-22.6,12.1
					c-2.9,0-2.9,0-4.5-3.1c0-2.9-1.6-4.5-1.6-7.6c-1.3-5.4-1.8-10.9-1.6-16.5c-1.3-10.9-1.8-22.1-1.6-33.1
					C294.5,277.6,287.2,277.6,286.9,282.3L286.9,282.3z"/>
				<path stroke="#000000" stroke-miterlimit="10" d="M321.6,292.8c13-7.6,24.4-17.9,33.1-30.2c0.9-1.8,0-3.8-1.6-4.5
					s-3.6,0-4.5,1.6c-8.9,10.9-19.7,20.8-31.5,28.6C314,289.6,318.4,295.7,321.6,292.8L321.6,292.8z"/>
				<path stroke="#000000" stroke-miterlimit="10" d="M392.2,234c11.8-2.9,23.9-4.5,36-4.5c4.5,0,4.5-7.6,0-7.6
					c-13.6,0-25.5,0-39.1,4.5C386.1,228,387.7,235.4,392.2,234z"/>
				<path stroke="#000000" stroke-miterlimit="10" d="M311.1,65.6c1.6-3.1-1.6-7.6-4.5-8.9c-4.5-1.6-7.6,0-12.1,2.9
					c-3.1,3.1-4.5,7.6-6,10.5c-1.6,4.5-2.9,8.9-4.5,13.4c-2.9,7.6-6,16.5-13.4,22.6c-6,4.5-15,7.6-21,1.6c-3.1-3.1-8.9,1.6-4.5,4.5
					c12.1,10.5,30.2,2.9,37.5-8.9c4.5-7.6,7.6-16.5,10.5-24.1c1.3-4,2.7-8,4.5-12.1c0-1.6,1.6-3.1,3.1-4.5c1.6,0,1.6,0,1.6,1.6
					C302.1,68.7,309.5,70.2,311.1,65.6L311.1,65.6z"/>
				<path stroke="#000000" stroke-miterlimit="10" d="M315.5,64c-6-6-15-2.9-19.7,4.5s-6,16.5-7.6,25.7s-2.9,16.5-8.9,24.1
					c-4.5,6-10.5,10.5-18.1,8.9c-2-0.2-4,1.3-4.2,3.4c-0.2,1.8,0.9,3.6,2.7,4.2c16.5,3.1,28.6-10.5,33.1-25.5c2.7-8.9,4.7-17.9,6-27
					c1.1-4,2.7-8,4.5-12.1c1.6-3.1,6-4.5,7.6-3.1C314,71.4,318.4,66.9,315.5,64L315.5,64z"/>
				<path stroke="#000000" stroke-miterlimit="10" d="M311.1,61.1c-7.6,3.1-13.4,8.9-16.5,16.5c-3.1,8.9-3.1,18.1-3.1,28.6
					s0,19.7-3.1,30.2c-2.9,8.7-8.7,16.3-16.5,21c-1.3,1.1-1.8,3.1-0.7,4.5c1.1,1.3,3.1,1.8,4.5,0.7c0.2-0.2,0.4-0.4,0.7-0.7
					c14.5-11.8,22.8-29.5,22.6-48c0-10.5-1.6-19.7,1.6-30.2c1.6-7.6,6-15,13.6-16.5C316.9,67.1,315.5,59.5,311.1,61.1L311.1,61.1z"
					/>
				<path stroke="#000000" stroke-miterlimit="10" d="M344.1,205.4c1.8-6.5,2.7-13,3.1-19.7c-1.6,0-4.5,1.6-6,1.6
					c4.5,4.5,7.6,10.5,12.1,15c1.6,1.6,3.1,2.9,6,0c4-4.5,9.4-7.4,15-8.9c-1.6-1.6-3.1-3.1-4.5-4.5c-3.1,6-7.6,12.1-6,19.7
					c0.2,6.3,4.5,11.8,10.5,13.6c-0.2-2.7,0.2-5.1,1.6-7.6c-7.1-0.2-14.1-1.3-21-2.9c-1.6,0-4.5,1.6-4.5,2.9c0.2,4.5-2.2,8.5-6,10.5
					c1.6,1.6,3.1,1.6,6,2.9v-15c-0.2-1.6-1.3-2.9-3.1-3.1c-5.6-0.2-11.2-1.1-16.5-2.9v7.6c7.8,0,15.4-1.6,22.6-4.5
					c2-0.7,3.1-2.7,2.7-4.7c-0.4-1.8-2.2-2.9-4-2.7c-6,1.6-13.6,2.9-21,4.5c-4.5,0-4.5,6,0,7.6c5.6,0.2,11.2,1.1,16.5,3.1l-3.1-3.1
					v15c0,2.9,3.1,4.5,6,2.9c6-2.9,10.5-8.9,8.9-16.5c-1.6,1.6-2.9,2.9-4.5,2.9c7.4,1.8,15,2.7,22.6,3.1c4.5,0,4.5-6,1.6-7.6
					c-2.9-1.3-4.5-4.2-4.5-7.6c0-4.5,2.9-8.9,6-13.6c0.9-1.6,0.2-3.6-1.6-4.5c-0.9-0.4-2-0.4-2.9,0c-6.3,2.9-12.3,6.5-18.1,10.5h6
					c-4.5-4.5-7.6-10.5-12.1-15c-1.6-3.1-7.6-1.6-6,1.6c0.2,6-0.2,12.1-1.6,18.1C335.2,208.5,342.8,210.1,344.1,205.4L344.1,205.4z"
					/>
				<path stroke="#000000" stroke-miterlimit="10" d="M354.6,208.5L354.6,208.5v-6l0,0v-3.1l0,0c0-1.6,0-4.5-3.1-4.5
					c-1.6,0-4.5,0-4.5,3.1c-1.6,9.4,4.9,17.9,14.1,19.4c0.2,0,0.7,0,0.9,0.2c3.1,0,4.5-4.5,3.1-6l0,0V210l0,0v-1.6l0,0v-3.1l0,0
					v-1.6l0,0c-1.6,0-4.5-1.6-6-1.6c0,6-1.6,13.6-1.6,19.7c-0.2,1.6,1.1,3.1,2.7,3.4s3.1-1.1,3.4-2.7c0-0.2,0-0.4,0-0.4
					c0-6,1.6-13.6,1.6-19.7c0-1.6-1.3-2.9-3.1-3.1c-1.6-0.2-3.4,0.4-4.5,1.6c-2.9,6-2.9,13.6,1.6,18.1c1.6-1.6,1.6-4.5,3.1-6h-4.5
					l-1.6-1.6l0,0v-3.1l0,0v-1.6l0,0c-3.1,0-4.5-1.6-7.6-1.6c-1.6,6,0,10.5,1.6,16.5c0,1.6,2.9,1.6,4.5,1.6
					C356.2,213,356.2,211.5,354.6,208.5L354.6,208.5z"/>
				<path stroke="#000000" stroke-miterlimit="10" d="M348.6,205.4c-1.6,2.7-2.7,5.8-2.9,8.9c2.7-0.2,5.1,0.2,7.6,1.6v-21
					c-0.2-1.6-1.6-2.9-3.4-2.7c-1.6,0.2-2.7,1.3-2.7,2.7v22.6c-0.2,1.6,1.1,3.1,2.7,3.4s3.1-1.1,3.4-2.7c0-0.2,0-0.4,0-0.4V195h-7.6
					v21c0.2,1.6,1.6,2.9,3.4,2.7c1.6-0.2,2.7-1.3,2.7-2.7c1.6-2.7,2.7-5.8,3.1-8.9c0-1.6,0-4.5-3.1-4.5L348.6,205.4L348.6,205.4z"/>
			</g>
		</g>
	</g>
</g>
</svg>
