<?xml version="1.0" encoding="utf-8"?>
<!-- Generator: Adobe Illustrator 24.1.2, SVG Export Plug-In . SVG Version: 6.00 Build 0)  -->
<svg id="power" xmlns="http://www.w3.org/2000/svg" viewBox="0 0 108.51 65.85">
    <g data-name="electricity">
        <g>
            <g>
                <path
                    d="M64.81,33.08A26.52,26.52,0,0,1,91.53,6.75L106,6.86a2.49,2.49,0,0,1,2.47,2.51A10.7,10.7,0,0,1,97.73,20L102,20a2.49,2.49,0,0,1,2.47,2.51A10.7,10.7,0,0,1,93.66,33.13l4.22,0a2.48,2.48,0,0,1,2.47,2.51A10.7,10.7,0,0,1,89.58,46.28l-24.77-.23Z"
                    fill="#e9e8e8" />
                <path
                    d="M43.7,33.08A26.53,26.53,0,0,0,17,6.75l-14.5.11A2.48,2.48,0,0,0,0,9.37,10.7,10.7,0,0,0,10.77,20L6.55,20a2.48,2.48,0,0,0-2.47,2.51A10.7,10.7,0,0,0,14.85,33.13l-4.23,0a2.48,2.48,0,0,0-2.46,2.51A10.69,10.69,0,0,0,18.93,46.28l24.77-.23Z"
                    fill="#e9e8e8" />
            </g>
            <g>
                <path d="M25.24,32.92A29.75,29.75,0,1,1,55,62.67,29.75,29.75,0,0,1,25.24,32.92" fill="#fbbb21" />
                <path d="M25.24,32.92A29.75,29.75,0,1,1,55,62.67,29.75,29.75,0,0,1,25.24,32.92Z" fill="none"
                    stroke="#ededed" stroke-miterlimit="10" />
                <polygon points="54.98 13.55 54.98 29.55 66.29 29.55 54.98 52.79 54.98 36.8 43.7 36.8 54.98 13.55"
                    fill="#0b1213" />
                <path
                    d="M52.46,13.55v16A2.56,2.56,0,0,0,55,32.09H66.29L64.1,28.27c-.53,1.07-1,2.15-1.57,3.22L59,38.77l-3.78,7.77-2.28,4.7c0,.09-.08.18-.13.27l4.73,1.28v-16A2.56,2.56,0,0,0,55,34.26H43.7l2.19,3.82,1.56-3.21L51,27.6l3.78-7.77q1.14-2.35,2.29-4.71c0-.1.09-.19.14-.29a2.7,2.7,0,0,0,.25-1.95,2.52,2.52,0,0,0-1.17-1.52,2.56,2.56,0,0,0-2-.26,2.49,2.49,0,0,0-1.52,1.17l-1.56,3.21-3.54,7.28-3.78,7.76q-1.14,2.36-2.29,4.71c0,.1-.09.19-.13.29a2.52,2.52,0,0,0,0,2.56,2.55,2.55,0,0,0,2.19,1.26H55L52.46,36.8v16a2.55,2.55,0,0,0,3.22,2.45,2.48,2.48,0,0,0,1.52-1.17l1.56-3.22q1.77-3.63,3.53-7.28l3.78-7.77,2.28-4.69c0-.09.08-.19.13-.28a2.59,2.59,0,0,0,.35-1.28,2.62,2.62,0,0,0-.35-1.28A2.57,2.57,0,0,0,66.29,27H55l2.54,2.54v-16a2.54,2.54,0,1,0-5.08,0"
                    fill="#0b1213" />
            </g>
        </g>
        <rect id="electricityRect" x="3.41" width="103.67" height="65.85" fill="none" />
    </g>
</svg>