<?xml version="1.0" encoding="utf-8"?>
<!-- Generator: Adobe Illustrator 24.1.2, SVG Export Plug-In . SVG Version: 6.00 Build 0)  -->
<svg id="heat" xmlns="http://www.w3.org/2000/svg" viewBox="0 0 108.51 65.85">
    <g data-name="heat">
        <g data-name="heat">
            <g>
                <path
                    d="M64.81,35A26.52,26.52,0,0,1,91.53,8.67L106,8.78a2.49,2.49,0,0,1,2.47,2.5A10.71,10.71,0,0,1,97.73,21.9l4.23,0a2.49,2.49,0,0,1,2.47,2.5A10.7,10.7,0,0,1,93.66,35.05l4.22,0a2.48,2.48,0,0,1,2.47,2.5A10.68,10.68,0,0,1,89.58,48.19L64.81,48Z"
                    fill="#e9e8e8" />
                <path
                    d="M43.7,35A26.52,26.52,0,0,0,17,8.67l-14.5.11A2.48,2.48,0,0,0,0,11.28,10.7,10.7,0,0,0,10.77,21.9l-4.22,0a2.48,2.48,0,0,0-2.47,2.5A10.7,10.7,0,0,0,14.85,35.05l-4.23,0a2.48,2.48,0,0,0-2.46,2.5A10.68,10.68,0,0,0,18.93,48.19L43.7,48Z"
                    fill="#e9e8e8" />
            </g>
            <g>
                <path d="M84,33.4A29.75,29.75,0,1,1,54.25,3.65,29.75,29.75,0,0,1,84,33.4" fill="#fff042" />
                <circle cx="54.25" cy="33.4" r="29.75" fill="none" stroke="#ededed" stroke-miterlimit="10"
                    stroke-width="1.93" />
                <path
                    d="M64.81,38.32a11.68,11.68,0,1,1-5-15.75,11.67,11.67,0,0,1,5,15.75M47.4,46.47A15.27,15.27,0,1,1,68,40a15.28,15.28,0,0,1-20.6,6.5M73.75,43c.49-.94-2.56-3.37-2.23-4.34s4.22-1.1,4.39-2.11-3.47-2.4-3.47-3.44,3.68-2.35,3.53-3.37-4-1.2-4.36-2.19,2.78-3.37,2.31-4.3-4.21.11-4.82-.74,1.61-4.06.87-4.81-4,1.42-4.81.79.28-4.34-.66-4.83-3.37,2.56-4.34,2.23-1.1-4.23-2.11-4.4-2.4,3.48-3.43,3.47-2.35-3.68-3.38-3.52-1.2,4.05-2.19,4.36-3.36-2.78-4.3-2.32.11,4.22-.74,4.82-4.06-1.6-4.8-.87,1.41,4,.79,4.82-4.35-.28-4.84.66,2.56,3.36,2.23,4.34-4.22,1.1-4.39,2.11,3.47,2.4,3.46,3.43-3.67,2.35-3.52,3.38,4.05,1.2,4.36,2.19-2.78,3.36-2.31,4.3,4.21-.11,4.82.74-1.61,4.05-.88,4.8,4-1.41,4.82-.79-.28,4.35.66,4.83,3.37-2.55,4.34-2.23,1.1,4.23,2.11,4.4,2.4-3.48,3.43-3.47,2.35,3.68,3.38,3.53,1.2-4,2.19-4.36,3.36,2.78,4.3,2.31-.11-4.22.74-4.82,4,1.61,4.8.87-1.41-4-.79-4.81,4.35.28,4.84-.66"
                    fill="#0b1213" />
            </g>
        </g>
        <rect id="heatRect" x="2.42" width="103.67" height="65.85" fill="none" />
    </g>
</svg>