<svg id="question" xmlns="http://www.w3.org/2000/svg" viewBox="0 0 434 434">
  <g id="questionMark">
    <circle cx="217" cy="217" r="217" style="fill: #ffedd5"/>
    <g>
      <path d="M308.28,160.42v-.75c0-49-38.86-79.23-94.31-79.23-32,0-57.42,9-77.79,23-11.84,8.12-12.91,25.91-4.23,37.36l6.33,8.35c8.67,11.44,24.2,12.53,36.78,5.58,11.46-6.33,23.08-9.75,34-9.75,18.11,0,28.29,7.91,28.29,20.75v.37c0,16.23-15.47,39.41-59.23,43.18l-1.5,1.7c-.84.93.21,13.21,2.33,27.41L180.7,250c2.12,14.2,14.06,25.71,26.66,25.71s23.84-5.4,25.08-12.07,2.27-12.07,2.27-12.07C276.58,241.33,308.28,208,308.28,160.42Z" style="fill: #705452"/>
      <path d="M195.07,297.54a26,26,0,0,0-26,26v12.14a26,26,0,0,0,26,26h22.32a26,26,0,0,0,26-26V323.54a26,26,0,0,0-26-26Z" style="fill: #705452"/>
    </g>
  </g>
</svg>
