<?xml version="1.0" encoding="utf-8"?>
<!-- Generator: Adobe Illustrator 24.1.2, SVG Export Plug-In . SVG Version: 6.00 Build 0)  -->
<svg version="1.1" id="Layer_1" xmlns="http://www.w3.org/2000/svg" xmlns:xlink="http://www.w3.org/1999/xlink" x="0px"
	y="0px" viewBox="0 0 1920 1080" enable-background="new 0 0 1920 1080" xml:space="preserve">
	<g id="startSVG">
		<image overflow="visible" width="1920" height="1080" xlink:href="assets/intro.png"
			transform="matrix(0.9991 0 0 0.9991 0.7778 0)">
		</image>
		<g opacity="0.57">
			<rect fill="#F3D1B9" width="1919" height="1079" />
		</g>
		<g>
			<path fill="#7E441A" d="M1422.1,522.2l-291.7,364.7c-2.6,3.2-2.1,8,1.2,10.5l0,0c3.2,2.6,8,2.1,10.5-1.2l291.7-364.7
		c2.6-3.2,2.1-8-1.2-10.5l0,0C1429.4,518.5,1424.6,519,1422.1,522.2z" />
			<path fill="#FFEDD5" stroke="#7E441A" stroke-width="5" stroke-miterlimit="10" d="M1416.5,533.5c-31.6-22.3-77.2-50.2-136-73
		c-61.3-23.7-184.4-71.3-317-38c-63.6,16-92.1,41.3-152.3,31.9c-35.8-5.6-46.3-17.8-106.5-34.1c-22-6-72.2-19.5-122.2-20.8
		c-113.4-2.9-168.3,58.6-191,37c-24.6-23.5,17.1-118.1,72-184c14.5-17.4,136.7-164.1,271-140c108,19.4,147.6,135.6,224,115
		c38.6-10.4,56.1-47.6,105.6-45.9c29.3,1,46.5,19.3,64,23.7c133.2,34,190.6-26.4,282.4,18.2c11.1,5.4,23.7,12.3,36.9,22.2
		c57.9,43.5,81.8,103.8,91.8,137.7" />

			<ellipse transform="matrix(0.5993 -0.8005 0.8005 0.5993 224.2429 1369.0087)" fill="#FFDEAA" stroke="#7E441A"
				stroke-width="5" stroke-miterlimit="10" cx="1479.6" cy="460.5" rx="97" ry="5.8" />
		</g>
		<g>
			<circle fill="#C6C6C5" cx="1725.7" cy="204" r="162.3" />
			<circle fill="#C6C6C5" cx="1725.7" cy="204" r="172" />
			<circle fill="#4A4A49" stroke="#C6C6C5" stroke-width="1.8563" stroke-miterlimit="10" cx="1725.7" cy="204"
				r="150.9" />
			<g>
				<path fill="#C6C6C5" d="M1692.8,313.2c1.4,2.1,0.4,4.6-1.1,7.3c-0.6,1-2,3.4-2.8,4.4c-2,2.8-3.9,6.1-6.1,7.7
			c-1.1-0.7-1.6,0.2-2.5,0.1c-0.2,0.1-0.3,0.2-0.4,0.5c-0.9,0.1-1.7,0-2.8,0c-0.5,0-0.8,0.3-1.1,0.2c-0.6-0.1-1.2-0.6-1.9-0.7
			c-0.5,0-0.9,0-1.5,0c-0.2,0-1.6,0.1-1.8-0.3c-0.8,0.1-1.8-0.6-2.5-0.3c-0.2-0.3-0.6-0.8-0.9-0.2c-0.1-0.3-0.3-0.5-0.8-0.7l0.1-0.2
			c-1.6-2-2.4-4.1-3.4-6.2c-0.3,0-0.2-0.3-0.5-0.3c0.3-0.5,0.1-0.8,0-1.2c0.4-1,1.1-1.2,1.8-1.5c0.1-0.1,0.1-0.2-0.1-0.3
			c0.3-0.2,0.5,0,0.8-0.1l0.2-0.5c1.7-0.4,4.1,0.5,5.9,0c1.3,0.6,2.4,0.7,3.2,0.2c0.9,0.4,1.4,0,2.1,0.3c0.3-0.1,0.2-0.2,0.5-0.3
			c0.8,0.6,1.4-0.2,2.2-0.3c0.1-0.2-0.4-0.3,0-0.6c0.7-0.8,2-3.4,2.5-4.5c0.2,0.1,0.2-0.3,0.4,0l0.4-0.8c-3.3-0.7-6.1,0.1-9.6-1.1
			c-1,0.5-2.2-0.8-2.9-1.3l0.2-0.4c-1.1-0.7-1.1-1.6-2-2.3c0.5-0.6-0.4-0.8-0.4-1.2c0.4-0.2,0.2-0.2,0.6-0.6
			c0.1-0.2-0.3-0.3-0.1-0.5c-0.1,0.2-0.5,0-0.8-0.1c0-0.2,0-0.5,0-0.8c-0.1-0.4,0.2,0,0.5-0.1c0-0.2-0.1-0.4-0.4-0.6
			c0.1-0.4,0-0.8,0.4-1.1c5.9,2.8,11.2,0.8,16.5,2.5c0.3,0,1-1.7,1.4-1.6c-0.1-1,1-1.3,1-2.3c-0.4-0.6-1.7-0.9-2.3-0.9
			c-2.9-1-6-2.2-8.6-2.2c-0.3-0.4-0.7-0.3-0.8-0.6c-0.1,0.2-0.3,0.1-0.6,0.2c-0.4-0.2-0.5-0.5-0.5-0.7c-0.2,0-0.2,0.1-0.4,0.1
			c-0.2-0.7-0.4-0.8-0.9-1.2c-0.2,0,0.1,0.2-0.2,0.3c-0.2-0.1,0-0.2-0.2-0.3c-0.1-0.4,0.4,0.1,0.3-0.3c-0.1-0.3-0.6-0.2-0.2-0.7
			c-0.8,0-1.2-0.4-1.5-1.1c0.3-0.2-0.1,0.3,0.3,0.3c0.1-0.7,0-0.5,0.1-0.9c-0.3-0.2-0.2,0.3-0.6,0c0.1-0.1,0.1-0.2-0.1-0.3
			c0-0.3,0.4,0.3,0.4-0.2c-0.6-0.2-0.3-0.8-1-0.9c0.2-0.4,0.2-1.1,0.7-1.1c0-0.2-0.3-0.4-0.4-0.6c0.3-0.2,0.7,0.1,0.9-0.5
			c0.2-0.2,0.1-0.3-0.3-0.4c0.7-0.2,0.4-0.5,0.3-0.9c0.4,0.2,0.8,0.2,1.2,0c1,0.4,2,0.7,2.8,0.6c3.1,1.3,6,1.5,8.9,2.6
			c0.1-0.1,0-0.2-0.1-0.3c0.8,0.2,2.1,1,3.1,0.6c0.1,0.1,0.2,0.1,0.1,0.3c0.9-0.7,2,0.4,2.7,0.5c0.2,0.1,0.1-0.2,0.3-0.2
			c0.3,0,0,0.2,0.2,0.3c-0.1,0,1,0.2,1,0.2c0.7,0.4,1.5,0.9,1.9,1.5c0.8,0.3,1.2,0.7,1.4,1.4c0.3,0.2,0.4-0.1,0.5,0.2
			c1.2,1.6,2.5,3.2,2.8,5.2C1697.5,306.7,1694.2,311.3,1692.8,313.2z" />
				<path fill="#C6C6C5" d="M1629.7,282.2c1.6-1.6,3.7-3,4.6-4.6c2.1-2.3,6.3-6.2,9-8.8c0.9-0.8,1.7-1.9,2.4-2
			c0.5-0.2,0.8,0.3,1.2-0.3c0.3,0.4,0.6-0.2,0.5,0.4c0.9,0.2,1.8,0.9,2.6,1.4c1.1,0.1,0.9-0.6,1.5,0.5c1.4,0.7,2.5,2.9,3.6,4.5
			l-0.3,0.3c0.4,0.3,0.3,0,0.5,0.4c-0.1,0.2-0.2,0.1-0.4-0.1c-1,3.9-5.3,11.5-7.1,15.2c-2.6,4-5.3,8.8-6.3,12.6
			c0.8,0.1,1.2-1.3,2-0.8c1.3-1.4,3.5-3.3,3.8-4.6c1.8-1.2,2.6-3.2,4.8-4.7c1.2-2.3,6.4-6,8.1-8.2c0.3,0.4,0.4-0.3,0.6,0.2
			c0-0.3,0-0.5,0.1-0.6c0.6-0.9,1.3-0.9,2-1.4c0.6,0.1,1.2,0.3,1.8,0c1.6,1.1,2.7,1.4,4.1,2.1c0,0,0,0.2-0.1,0.3c1,1,1.1,1.8,2.3,2
			c0,0.3-0.2,0.7,0.4,1c-0.4,0.7-1.1,0.8-1,1.7c-0.3-0.4-0.5,0.1-0.7-0.4c-3,2.9-8.5,9.2-11.1,12.7c-0.3,0.4-0.3,0.2-0.4,0.5
			c-1.3,1.8-3.6,3.2-4.6,5.1c-0.2,0.5-0.3-0.3-0.5,0c-0.5,0.2-0.1,0.4-0.3,0.6c-0.7-0.1-1.9,1.8-2.4,2.4c-0.2-0.1-0.3-0.1-0.4-0.2
			c-2.3,1.8-5.3,3.3-7.9,2.7c-0.6,0.4-1.1-0.1-2.2-0.2c-0.7,0-1.3,0-1.8-0.2c-2.2-0.8-4-2.8-6-4.8c0.8-0.1-0.4-0.2,0.2-0.7
			c-0.7-0.5-0.9-1-0.7-1.5c-0.2,0.1-0.5-0.1-0.6-0.3c-0.1-0.2-0.1-0.3-0.2-0.5c-0.3-0.3,0.1-0.1,0.2,0c0.2-0.3,0-0.5-0.3-0.4
			c-0.3-0.5-0.3-1-0.5-1.5c0.8-2,2.4-5.2,2.6-7.3c1.1-0.9,0.4-1.7,1.3-2.7c0-0.1,0-0.2,0-0.3c-0.2,0.2-0.4,0.3-0.6,0.5
			c-1.3,0-5.4,5.1-6.5,5.8c-1.2,0.6-2.3,0.2-3.4,0.5c-0.5-0.2-0.8-0.6-1.5-0.9c-0.2-0.1-0.5,0-0.7-0.1c-0.3,0-0.5-0.4-0.7-0.5
			c0,0,0,0-0.1,0c0,0-0.1,0.1-0.2,0.1c-0.1-0.1,0.2-1.1-0.3-0.4c-0.2-0.5-0.5-1-0.8-1.5c0.1-0.7,0.3-2.1,0.4-2.3c0.2-0.1,1-1,1.8-2
			c0.4-0.6,1-1.2,1.6-1.8l-0.1,0c1.3-1.1,3.9-3.4,4.2-4.2C1628,283.9,1629.2,283.1,1629.7,282.2z" />
				<path fill="#C6C6C5" d="M1631.2,266.8c-0.3,2.5-2.7,3.8-5.6,4.8c-1.1,0.3-3.8,1.3-5,1.5c-3.3,0.8-6.9,2.1-9.6,1.9
			c-0.4-1.2-1.4-0.8-2-1.5c-0.2-0.1-0.4,0-0.6,0.1c-0.7-0.5-1.3-1.2-2.1-1.8c-0.4-0.3-0.8-0.3-1-0.6c-0.4-0.4-0.5-1.2-1-1.7
			c-0.4-0.3-0.7-0.5-1.1-1c-0.1-0.1-1.3-1-1.1-1.4c-0.7-0.4-1-1.7-1.7-1.8c0-0.4,0.1-1-0.6-0.7c0.1-0.3,0.1-0.6-0.1-1l0.2-0.1
			c0.1-2.6,0.8-4.7,1.4-6.9c-0.2-0.2,0.1-0.3-0.1-0.6c0.6-0.2,0.6-0.6,0.8-0.9c1-0.5,1.6-0.2,2.3,0c0.1,0,0.2-0.1,0.1-0.3
			c0.3,0.1,0.4,0.3,0.7,0.5l0.5-0.2c1.6,0.8,2.8,3.1,4.5,3.8c0.6,1.3,1.3,2.1,2.3,2.2c0.4,0.9,1,0.9,1.4,1.6c0.3,0.1,0.3,0,0.6,0.1
			c0.3,1,1.2,0.7,1.8,1.2c0.2-0.1-0.1-0.5,0.4-0.5c1-0.1,3.8-1.3,4.9-1.8c0.1,0.2,0.4-0.1,0.3,0.3l0.8-0.4c-2.1-2.6-4.7-3.9-6.6-7.1
			c-1.1-0.2-1.1-2-1.3-2.9l0.4-0.2c-0.4-1.2,0.2-2,0-3.1c0.8-0.2,0.1-0.9,0.5-1.2c0.4,0.1,0.3,0,0.8-0.1c0.2-0.1-0.1-0.4,0.2-0.5
			c-0.2,0-0.4-0.3-0.5-0.6c0.1-0.1,0.3-0.4,0.5-0.5c0.2-0.3,0.2,0.1,0.5,0.2c0.1-0.1,0.2-0.4,0.1-0.8c0.4-0.3,0.5-0.5,1-0.6
			c2.7,5.9,8.1,7.9,11,12.6c0.2,0.2,1.9-0.7,2.1-0.3c0.6-0.9,1.6-0.3,2.2-1.1c0.1-0.7-0.7-1.8-1.2-2.2c-1.5-2.6-3.1-5.6-5.2-7.3
			c0-0.5-0.3-0.7-0.3-1c-0.2,0-0.3-0.1-0.6-0.2c-0.1-0.4-0.1-0.7,0.1-0.8c-0.1-0.1-0.2,0-0.3-0.2c0.3-0.6,0.1-0.9,0.1-1.5
			c-0.1-0.1-0.1,0.2-0.4,0.1c0-0.2,0.1-0.2,0-0.4c0.2-0.3,0.2,0.3,0.4,0c0.1-0.3-0.3-0.6,0.3-0.6c-0.5-0.5-0.7-1.1-0.5-1.8
			c0.3,0.1-0.3,0.2,0.1,0.4c0.6-0.5,0.3-0.4,0.7-0.6c-0.1-0.3-0.4,0.1-0.4-0.4c0.1,0,0.2-0.1,0.1-0.3c0.2-0.2,0.1,0.5,0.4,0.1
			c-0.3-0.5,0.3-0.8-0.2-1.3c0.4-0.2,0.9-0.7,1.3-0.3c0.1-0.1,0-0.5,0.1-0.8c0.3,0.1,0.5,0.6,1,0.2c0.3-0.1,0.3-0.2,0.1-0.5
			c0.6,0.3,0.6-0.1,0.8-0.5c0.2,0.4,0.5,0.7,1,0.8c0.5,1,1.1,1.9,1.8,2.3c1.5,3,3.6,5,5,7.8c0.1-0.1,0.1-0.1,0.1-0.3
			c0.5,0.7,0.9,2.1,2,2.4c0.1,0.1,0,0.2-0.1,0.3c1.1,0.1,1.3,1.5,1.8,2.1c0.1,0.2,0.2-0.1,0.3,0.1c0.2,0.2-0.1,0.1-0.1,0.3
			c0-0.1,0.6,0.8,0.6,0.8c0.3,0.7,0.6,1.7,0.4,2.4c0.4,0.7,0.5,1.4,0.2,1.9c0.1,0.3,0.3,0.2,0.2,0.5c-0.1,2-0.2,4-1.3,5.7
			C1639,264.8,1633.5,266.2,1631.2,266.8z" />
				<path fill="#C6C6C5" d="M1627.5,207.8c0.7-0.1,1-0.8,1.7-0.9c-0.6,0.8-0.5,2,0.2,1.9l-0.6,0.7l-0.5,0.1c0.6,0.6,1.4,1.1,0.7,1.8
			c-0.4,0.7-0.1-0.5-0.5,0.1l0.6,0.6c-1.1,0.9-2.2,2-3.3,3.6c0.2,1.2-1.6,2-2.1,3.5l-0.6,0.7c-0.1,0-0.2,0-0.3,0.1
			c-0.2,0.2-0.3,0.3-0.3,0.5c-1.1,0.9-1,2.1-2.2,2.8l0.1,0.6c0.4-0.2,0.7-0.3,1-0.4c0.5-0.1,1-0.2,1,0.1c2.4-1,4.9-1.3,7.4-1.6
			c-0.7,0.1,0.1,0.7,0,0c0.1,0.7,0.1,0.6,0.6,0.6c0,0.3,0.2,0.5,0.4,0.5c0.1,0,0.3,0,0.3,0c0.1,0.7-0.6,0.7-0.5,1.3l-0.1-0.6
			c-0.4,0.6-0.3,1.2-0.9,2c0.6-0.7,0.6-0.1,1.2-0.1c0.1,0,0.3,0,0.3,0c0.2,0,0.4,0.2,0.4,0.5c-0.3-0.2-0.5-0.3-0.6-0.2
			c-0.1,0.1,0,0.1,0,0.3l0.7,0.4c0,0.3,0.2,0.5,0.4,0.5c0.1,0,0.3,0,0.3,0c-1.7,0.9-0.4,1.9-0.2,3.2c-0.8-0.6-0.4,1.3-1,1.4
			c-0.3,0-0.4,0.2-0.5,0.4c0,0.1,0,0.3,0,0.3c-4.3,0.5-9.9,1.9-13.7,2.4l-0.6,0.1c-3.9-0.2-8,1-11.8,1.5c-3.2-0.3-6.5-0.5-8.8,1.1
			c-0.2,0-0.4-0.1-0.5-0.3c-0.1-0.1-0.1-0.2-0.1-0.3l-1.3,0.2c-0.1-0.7-0.9-1.7-0.3-2.5c-0.2-1.2-1.6-3-3.1-4.6l-0.3-2.5
			c-0.2-1.9-1-3.1-0.6-5c0.5-1.4-0.4-2.4,0.3-3.2l-0.1-0.7c0.6-1.3,0.3-3,2-4.6c-0.7,0.1-0.1-0.6-0.1-1.2c1.2-0.2,1-1.5,2.3-1.7
			c-0.2-1.2,1.7-1.3,2.1-2.7c0.8,0.6,1.8-0.2,2.4-1c2,0.5,4,1.5,5.9,1.3l0.1,0.5l0.6-0.1l0.1,0.6c1.1-0.9,1.2,0.5,2.6,0.3l0.1,0.7
			c0.6,0.4,1.9,0.3,2,1.6c0.9,1.1,2,0.9,3.4,1.5l0.2,1.8c1.2-0.1,1.1-2,2.3-2.1c0.6-1.3,1.7-1.5,1.5-2.7c1.7-0.9,2.8-2.8,3.9-3.7
			c0.5-1.9,1.6-2.7,2-4c0.6-0.1-0.2-1.3,1.1-1.4l0.1,0.6c0.6-0.7,1.2-0.1,1.9-0.2c0.1,0.7-0.5,1.4,0.2,1.8c-0.1,0.1-0.2,0.3-0.2,0.5
			c0,0.3,0.1,0.6,0.4,0.9c-0.1-0.7,0.6-0.1,1.4,0.5C1628,206.5,1627.4,206.5,1627.5,207.8z M1608.9,225.4c-0.8-0.6-1-2.4-2.2-2.3
			c-0.9-1.1-2.2-1.6-3.5-2.1c-1.4-0.5-2.7-1.4-4.1-2c-1.9,0.2-2.9,2.2-4,3l0.1,0.7c-1.2,1.3-0.2,4.5,0.7,5.6c3.1-0.4,5.5-1.4,8-1.7
			c1.9-0.2,3.7,0.2,5.6-0.7c-0.1,0-0.2,0-0.3,0C1609.1,225.9,1608.9,225.7,1608.9,225.4c0.1,0,0.2,0,0.2-0.1c0.1-0.1,0-0.3-0.3-0.5
			L1608.9,225.4z M1613.3,215.4l-0.7-0.6l0.1,0.6L1613.3,215.4z M1625.6,215.1c-0.2,0.2-0.3,0.4-0.2,0.6c0.3,0,0.5-0.2,0.5-0.4
			c0.1-0.1,0-0.2,0-0.3C1625.8,215,1625.7,215,1625.6,215.1z M1630.5,226.5c-0.1,0-0.2,0-0.3,0.1c-0.2,0.2-0.3,0.3-0.3,0.5
			c0.6-0.6-0.1,0,0.6-0.1L1630.5,226.5z M1626.9,213.9c0.1-0.1,0-0.2,0-0.3c-0.5,0.1-0.5,0.1-0.4,0.6
			C1626.6,214.2,1626.8,214.1,1626.9,213.9z M1623.7,203.3c0.7-0.1,0.6-0.7-0.1-0.6L1623.7,203.3z M1628.5,208.5
			c-0.1-0.1-0.2,0-0.3,0c0,0.1,0,0.2,0.1,0.2c0.1,0.2,0.3,0.2,0.5,0.2C1628.8,208.7,1628.7,208.5,1628.5,208.5z" />
				<path fill="#C6C6C5" d="M1634.2,174c-0.2,0.5,0.3,0.6,0.2,1c0.1,0,0.1,0,0.1-0.2c0.3,0,0,0.3,0,0.5c1,0.9,0.7,3.3,0.9,3.9
			c-0.6,0.7-0.3,1.8-1.2,2.6c0,0.1,0,0.1,0.2,0.2c-0.6,1.2-1.8,1.7-2.1,3.3c-0.2,0-0.1,0.5-0.5,0.2c0,0.2,0.3,0.1,0.2,0.2
			c-0.2,0.2-0.3,0.6-0.7,0.6l-0.2,0.8c-1.1,1.2-1.7,3.1-3.2,4c-0.1,0.2,0.1,0.3,0,0.5c-1.1,0.4-1.4,2.3-2.9,2.2
			c-0.3,0.4,0.2,0.4,0,0.7c-0.3-0.3-0.3,0.1-0.6-0.1c0.1,0.6-0.6,0.5-0.7,1c-0.1,0.2,0.5,0,0.2,0.4c-0.9,0-1.1,0.6-1.9,0.7
			c0,0.2-0.1,0.4,0.4,0.4c-0.9,0.1-1.9-0.8-2.5,0.4c-0.6-0.3-0.9-0.1-1,0.5c-0.5-0.5-1.4,0.3-1.8-0.4c-0.5,0.2-0.6,0.2-1.3,0
			c-0.2,0.1-0.4,0.4-0.6,0.5c-3.6-0.5-6.5-0.6-9.6-2c-0.8,0.1-2.4-0.5-2.9-1c-4-1.4-5.3-3-7.7-5.5c0.3-0.4-0.2-0.4,0-0.7
			c-1.2-0.8-1.4-2.2-2.6-3c0.1-1.2-0.9-1.7-0.9-2.7c0-0.1-0.2-0.2-0.4-0.2c0.1-1.1-0.1-1.4-0.6-2.1c-0.2-1.4-0.2-2.6-0.4-4
			c0.4-2.5,1-4.5,1.9-6.2c1.4-2.9,3.7-4.5,5.6-6.7c2,0.4,2.2-1.7,4.3-1.2c-0.1,0.3,0.1,0.5,0.2,0.7c0.3-0.5,0.8-0.5,1.1-0.9
			c0.3,0.5,0.8,0.4,1.3,0.3c-0.5,0.9-0.1,2.3-0.8,3.1c-1,1.2-2,3.4-3,4.7c-0.3,0.5-0.7,1.6,0,2.5c-0.2,2.5,1.5,3.4,1.7,5.5
			c0.8,0.4,0.8,1,1.2,1.5c1.1,0.2,1.1,1,1.9,1.4c0.4,0.3,0.2-0.4,0.6-0.1c1.3,1.7,1.9,0.2,3.4,1.6c1.8-0.1,3.3,0.8,5,0.9
			c0.2,0.1,0.3,0.4,0.6,0.5c1.3-0.7,2.7,0.7,3.8-0.2c0.9,0.3,1.7,0.8,2.3,0.1c0.9,0.4,1.8,0.3,2.2-0.2c0.5-0.1,0,0.4,0.4,0.3
			c0.8-1.4,0.4-3,0.3-4.6c0-0.2-0.2-0.1-0.3-0.2c-0.2-0.3-0.2-0.9-0.5-1.2c-1.2-1.7-2.9-5-5.5-5c-0.8,0-1.7,0.1-2.6,0.2
			c-0.6,1.4,0.2,2.6-0.9,4c0.4,0.2,0.4,0.7,0.2,1.2c-1.8-0.1-2.3,2.1-3.7,2.8c-0.1-0.2,0-0.4-0.2-0.5c-0.2,0.1-0.4,0-0.5,0.5
			c-0.2-0.2,0.1-0.6,0.1-0.9c-0.4-0.3,0-0.5-0.1-0.9c-0.1-0.6-0.5-1.2-0.6-1.8c-0.5-2.5,0.6-5.3,1.7-7.6c0.9-0.1,0.9-1.7,1.9-1.8
			c0.6-1.4,1.9-1.6,2.8-2.5l0.5,0.1c1.3-1.2,3.3,0,5.2-0.3c-0.1,0.3,0.6-0.1,1.1,0.2c0,0.2-0.1,0.3,0,0.3c0.4,0.3,0.4,0,0.6-0.2
			c0.4,0.6,1.7,0.3,1.9,1c1.8-0.1,2.7,1.9,4.2,2.7c-0.1,0.3,0.1,0.4,0,0.7c1.3,0,1,2,1.9,1.3c0.1,0.2,0,0.4,0.5,0.3
			c-0.3,0.5,0.5,1.4,1.1,1.4c0.1-0.3-0.2-0.4-0.3-0.6C1633.5,173,1633.6,173.9,1634.2,174z" />
				<path fill="#C6C6C5" d="M1604.7,142.6c0.1-0.3-0.1-0.4,0-0.6c0.8-1.9,2.3-2.8,3.8-3.3c1.3,1.1,2.9-0.1,3.7,1.1
			c1.9-0.2,2.1,2.3,3.5,2.9c-0.2,0.3-0.2,0.8-0.6,0.8c-0.2,0.4,0.2,0.7,0.2,0.9c-0.8,1.6-1.4,2.6-2.6,3.4c-0.6,0.5-1.3,0.9-1.9,1.7
			c-1.8,0.1-3.5-0.2-5.5-1.2c-0.2-0.3-0.2,0.3-0.5,0c-0.2-0.9-1.5-0.9-1.8-1c-0.2-0.1,0-0.2,0.1-0.4c-0.3-0.2-0.6-0.4-0.7-0.7
			c0.5-1,0.2-1.8,1-2.8C1604,143.6,1604.1,142.5,1604.7,142.6z M1618.2,148.2c0.6-0.8,1.2-1.1,1.8-1c0.2-0.1,0.2-0.2,0.2-0.3
			c2.6-0.4,5.5,0.3,8.5,1.7c-0.1,0.1,1,0.5,1.2,0.4c1.1,0.6,2.3,1.4,3.4,1.6c1.7,1.8,7.3,3.4,9,5.5c-0.6,0.7-0.2,1.2-0.8,1.6
			c0.6,0.3,0.3-0.1,0.7,0.5c-0.8,0.2-1.4,1.5-2.2,1.4c0.1,0.3-0.1,0.7,0.4,0.8c0,1-0.8,1.5-1.7,2.2c-0.8,0.5-0.9,0.9-1.6,0.6
			c-0.1,0.3-0.6,0.5-0.2,0.9c-0.3,0.2-0.7,0.2-0.9,0.6c-0.5-0.6-0.7-0.1-1.1,0.1c-0.1-0.3-0.7-0.3-0.4-0.6c-0.1-0.3-0.2,0-0.5,0.1
			c-2.7-1.7-7.9-5.8-11.2-7.2c-0.1-0.1-0.2,0-0.3,0.1c-1.2-1.2-3.8-1.9-5.1-3.4c-1.1,0.3-1.6-1.1-2.4-1.2c0.2-0.5,0.4-0.4,0.4-0.9
			c-0.3-0.4-0.3,0.1-0.7-0.1C1616,150.2,1616.8,148.6,1618.2,148.2z" />
				<path fill="#C6C6C5" d="M1670.4,100.1c-0.1-0.2,0.1-0.2,0.1-0.5c-0.3-0.2-0.1-0.4-0.5-0.8c0.2-0.3,0.2,0.3,0.4,0
			c0.2-0.1-0.1-0.3-0.1-0.5c-0.4,0.5-0.2,0,0-0.3c-0.2-0.1-0.4-0.3-0.5-0.6l0.2-0.1c-0.7-2.4-0.3-4.9-0.6-7.5
			c0.8-0.3-0.2-1.4,0.6-1.7c0.1-3.6,2.2-6.1,4.2-8.9c0.6-0.3,1.4-0.5,1.7-1c0.4,0.4,1.4-0.7,1.8-0.1c0.6-0.3,1-0.6,1.7-0.2
			c0.2-0.1,0-0.3,0.2-0.3c0.1,0.3,0.5-0.2,0.5,0.3c0.7-0.2,1.3-0.5,1.3-0.7c0.5,0,1,0,1.4-0.2c0.8,0.8,1.7,1.3,2.8,1.4
			c0.2,0.4,0.5,0.7,1,0.7c0.1,0.6,0.5,0.8,1,0.7c0.2,0.7,1.5,0.4,1.2,1.1c1.1,0.9,2.1,2.9,3.1,3.8c0.1,0.2-0.2,0.1-0.1,0.3
			c0.8,0.4,1.3,2.3,2.3,2.9c0,0.1,0,0.2-0.1,0.2c0.9,1,1.5,1.9,2.3,3.5c-0.2,0-0.3,0-0.3,0c0.6,0.3,1.1,0.8,1.4,1.7
			c1.6,0.9,1.4,3.5,2.9,4.6c-0.2,0.7,1.1,2,0.8,2.7c0.7,0.3,2.1,3.6,2.8,4.1c-0.1,1.3,1.5,2.1,1.7,3.2c-0.2,0.1-0.2,0-0.4,0.1
			c0.8,0.5,0.7,1.8,0.3,2.4c-0.4,0.3-0.1-0.5-0.5-0.2c-0.2,0.4,0.4,0.1,0.4,0.6c-0.3-0.2-0.6-0.2-0.8,0c-0.2-0.2,0-0.3,0-0.5
			c-0.2-0.2-0.4,0.1-0.6,0.1c0,0.5,0.3,0.1,0.4,0.4c-0.7,0.6,0,0.6-0.8,1.1c-0.2-0.1-0.3-0.4-0.5-0.4c-0.1,0.5-0.2,0.3-0.7,0.3
			c0,0.3,0,0.6,0.1,0.9c0.2-0.1,0.3-0.5,0.6-0.3c0.1,0.4-0.7,0.2-0.6,0.6c-0.6,0.1-0.9-0.2-1.4-0.2c0.2-0.4,0-1-0.6-1
			c-0.2,0.4-0.3,0.4-0.7,0.6c0.3,0.4,0.8,0,1.2,0.4c0.1,0.2-0.8,0.9,0,0.8c-0.2,0.3-0.5,0.3-0.7,0.6c-0.2-0.3,0.3-0.2,0-0.6
			c-0.2,0.4-0.5,0.4-0.8,0.3c0,0.1,0,0.1,0.1,0.3c-0.9,0.7-2-0.4-2.4,0.1c-0.2,0.1-0.1-0.2-0.2-0.3c-1.4-0.2-2.2-2.9-2.9-3.5
			c0.1-0.2,0-0.5-0.3-0.7c0.1,0,0.2-0.1,0.1-0.3c-1.6-2.7-3.6-6.9-4.9-9.5c-1.4,1.2-2.3,2.4-3.9,3.5c-0.6,0.5-1.3,1.5-2.1,1.7
			c-0.6,1.3,1.3,3.1,1,4.7c0.7,0.2,0.5,0.7,0.4,1.2c0.3,1.6,1,4,0.4,5.3c0.1,0.2,0.2,0.1,0.3,0.2c-0.4-0.1,0.1,0.4-0.4,0.4
			c0.6,1-0.7,1.6-0.5,2.5c-0.4-0.4-0.4,0.3-0.5,0c-0.2,0.3-0.8,0.4-0.7,0.8c-1-0.2-1.5,0.9-2.2,0.6c-0.1,0.6-0.8,0.1-0.9,0.5
			c-0.2-0.7-1.4,0.7-1.9,0c0.2,0.5-0.3-0.1-0.3,0.5c-0.2,0-0.3-0.6,0-0.7c-0.1-0.2-0.4,0.3-0.6,0c0-0.5,0.2-0.6,0.6-1
			c-1-2.2-1.3-4.8-2.3-6.7c0-0.1-0.4-1-0.5-1.5c-0.1-0.2-0.2-0.1-0.2-0.1c-0.1-0.2,0-0.4,0-0.6c-0.3-0.6-1.1-1.3-0.7-2
			c-0.4-0.3-0.9-1.1-0.6-1.5c-0.6-0.3-0.3-1.1-0.8-1.6c0.3-0.6-0.5-1.3-0.2-1.7c-0.5,0,0.1-0.7-0.4-0.5c0.2-0.3,0-0.2-0.2-0.5
			l0.3-0.1c-0.2-0.7-0.3-1.2-0.7-2.1c-0.3-0.2-0.3-0.3,0.1-0.2C1670.9,100.6,1670.7,100.2,1670.4,100.1z M1679,92.2
			c0.6,1.7,0.6,2.9,0.5,4.8c0.3-0.1,0.4,0.6,0.6,0.7c1.5-1.3,2.8-2.8,4.6-4.1c-0.1-0.2,0.2-0.3,0.1-0.5c-2-2.3-3.2-5.1-5.2-7.4
			c-0.1,0.8-0.8,1.3-0.2,2.3C1679.1,89.2,1679.8,91.1,1679,92.2z" />
				<path fill="#C6C6C5"
					d="M1736.7,110.4c-0.5-0.1-0.5,0.4-1,0.4c0,0.1,0.1,0.1,0.2,0.1c0.1,0.3-0.3,0.1-0.5,0.1
			c-0.6,1.2-3,1.4-3.6,1.7c-0.8-0.5-1.8,0.1-2.8-0.6c-0.1,0-0.1,0.1-0.1,0.2c-1.3-0.3-2.1-1.4-3.7-1.3c-0.1-0.2-0.5,0-0.3-0.5
			c-0.2,0.1,0,0.3-0.2,0.3c-0.3-0.2-0.6-0.1-0.7-0.6l-0.8,0c-1.4-0.8-3.4-1-4.7-2.3c-0.3-0.1-0.3,0.2-0.5,0.1
			c-0.6-1-2.6-0.8-2.8-2.3c-0.5-0.2-0.3,0.3-0.6,0.2c0.2-0.3-0.1-0.3-0.1-0.6c-0.5,0.3-0.6-0.5-1.1-0.5c-0.3-0.1,0.1,0.5-0.3,0.3
			c-0.2-0.8-0.8-0.9-1.1-1.7c-0.2,0.1-0.4,0-0.3,0.5c-0.3-0.8,0.3-2-0.9-2.3c0.1-0.6-0.1-0.9-0.7-0.8c0.4-0.6-0.6-1.3,0-1.8
			c-0.3-0.5-0.3-0.5-0.3-1.2c-0.2-0.2-0.5-0.3-0.6-0.5c-0.3-3.6-0.8-6.5-0.1-9.8c-0.3-0.8,0-2.5,0.3-3c0.5-4.2,1.7-5.8,3.6-8.7
			c0.5,0.2,0.3-0.3,0.6-0.2c0.5-1.4,1.9-1.8,2.4-3.2c1.2-0.2,1.4-1.2,2.5-1.5c0.1-0.1,0.1-0.2,0.1-0.4c1.1-0.2,1.4-0.5,1.9-1
			c1.3-0.5,2.5-0.8,3.8-1.2c2.5-0.2,4.6,0,6.5,0.5c3.1,0.7,5.2,2.7,7.8,4c0,2,2.1,1.8,2.1,3.9c-0.3,0-0.5,0.2-0.6,0.4
			c0.6,0.2,0.6,0.7,1.1,0.9c-0.5,0.5-0.2,0.8,0,1.4c-1-0.3-2.3,0.5-3.2-0.1c-1.4-0.7-3.8-1.2-5.2-1.9c-0.6-0.2-1.7-0.4-2.4,0.6
			c-2.5,0.3-3,2.2-5,2.9c-0.2,0.8-0.8,1-1.2,1.6c0.1,1.1-0.8,1.3-1,2.1c-0.2,0.5,0.4,0.1,0.2,0.6c-1.4,1.7,0.3,1.9-0.8,3.7
			c0.5,1.7-0.1,3.4,0.3,5.1c-0.1,0.3-0.3,0.4-0.3,0.6c1,1.2-0.1,2.8,1,3.6c-0.1,1-0.4,1.8,0.5,2.3c-0.2,1,0.1,1.8,0.6,2.1
			c0.2,0.5-0.4,0.1-0.2,0.5c1.5,0.5,3-0.3,4.5-0.7c0.2,0,0.1-0.3,0.1-0.3c0.3-0.3,0.8-0.4,1.1-0.7c1.4-1.6,4.2-3.9,3.7-6.5
			c-0.2-0.8-0.5-1.7-0.8-2.5c-1.5-0.3-2.5,0.7-4.1,0c-0.1,0.5-0.6,0.5-1.2,0.5c-0.3-1.7-2.5-1.8-3.5-3c0.2-0.2,0.4-0.1,0.5-0.3
			c-0.2-0.2-0.1-0.4-0.6-0.4c0.2-0.3,0.6-0.1,0.9-0.1c0.2-0.5,0.5-0.1,0.8-0.3c0.6-0.3,1-0.7,1.6-1c2.3-1,5.3-0.6,7.8,0
			c0.3,0.8,1.9,0.5,2.2,1.4c1.5,0.3,1.9,1.6,3,2.1l0,0.5c1.4,1,0.7,3.2,1.4,5c-0.3-0.1,0.2,0.6,0,1.1c-0.2,0-0.3,0-0.3,0.1
			c-0.2,0.5,0.1,0.4,0.3,0.6c-0.5,0.5,0.1,1.7-0.5,2.1c0.5,1.7-1.3,3-1.7,4.7c-0.3,0-0.3,0.2-0.6,0.1c0.3,1.2-1.7,1.4-0.8,2.1
			c-0.2,0.2-0.4,0.1-0.2,0.6c-0.5-0.2-1.3,0.8-1.1,1.4c0.3,0.1,0.3-0.3,0.5-0.4C1737.5,109.5,1736.7,109.8,1736.7,110.4z" />
				<path fill="#C6C6C5" d="M1752.5,97.9c-1.5-2-0.6-4.6,0.8-7.3c0.6-1,1.9-3.5,2.6-4.5c1.9-2.9,3.6-6.2,5.7-8
			c1.1,0.6,1.6-0.3,2.4-0.3c0.2-0.1,0.3-0.2,0.4-0.5c0.9-0.1,1.7,0,2.8-0.1c0.5,0,0.8-0.3,1.1-0.3c0.6,0,1.2,0.5,1.9,0.6
			c0.5,0,0.9-0.1,1.5-0.1c0.2,0,1.6-0.1,1.8,0.3c0.8-0.2,1.9,0.6,2.5,0.2c0.2,0.3,0.7,0.8,0.9,0.1c0.1,0.2,0.4,0.5,0.8,0.6l-0.1,0.2
			c1.7,1.9,2.6,3.9,3.7,6c0.3,0,0.2,0.3,0.5,0.3c-0.3,0.5,0,0.8,0,1.2c-0.3,1.1-1,1.3-1.7,1.6c-0.1,0.1-0.1,0.2,0.1,0.3
			c-0.3,0.2-0.5,0-0.8,0.1l-0.2,0.5c-1.7,0.5-4.2-0.3-5.8,0.3c-1.3-0.6-2.4-0.6-3.2,0c-0.9-0.4-1.4,0-2.1-0.2
			c-0.2,0.1-0.2,0.3-0.5,0.4c-0.8-0.5-1.3,0.3-2.1,0.4c-0.1,0.2,0.4,0.3,0,0.6c-0.6,0.8-1.9,3.5-2.3,4.7c-0.2-0.1-0.2,0.3-0.4,0
			l-0.3,0.8c3.3,0.5,6.1-0.3,9.6,0.7c1-0.6,2.2,0.7,2.9,1.2l-0.2,0.4c1.1,0.6,1.2,1.6,2.1,2.3c-0.5,0.7,0.5,0.7,0.5,1.2
			c-0.4,0.2-0.2,0.3-0.6,0.6c-0.1,0.2,0.3,0.3,0.2,0.5c0.1-0.2,0.5,0,0.8,0.1c0,0.2,0,0.5,0,0.8c0.1,0.4-0.2,0.1-0.5,0.2
			c0,0.2,0.1,0.4,0.5,0.6c-0.1,0.4,0,0.8-0.4,1.1c-6-2.5-11.2-0.2-16.6-1.7c-0.3,0-0.9,1.8-1.3,1.6c0.2,1-0.9,1.3-0.9,2.3
			c0.4,0.6,1.7,0.9,2.4,0.8c2.9,0.9,6.1,2,8.7,1.8c0.3,0.4,0.7,0.3,0.8,0.5c0.1-0.2,0.3-0.2,0.6-0.3c0.4,0.2,0.5,0.5,0.5,0.7
			c0.2,0,0.2-0.1,0.4-0.1c0.2,0.6,0.5,0.7,1,1.1c0.2,0-0.1-0.2,0.2-0.3c0.2,0.1,0.1,0.2,0.2,0.3c0.1,0.4-0.4-0.1-0.3,0.3
			c0.1,0.3,0.6,0.2,0.2,0.6c0.8,0,1.3,0.3,1.6,1c-0.3,0.2,0.1-0.3-0.3-0.3c-0.1,0.7,0,0.5-0.1,0.9c0.3,0.2,0.2-0.3,0.6,0
			c-0.1,0.1-0.1,0.2,0.1,0.3c0,0.3-0.4-0.3-0.4,0.2c0.6,0.1,0.3,0.8,1.1,0.8c-0.2,0.4-0.1,1.1-0.7,1.1c0,0.2,0.4,0.3,0.5,0.6
			c-0.3,0.2-0.7-0.1-0.9,0.5c-0.2,0.2-0.1,0.3,0.3,0.4c-0.6,0.2-0.4,0.5-0.3,0.9c-0.4-0.2-0.9-0.1-1.2,0.1c-1-0.4-2-0.6-2.9-0.5
			c-3.2-1.1-6.1-1.2-9-2.2c0,0.1,0,0.2,0.1,0.2c-0.9-0.1-2.1-0.9-3.1-0.4c-0.1,0-0.2-0.1-0.1-0.3c-0.9,0.7-2-0.3-2.7-0.3
			c-0.2-0.1-0.1,0.2-0.3,0.2c-0.3,0,0-0.2-0.2-0.3c0.1,0-1-0.2-1-0.2c-0.7-0.3-1.6-0.8-2-1.4c-0.8-0.2-1.3-0.7-1.4-1.3
			c-0.3-0.2-0.4,0.1-0.5-0.2c-1.3-1.5-2.6-3.1-3-5.1C1748.2,104.6,1751.2,99.9,1752.5,97.9z" />
				<path fill="#C6C6C5" d="M1817,126c-1.5,1.7-3.6,3.2-4.4,4.8c-2,2.4-6,6.4-8.6,9.2c-0.9,0.9-1.6,2-2.3,2.1
			c-0.4,0.2-0.8-0.3-1.2,0.3c-0.3-0.4-0.6,0.2-0.5-0.3c-0.9-0.1-1.8-0.8-2.7-1.3c-1.1,0-0.8,0.7-1.5-0.4c-1.4-0.6-2.7-2.7-3.8-4.3
			l0.3-0.3c-0.4-0.2-0.3,0-0.5-0.4c0.1-0.2,0.2-0.1,0.4,0.1c0.8-3.9,4.7-11.7,6.4-15.6c2.4-4.1,4.9-9,5.7-12.8
			c-0.8-0.1-1.1,1.3-2,0.9c-1.2,1.4-3.4,3.4-3.6,4.8c-1.8,1.3-2.5,3.3-4.5,5c-1.1,2.3-6.1,6.3-7.7,8.6c-0.3-0.3-0.4,0.3-0.7-0.1
			c0,0.3,0,0.5-0.1,0.6c-0.5,0.9-1.3,1-2,1.5c-0.6-0.1-1.2-0.3-1.8,0.1c-1.6-1-2.8-1.3-4.2-1.9c0,0,0-0.2,0.1-0.3
			c-1.1-0.9-1.2-1.7-2.4-1.9c0-0.3,0.1-0.7-0.4-1c0.4-0.8,1.1-0.9,0.9-1.8c0.3,0.3,0.5-0.1,0.7,0.4c2.9-3.1,8.1-9.5,10.5-13.2
			c0.2-0.4,0.3-0.2,0.4-0.5c1.2-1.9,3.4-3.4,4.4-5.3c0.1-0.5,0.3,0.3,0.5,0c0.4-0.2,0.1-0.4,0.3-0.6c0.7,0.1,1.8-1.9,2.3-2.5
			c0.2,0.1,0.3,0.1,0.4,0.2c2.2-1.9,5.1-3.6,7.8-3.1c0.6-0.4,1.2,0.1,2.3,0.1c0.7,0,1.3-0.1,1.8,0.1c2.2,0.7,4.1,2.6,6.2,4.5
			c-0.8,0.2,0.4,0.2-0.1,0.7c0.7,0.5,0.9,1,0.8,1.5c0.2-0.1,0.5,0.1,0.7,0.3c0.1,0.2,0.2,0.3,0.2,0.4c0.3,0.3-0.1,0.1-0.2,0
			c-0.2,0.3,0,0.5,0.3,0.4c0.3,0.5,0.3,0.9,0.6,1.5c-0.7,2.1-2.1,5.3-2.3,7.4c-1,0.9-0.3,1.8-1.2,2.8c0,0.1,0,0.2,0,0.3
			c0.2-0.2,0.4-0.3,0.6-0.5c1.3-0.1,5.2-5.3,6.2-6.1c1.1-0.6,2.3-0.3,3.3-0.6c0.5,0.1,0.8,0.5,1.5,0.8c0.2,0.1,0.5,0,0.7,0
			c0.3,0,0.5,0.4,0.7,0.5c0,0,0,0,0.1-0.1c0,0,0.1-0.1,0.2-0.1c0.1,0.1-0.1,1.1,0.3,0.3c0.2,0.5,0.5,1,0.8,1.5
			c0,0.7-0.2,2.1-0.3,2.3c-0.2,0.1-0.9,1.1-1.7,2.1c-0.4,0.6-1,1.2-1.5,1.9l0.1,0c-1.3,1.2-3.7,3.6-4,4.4
			C1818.6,124.1,1817.5,125,1817,126z" />
				<path fill="#C6C6C5" d="M1853.2,155.2c-0.9,0.5-0.4,1.7-1,2.2c-0.4,0.3-0.4-0.1-0.7,0.1c-0.2,0.5-0.9,1.2-1.3,0.6
			c-0.4,0.2-0.1,0.6-0.7,0.7c-0.4-1.9-1.3-4.5-3-6c-0.3-0.9-0.9-0.9-1.5-1.4c-1.4-1.8-2.2-3.7-3.7-4.5c-1.9,1.9-3.4,2.3-5.5,4.2
			c-0.7-0.1-1,0.9-1.8,0.9c0.2,0.4-0.5,0.5-0.1,1c-0.3-0.1-1-0.1-1,0.4c-0.3,0-0.7,0.1-0.9-0.1c-1,0.8-2.3,2.2-3.2,2.1
			c-0.4,0.7-1.9,1-2.6,2.2c-0.3,0.2-0.4,0-0.6,0c-1,1.3-4,2.8-5.7,3.3c-0.2,0.7-1.7,1.1-3,1.9c-0.9,0.5-1.7,1.1-2.4,1
			c-0.5,0.6-0.9,0.4-1.8,0.9c0-0.6-0.6-0.1-0.8-0.3c-0.2-0.4-0.2-0.8-0.5-1.3c-0.5,0.2-0.6-0.3-1.1-0.1c-0.4-0.6-0.2-1-0.1-1.4
			c0.3-0.4,0.3,0.2,0.6,0c0.3-0.6-1.6-0.9-1.1-1.3c0-0.5-0.4,0.2-0.5,0c-0.1-0.4-0.1-0.7,0-1c-0.6-0.5-1.2-2.1-0.4-2.6
			c-0.4-0.4,0-0.6-0.2-1c1.1-1.5,5.1-3.1,6.5-3.9c3.3-1.1,6.4-3,9.1-4.9c2.2-1.5,6-3,8.3-4.8c0.4-0.3,0.5-0.8,1.1-0.6
			c0.5-0.7,1.6-1,2.6-1.6c0.1-0.3-0.1-0.4,0.2-0.6c-0.4,0-0.6-0.1-0.7-0.3c-0.2-0.4,0.3-0.9-0.3-0.9c-0.2-0.3,0.2-0.4,0-0.7
			c-1.2-1.3-1.3-2.8-1.9-4.3c0.2-0.3,0.3-0.4,0.6-0.7c-0.1-0.3-0.1-0.5-0.3-0.9c0.3-0.1,0.1-0.3,0.5-0.4c-0.3-0.2-0.1-0.4-0.2-0.6
			c0.4-0.2,0.4-1.1,1.1-1c0.5-0.6,0.2-1.4,1.1-1.9c0-0.4-0.3-0.2-0.2-0.6c1-0.2,1.1-1,2.2-1.2c0.1,0.3-0.4,0.4,0.1,0.5
			c0.6-0.1-0.4-0.6,0.2-0.7c0.6,0.4,1.1,0.9,1.5,1.6c0,0.7,0,1.4,0.6,2.2c-0.3,0.7,0.4,1.6,0.2,2.4l0.9,1.7c0,0.2,0.2,0,0.3,0.2
			c3.2,4.4,6.5,8,9.6,12.2c0.9,0.7,2,1.4,2.2,2.7c0,0.5-0.5,1.1,0.1,1.8c-0.3,0.4-0.2,0.9,0,1.4c-0.7,1-0.4,2.4-0.9,3.4
			C1853,155.4,1853.3,155.3,1853.2,155.2z" />
			</g>
			<path fill="#FFFFFF"
				d="M1649.4,162.8l10.8,27.8l-3.3,32.5l8.3,5l-2.3,21.4l11.2,3.5l6.7,14.2c0,0,12.1,14.4,13.2,14.9
		c1,0.4,24.9,6.8,24.9,6.8l26.2-10.9l7.7-7l9.4-6.9l6.4-5.1c0,0-6.9-7.5-5.7-7.7c1.3-0.2,12.5-4.2,12.5-4.2s-1.7-20.4-0.9-20.6
		c0.7-0.2,28.3-8,28.3-8l2.7-17l-24.2-8c0,0-13.8-16.1-14.1-16.7c-0.3-0.6-9-26.6-9-26.6s-4.2-26.9-4.3-27
		c-0.1-9.7-0.4-27.1-0.6-29.8c-0.2-3.9-8.2-6.5-8.2-6.5l-25.2,31.1l0,0c0,0-11.3,16.9-12.3,18.6c-1,1.7-22.8,10.1-22.8,10.1
		l-13.3-8.7c-5.7-4.6-15.4-12.4-15.4-12.4l-17.9-9.9c0,0-1.3,13.2-1.5,14.1C1636.4,130.6,1645.1,152.3,1649.4,162.8L1649.4,162.8z" />
			<path fill="#EF7E31" d="M1758.2,180.7c-4.2-9.7-8.8-19.5-16.1-27.2s-17.8-13.1-28.3-11.6c-2.6,0.4-5.1,1.1-7.6,1.9
		c-12.5,4.1-34.2,10.8-34.9,27.2c-0.2,4,1.3,7.9,2.7,11.7c1.3,3.4,0.9,6.9,1.9,10.4c1.2,3.8,3.4,7.4,6.4,10.1
		c5.9,5.3,14,7,21.2,10.2c5.7,2.6,9.8,5.5,16.2,6.8c6.6,1.3,13.3,1.7,20,1.5c8.6-0.3,17.2-1.5,25.7-3.1c10.8-2.1,30.6-4,14.8-17.4
		c-5.5-4.7-10.2-9.9-14.8-15.2c-1.9-2.2-3.8-4.5-5.8-6.8c-3.6-4.2-7.1-8.3-10.9-12.3c-12.3-12.7-29.2-23.6-46.7-20.7
		c-5.1,0.9-10,2.9-14.7,5.3c-0.5,0.2-0.9,0.5-1.4,0.8" />
			<path fill="#EF7E31" d="M1706.8,250.1c3.7,0.6,7.5-0.4,11.1-1.4c4.2-1.2,8.4-2.4,12.6-3.5c3.3-0.9,6.9-1.9,10.2-1.1
		c6.1,1.4,9.7,8.4,8.8,14.6c-0.8,6.2-5.2,11.4-10.2,15c-8.6,6.2-19.8,8.7-30.2,6.8c-10.4-2-20-8.4-25.7-17.3c-1.6-2.5-2.9-5.2-3-8.1
		c-0.1-2.2,0.5-4.4,0.3-6.6s-1.9-4.5-4.1-4.3c-1.5,0.1-2.7,1.3-4.2,1.5c-3.6,0.4-4.7-4.6-4.5-8.2c0.3-4.9,0.7-9.7,1-14.6
		c0.1-1.1,0.1-2.4-0.4-3.4c-0.5-1-1.3-1.7-1.8-2.6c-1.5-2.8,1.2-6.7,3.9-7.8c3.7-1.5,4.2,0.5,7.4,2.8
		C1691.1,221.2,1689.3,247.2,1706.8,250.1z" />
			<path fill="#F9C189" d="M1749.2,152.5c0.9-3.4-0.4-7.9-0.7-11.1c-0.5-5.2-1-10.4-1.5-15.6c-0.4-4.2-0.8-8.5-1.8-12.6
		c-0.8-3.2-1.9-6.3-3.3-9.2c-2.2,5.3-2.9,11-4.1,16.6c-1.5,7.2-4.8,13.9-6,21c-0.3,1.5-0.5,3-0.2,4.4c0.7,2.7,3.4,4.4,6,5.4
		c2.6,0.9,5.5,1.4,7.8,2.9c0.4,0.3,0.8,0.6,1.3,0.7c0.9,0.1,1.7-0.5,2.1-1.3C1749,153.2,1749.1,152.9,1749.2,152.5z" />
			<path fill="#6A471E" d="M1729.9,152.4c0,0,0.1,0,0.1,0c1.9-0.3,3.8-1.1,4.7-2.7c0.6-1.2,0.6-2.6,0.6-4c0-3.6,0.3-7.2,1-10.8
		c1.8-10.4,6.2-20.3,7.2-30.8c0.1-1,0-2.2-0.9-2.7c-1-0.5-2.1,0.5-2.8,1.3c-2.9,3.6-5,7.7-8,11.2c-3.2,3.7-6.5,7.5-9.5,11.3
		c-3.6,4.5-5.8,10.3-10.3,14c-4.6,3.8-10.8,4.9-16.3,7.2c-2.9,1.2-5.6,2.8-8.1,4.7c-1,0.8-2.1,2-1.5,3.1c3.2-0.5,6-2.5,8.8-4.2
		c3.6-2.1,7.5-3.6,11.5-4.5c1.3-0.3,2.7-0.5,4.1-0.3c1.2,0.2,2.3,0.7,3.4,1.2C1719.4,148.9,1723.5,153.4,1729.9,152.4z" />
			<path fill="#F9C189" d="M1646.3,130c-1.8,2.3-1.3,5.6-0.6,8.4c4.3,15.5,14.7,28.8,19.4,44.2c1,3.3,1.8,6.7,3.3,9.8s4.1,5.9,7.5,6.7
		c2.3-1.7,1.6-5.3,0.8-8.1c-2.1-6.9-4.3-14.7-1.9-21.8c1.8-5.3,8.1-10.1,4.7-16c-3.2-5.4-11.1-10.9-16-14.9
		C1661.9,137,1648.5,127.1,1646.3,130z" />
			<path fill="#6A471E" d="M1667,150c6,5.2,13.6,9.3,21.5,8.6c-0.3-1.7-1.8-2.9-3.2-3.9c-2.8-2-5.6-4-8.4-6c-2.9-2.1-5.8-4.1-9-5.6
		c-1.5-0.7-3-1.3-4.4-2.1c-4.1-2.5-6.4-7.3-10.4-10.1c-1.7-1.2-6.6-3-7.7,0.1c-0.7,2.1,3.1,2.3,4.6,3.2
		C1656.4,138,1661.3,145.1,1667,150z" />
			<path fill="#CBCBCB" d="M1741.8,226.4c0.5-0.2,1-0.4,1.4-0.7c4.8-2.5,9.9-3.1,15.3-3.1c1.7,0,3.7,0.2,4.8,1.6
		c7.3,9.4-23.3,10.5-26.6,10.5c-3.1,0-7.3,0.2-9.8-2.1C1729.7,229.1,1737.8,228.2,1741.8,226.4z" />
			<g>
				<g>
					<path fill="#1D1D1B" d="M1686,251.6c-1.9-3.9-3.8-7.8-5.8-11.7c-0.1-0.2-0.4-0.3-0.6-0.2c-2.8,1.7-5.6,3.4-8.4,5
				c0.2,0.1,0.5,0.3,0.7,0.4c-0.4-8.9,0.3-17.8,1.9-26.6c0.1-0.3-0.1-0.6-0.4-0.6c-2.7-0.2-5.4,0.3-7.9,1.5c0.2,0.3,0.3,0.5,0.5,0.8
				c1-0.6,0.9-2.7,1-3.7c0.2-2.4,0.3-4.8,0.3-7.3c0.1-6.6,1-13.1,0.5-19.6c0-0.6-1-0.6-0.9,0c0.5,6.2-0.3,12.4-0.4,18.7
				c0,2.2-0.1,4.4-0.2,6.6c-0.1,1-0.1,2-0.3,3c0,0.3-0.1,1.3-0.4,1.5c-0.5,0.3-0.1,1,0.5,0.8c2.4-1.1,4.9-1.5,7.4-1.3
				c-0.1-0.2-0.3-0.4-0.4-0.6c-1.7,8.8-2.3,17.8-2,26.8c0,0.3,0.4,0.6,0.7,0.4c2.8-1.7,5.6-3.4,8.4-5c-0.2-0.1-0.4-0.1-0.6-0.2
				c1.9,3.9,3.8,7.8,5.8,11.7C1685.5,252.6,1686.3,252.2,1686,251.6L1686,251.6z" />
				</g>
			</g>
			<g>
				<g>
					<path fill="#1D1D1B" d="M1686.8,152.5c5.1-4.2,11.2-7,17.7-8.2c7.5-1.3,15-0.1,22.3,1.7c0.6,0.1,0.8-0.8,0.2-0.9
				c-7.5-1.8-15.2-3-22.8-1.7c-6.7,1.2-12.9,4.1-18.1,8.4C1685.7,152.2,1686.3,152.9,1686.8,152.5L1686.8,152.5z" />
				</g>
			</g>
			<g>
				<g>
					<path fill="#1D1D1B" d="M1711.2,141.9c10.6-13.6,21.3-27.3,31.9-40.9c-0.3-0.1-0.5-0.1-0.8-0.2c6.3,16.3,3.8,34.1,8,50.8
				c1.2,5,3,9.8,5.5,14.3c0.3,0.5,1.1,0.1,0.8-0.5c-4.3-8-6.4-16.8-7.3-25.8c-0.9-8.2-1-16.5-2.3-24.7c-0.8-4.9-1.9-9.7-3.7-14.3
				c-0.1-0.3-0.5-0.5-0.8-0.2c-10.6,13.6-21.3,27.3-31.9,40.9C1710.1,141.7,1710.8,142.4,1711.2,141.9L1711.2,141.9z" />
				</g>
			</g>
			<g>
				<g>
					<path fill="#1D1D1B" d="M1729.6,169.9c5,8.2,13.6,13.4,21.8,18c9,5.2,18.4,9.6,28.1,13.1c5.6,2.1,11.3,3.8,17,5.3
				c0.6,0.2,0.8-0.7,0.2-0.9c-10-2.6-19.7-6-29.1-10.3c-9-4.1-18-8.8-26.1-14.5c-4.4-3.1-8.4-6.7-11.2-11.3
				C1730.1,168.9,1729.3,169.4,1729.6,169.9L1729.6,169.9z" />
				</g>
			</g>
			<g>
				<path fill="#FFFFFF" d="M1720.9,192.6c0.4-3.3-1.8-6.1-4.2-8.1c-2.2-1.8-6.6-1.8-9.2-1.1c-4.4,1.2-7.4,6-6.6,10.5
			c0.2,1.4,1,2.6,1.9,3.6c2.3,2.6,6,3.9,9.4,3.4c3.4-0.5,6.6-2.8,8-6C1720.6,194.2,1720.8,193.4,1720.9,192.6z" />
				<g>
					<path fill="#1D1D1B" d="M1721.4,192.6c0.2-2.2-0.6-4.3-1.9-6c-1.2-1.5-2.7-3-4.6-3.6c-3.6-1.2-8-0.6-10.9,1.8
				c-2.9,2.4-4.6,6.9-3.1,10.6c1.7,4.1,6.5,6.4,10.8,6.1c4.7-0.4,9-4.1,9.7-8.8c0.1-0.6-0.8-0.8-0.9-0.2c-0.6,3.9-3.7,7-7.5,7.9
				c-3.8,0.9-8.1-0.7-10.4-3.8c-2.3-3.1-1.4-7.5,1.1-10.2c2.4-2.6,6.1-3.3,9.5-2.8c4,0.6,7.7,4.8,7.3,9
				C1720.4,193.1,1721.3,193.1,1721.4,192.6z" />
				</g>
			</g>
			<g>
				<g>
					<path fill="#1D1D1B" d="M1714,189.9c-1.7,1.1-1.7,3.9,0,5c0.2,0.1,0.4,0.1,0.6-0.1c2-1.9,1-5.8-1.7-6.6c-0.2-0.1-0.4-0.1-0.6,0.1
				c-0.2,0.2-0.3,0.4-0.5,0.6c-0.3,0.4-0.5,0.8-0.5,1.3c-0.1,0.9,0.1,1.7,0.8,2.3c0.6,0.5,1.6,0.7,2.2,0.2c0.5-0.4,0.8-1.2,0.6-1.8
				c-0.1-0.3-0.3-0.7-0.6-0.9c-0.2-0.1-0.5-0.2-0.7-0.1c-0.2,0.1-0.3,0.3-0.4,0.5c-0.4,0.8-0.3,1.9,0.4,2.5c0.5,0.4,1.1-0.3,0.7-0.7
				c-0.5-0.4-0.5-1.2,0-1.6c-0.2,0-0.3,0.1-0.5,0.1c0.3,0.1,0.4,0.5,0.3,0.8c-0.1,0.4-0.5,0.6-0.9,0.5c-0.5-0.2-0.9-0.7-0.9-1.2
				c0-0.7,0.3-1.3,0.8-1.8c-0.2,0-0.3,0.1-0.5,0.1c2.1,0.5,3,3.5,1.5,5.1c0.2,0,0.4,0,0.6-0.1c-1.1-0.7-1.1-2.6,0-3.4
				C1715,190.4,1714.5,189.6,1714,189.9L1714,189.9z" />
				</g>
			</g>
			<g>
				<path fill="#FFFFFF" d="M1743.5,173.9c-0.4,4.3,3.8,8.5,8.1,8.1c2.6-0.2,5-2,6-4.4s0.2-5.5-1.8-7.1c-1.1-0.9-2.6-1.7-4-1.9
			c-1.1-0.1-2.2,0-3.3,0.1c-0.6,0.1-1.3,0.1-1.9,0.5C1745.1,169.8,1743.6,172.1,1743.5,173.9z" />
				<g>
					<path fill="#1D1D1B" d="M1743,173.9c-0.2,3,1.5,5.7,3.9,7.3c2.6,1.6,5.9,1.6,8.4-0.1c2.5-1.8,3.7-4.9,2.9-7.8
				c-0.9-3.2-4.2-5.3-7.5-5.3c-1.9,0-4,0.1-5.5,1.5C1744.1,170.6,1743.2,172.2,1743,173.9c-0.1,0.6,0.9,0.6,0.9,0
				c0.1-1.3,0.9-2.6,1.7-3.5c0.4-0.5,0.9-0.9,1.5-1.1c0.8-0.3,1.8-0.3,2.7-0.4c1.7-0.1,3.1,0.2,4.6,1.1c1.2,0.7,2.2,1.7,2.7,3
				c1,2.5,0.2,5.3-1.9,7c-2,1.7-4.9,2-7.2,0.8c-2.5-1.3-4.2-4-4.1-6.9C1744,173.3,1743.1,173.3,1743,173.9z" />
				</g>
			</g>
			<g>
				<g>
					<path fill="#1D1D1B" d="M1794.3,211.4c-3.2,3-7.4,4.8-11.5,6.1c-4.9,1.6-10,2.6-15.1,3.3c-4.9,0.7-9.8,1.2-14.8,1.7
				c-5.8,0.5-11.5,0.8-17.3,0.2c-8.1-0.9-16-3.1-23.6-6.1c-0.6-0.2-0.8,0.7-0.2,0.9c6.9,2.7,14,4.8,21.4,5.8
				c6.2,0.9,12.4,0.7,18.6,0.2c10.2-0.8,20.5-1.9,30.3-4.8c4.6-1.4,9.3-3.3,12.8-6.6C1795.4,211.6,1794.7,211,1794.3,211.4
				L1794.3,211.4z" />
				</g>
			</g>
			<g>
				<g>
					<path fill="#1D1D1B" d="M1707.5,217.7c4.6,4.9,8.5,10.5,14.7,13.5c1.5,0.7,3.1,1.2,4.7,1.1c1.9-0.1,3.7-0.8,5.5-1.4
				c3.6-1.3,7.1-2.7,10.5-4.3c4-1.8,8-2.9,12.4-3.3c0.6-0.1,0.6-1,0-0.9c-4.3,0.4-8.2,1.4-12.2,3.2c-4.4,2-8.9,4-13.6,5.4
				c-2.8,0.8-5.1,0.4-7.7-0.9c-1.9-1-3.7-2.3-5.3-3.8c-3.1-2.8-5.6-6.1-8.4-9.2C1707.7,216.6,1707.1,217.2,1707.5,217.7
				L1707.5,217.7z" />
				</g>
			</g>
			<g>
				<g>
					<path fill="#1D1D1B" d="M1672,193.3c-11-14.9-17.8-32.3-24.4-49.5c-2-5.2-3.9-10.5-3.7-16.2c-0.2,0.1-0.4,0.3-0.6,0.4
				c7.7,3.1,14.6,7.5,21.1,12.5c6.5,5,12.5,11,19.8,14.9c3.9,2.1,8.2,3.3,12.6,2.8c0.6-0.1,0.6-1,0-0.9c-8.6,1.1-16-4.7-22.2-9.8
				c-6.1-5-12.2-10.1-18.9-14.3c-3.8-2.4-7.9-4.4-12.1-6.1c-0.3-0.1-0.6,0.2-0.6,0.4c-0.2,4.9,1.2,9.7,2.9,14.2
				c1.6,4.4,3.4,8.8,5.2,13.2c3.5,8.6,7.2,17.2,11.6,25.3c2.6,4.6,5.4,9.1,8.6,13.4C1671.5,194.3,1672.4,193.8,1672,193.3
				L1672,193.3z" />
				</g>
			</g>
			<g>
				<g>
					<path fill="#1D1D1B" d="M1694.4,182.7c2.2-3.5,6-5.9,10.1-6.2c4.7-0.3,9.1,1.7,13.3,3.6c0.5,0.2,1-0.6,0.5-0.8
				c-4.6-2.1-9.5-4.3-14.6-3.7c-4.2,0.5-7.9,3-10.1,6.5C1693.2,182.7,1694,183.2,1694.4,182.7L1694.4,182.7z" />
				</g>
			</g>
			<g>
				<g>
					<path fill="#1D1D1B" d="M1719,179.6c-3.4-2.4-6.7-5-10.2-7.2c-3.2-2-6.7-3.5-10.4-4.5c-0.2,0-0.3,0-0.5,0.1
				c-4.1,4.4-8.6,9.7-7.1,16.2c0.1,0.6,1,0.3,0.9-0.2c-0.8-3.5,0.4-6.9,2.3-9.8c0.9-1.3,1.9-2.6,3-3.8c0.4-0.4,1-1.4,1.6-1.5
				c0.5-0.1,1.8,0.5,2.3,0.7c6.6,2.3,12,6.8,17.6,10.8C1719,180.8,1719.5,180,1719,179.6L1719,179.6z" />
				</g>
			</g>
			<g>
				<g>
					<path fill="#1D1D1B" d="M1691.6,179.1c-0.1,1.7,0.2,3.4,0.8,5c0.2,0.4,0.7,0.4,0.9,0c0.4-1.1,0.5-2.3,0.3-3.4
				c0-0.2-0.3-0.4-0.6-0.3c-0.3,0.1-0.4,0.3-0.3,0.6c0.2,1,0,2-0.3,2.9c0.3,0,0.6,0,0.9,0c-0.6-1.5-0.9-3.1-0.8-4.7
				c0-0.3-0.2-0.5-0.5-0.5C1691.8,178.6,1691.6,178.8,1691.6,179.1L1691.6,179.1z" />
				</g>
			</g>
			<g>
				<g>
					<path fill="#1D1D1B"
						d="M1694,173.5c-0.1,2.7-0.2,5.4-0.3,8.1c0,0.4,0.7,0.7,0.9,0.2c0.7-1.5,1-3.1,0.9-4.7c0-0.6-1-0.6-0.9,0
				c0.1,1.4-0.2,2.9-0.8,4.2c0.3,0.1,0.6,0.2,0.9,0.2c0.1-2.7,0.2-5.4,0.3-8.1C1694.9,172.9,1694,172.9,1694,173.5L1694,173.5z" />
				</g>
			</g>
			<g>
				<g>
					<path fill="#1D1D1B" d="M1695.2,173.9c-0.1,1.1-0.1,2.3-0.2,3.4c0,0.5,0.8,0.6,0.9,0.1c0.2-0.9,0.4-1.7,0.5-2.6
				c0.1-0.2-0.1-0.5-0.3-0.6c-0.2-0.1-0.5,0.1-0.6,0.3c-0.2,0.9-0.4,1.7-0.5,2.6c0.3,0,0.6,0.1,0.9,0.1c0.1-1.1,0.1-2.3,0.2-3.4
				c0-0.3-0.2-0.5-0.5-0.5C1695.4,173.5,1695.2,173.7,1695.2,173.9L1695.2,173.9z" />
				</g>
			</g>
			<g>
				<g>
					<path fill="#1D1D1B" d="M1695.8,173c-0.7,2-1.2,4.1-1.4,6.3c0,0.5,0.7,0.6,0.9,0.2c0.3-0.7,0.6-1.4,1-2.1
				c0.1-0.2,0.1-0.5-0.2-0.6c-0.2-0.1-0.5-0.1-0.6,0.2c-0.3,0.7-0.6,1.4-1,2.1c0.3,0.1,0.6,0.2,0.9,0.2c0.2-2,0.7-4.1,1.4-6
				C1696.9,172.7,1696,172.4,1695.8,173L1695.8,173z" />
				</g>
			</g>
			<g>
				<g>
					<path fill="#1D1D1B" d="M1698.8,171.6c-0.7,1.4-1.2,2.9-1.3,4.5c0,0.2,0.2,0.4,0.3,0.4c0.2,0.1,0.4,0,0.5-0.2
				c0.5-0.7,0.9-1.6,1.1-2.5c0.1-0.2-0.1-0.5-0.3-0.6c-0.2-0.1-0.5,0.1-0.6,0.3c-0.2,0.8-0.5,1.6-1,2.2c0.3,0.1,0.6,0.2,0.9,0.2
				c0.2-1.4,0.6-2.7,1.2-4c0.1-0.2,0.1-0.5-0.2-0.6C1699.2,171.3,1698.9,171.4,1698.8,171.6L1698.8,171.6z" />
				</g>
			</g>
			<g>
				<g>
					<path fill="#1D1D1B" d="M1699.9,171c-0.3,1.1-0.6,2.1-0.9,3.2c-0.1,0.2,0,0.4,0.2,0.5c0.2,0.1,0.4,0.1,0.6-0.1
				c0.5-0.4,0.8-1,0.8-1.7c0-0.3-0.2-0.5-0.5-0.5c-0.3,0-0.5,0.2-0.5,0.5c0,0.2-0.1,0.4-0.1,0.5c-0.1,0.2-0.2,0.3-0.4,0.5
				c0.3,0.2,0.5,0.3,0.8,0.5c0.3-1.1,0.6-2.1,0.9-3.2C1701,170.7,1700.1,170.4,1699.9,171L1699.9,171z" />
				</g>
			</g>
			<g>
				<g>
					<path fill="#1D1D1B" d="M1700.5,170.8c-0.3,1.6-0.7,3.2-1,4.8c0,0.2,0,0.5,0.3,0.5c0.2,0.1,0.5,0,0.6-0.2c0.5-1,1-2,1.7-2.9
				c0.1-0.2,0-0.5-0.2-0.6c-0.2-0.1-0.5,0-0.6,0.2c-0.6,0.9-1.2,1.9-1.7,2.9c0.3,0.1,0.6,0.2,0.8,0.4c0.3-1.6,0.7-3.2,1-4.8
				C1701.5,170.5,1700.6,170.2,1700.5,170.8L1700.5,170.8z" />
				</g>
			</g>
			<g>
				<g>
					<path fill="#1D1D1B" d="M1701,172.5c0.1,1,0.1,2,0.2,3c0,0.5,0.6,0.6,0.9,0.2c0.6-1,1.3-1.9,1.9-2.9c0.1-0.2,0-0.5-0.2-0.6
				c-0.2-0.1-0.5,0-0.6,0.2c-0.6,1-1.3,1.9-1.9,2.9c0.3,0.1,0.6,0.2,0.9,0.2c-0.1-1-0.1-2-0.2-3c0-0.2-0.2-0.5-0.5-0.5
				C1701.3,172.1,1701,172.3,1701,172.5L1701,172.5z" />
				</g>
			</g>
			<g>
				<g>
					<path fill="#1D1D1B" d="M1704.1,172.7c-0.1,0.8-0.2,1.7-0.2,2.5c0,0.5,0.7,0.6,0.9,0.2c0.4-0.8,0.8-1.5,1.2-2.3
				c-0.3-0.1-0.6-0.2-0.9-0.2c0.1,0.9,0,1.8-0.3,2.6c-0.1,0.3,0.2,0.7,0.6,0.6c0.5-0.2,0.8-0.6,1.1-1.1c0.1-0.1,0.2-0.4,0.3-0.5
				c0.1-0.1,0.3,0.2,0.4,0.4c0.9,1.2,2.4,1.9,3.9,1.8c0.6-0.1,0.6-1,0-0.9c-0.7,0.1-1.5-0.1-2.1-0.5c-0.3-0.2-0.6-0.4-0.8-0.7
				c-0.2-0.3-0.4-0.6-0.8-0.8c-0.5-0.3-1.1-0.1-1.5,0.3c-0.2,0.2-0.3,0.5-0.4,0.7c-0.1,0.2-0.2,0.4-0.4,0.4c0.2,0.2,0.4,0.4,0.6,0.6
				c0.3-0.9,0.4-1.9,0.3-2.9c0-0.4-0.6-0.7-0.9-0.2c-0.4,0.8-0.8,1.5-1.2,2.3c0.3,0.1,0.6,0.2,0.9,0.2c0.1-0.8,0.2-1.7,0.2-2.5
				C1705,172.1,1704.1,172.1,1704.1,172.7L1704.1,172.7z" />
				</g>
			</g>
			<g>
				<g>
					<path fill="#1D1D1B" d="M1741.7,166.2c0-1.9,1.2-3.7,3-4.3c1.8-0.6,3.9,0,5,1.5c0.4,0.5,1.2,0,0.8-0.5c-1.4-1.8-3.9-2.7-6.1-1.9
				c-2.2,0.7-3.7,2.9-3.7,5.2C1740.8,166.8,1741.7,166.8,1741.7,166.2L1741.7,166.2z" />
				</g>
			</g>
			<g>
				<g>
					<path fill="#1D1D1B" d="M1742.3,168.8c0.6-3,2.9-5.6,5.9-6.4c0.6-0.2,0.3-1-0.2-0.9c-3.3,0.9-5.9,3.7-6.6,7
				C1741.3,169.2,1742.2,169.4,1742.3,168.8L1742.3,168.8z" />
				</g>
			</g>
			<g>
				<g>
					<path fill="#1D1D1B" d="M1703.8,271.4c8.4,0.8,15.9,5.4,24.4,5.6c3.4,0.1,7-0.6,9.9-2.5c1.6-1.1,2.9-2.5,4.1-4
				c1.3-1.5,2.7-3,4.2-4.4c3.4-3.2,7.4-5.7,11.6-7.7c0.3-0.1,0.3-0.5,0.1-0.7c-1.8-2.1-3.2-4.6-4.1-7.2c-0.1,0.2-0.1,0.3-0.2,0.5
				c4.9-3.7,10-7,15.4-9.9c0.2-0.1,0.3-0.3,0.2-0.5c-1.9-6.2-3.4-12.5-4.1-18.9c-0.1-0.6-1-0.6-0.9,0c0.8,6.5,2.2,12.9,4.2,19.2
				c0.1-0.2,0.1-0.3,0.2-0.5c-5.4,2.9-10.5,6.2-15.4,9.9c-0.2,0.1-0.3,0.3-0.2,0.5c1,2.8,2.4,5.4,4.4,7.6c0-0.2,0.1-0.5,0.1-0.7
				c-3.4,1.6-6.7,3.6-9.6,5.9c-1.6,1.3-3,2.6-4.4,4.1c-1.4,1.5-2.6,3.1-4,4.5c-5.9,5.8-15,3.9-22,1.7c-4.5-1.4-9-3-13.7-3.4
				C1703.2,270.4,1703.2,271.3,1703.8,271.4L1703.8,271.4z" />
				</g>
			</g>
			<g>
				<g>
					<path fill="#1D1D1B" d="M1739.2,115.1c-2,8.3-3.5,16.8-4.5,25.3c-0.2,2-0.6,4-0.6,6c0,1.3,0.3,2.6,1.3,3.5
				c1.9,1.8,5.6,0.9,7.1,3.2c0.3,0.5,1.1,0,0.8-0.5c-1.4-2-3.9-1.9-6-2.7c-1.9-0.7-2.4-2.5-2.3-4.4c0.1-1.9,0.4-3.8,0.6-5.7
				c1-8.3,2.5-16.5,4.4-24.6C1740.2,114.7,1739.3,114.5,1739.2,115.1L1739.2,115.1z" />
				</g>
			</g>
			<g>
				<g>
					<path fill="#1D1D1B" d="M1794.6,205.7c-0.7,1.5-1.1,3.1-1.2,4.7c0,0.4,0.5,0.6,0.8,0.3c0.8-0.7,1.3-1.7,1.6-2.7
				c0.2-0.6-0.7-0.8-0.9-0.2c-0.3,0.9-0.7,1.6-1.4,2.3c0.3,0.1,0.5,0.2,0.8,0.3c0.1-1.5,0.5-2.9,1.1-4.2c0.1-0.2,0.1-0.5-0.2-0.6
				C1795,205.4,1794.7,205.4,1794.6,205.7L1794.6,205.7z" />
				</g>
			</g>
			<g>
				<g>
					<path fill="#1D1D1B" d="M1796,206.1c-0.2,0.9-0.5,1.8-0.7,2.7c-0.1,0.4,0.3,0.7,0.7,0.5c0.3-0.2,0.6-0.4,0.9-0.6
				c-0.2-0.1-0.5-0.2-0.7-0.3c0.1,0.4,0.3,0.7,0.4,1.1c0.1,0.2,0.3,0.4,0.6,0.3c0.2-0.1,0.4-0.3,0.3-0.6c-0.1-0.4-0.3-0.7-0.4-1.1
				c-0.1-0.3-0.4-0.4-0.7-0.3c-0.3,0.2-0.6,0.4-0.9,0.6c0.2,0.2,0.5,0.3,0.7,0.5c0.2-0.9,0.5-1.8,0.7-2.7c0.1-0.2-0.1-0.5-0.3-0.6
				C1796.3,205.7,1796.1,205.9,1796,206.1L1796,206.1z" />
				</g>
			</g>
			<g>
				<g>
					<path fill="#1D1D1B" d="M1793.4,205.5c1.8,1.3,4.1,2,6.3,1.9c0.6,0,0.6-0.9,0-0.9c-2.1,0.1-4.1-0.6-5.8-1.8
				c-0.2-0.1-0.5,0-0.6,0.2C1793.1,205,1793.2,205.3,1793.4,205.5L1793.4,205.5z" />
				</g>
			</g>
			<g>
				<g>
					<path fill="#1D1D1B" d="M1796.1,206.3c1.1,0.1,2.2,0.5,3,1.2c0.2,0.2,0.5,0.2,0.7,0c0.2-0.2,0.2-0.5,0-0.7
				c-1.1-0.9-2.3-1.4-3.7-1.5c-0.2,0-0.5,0.2-0.5,0.5C1795.7,206.1,1795.9,206.3,1796.1,206.3L1796.1,206.3z" />
				</g>
			</g>
			<path fill="#6A471E" d="M1671,175.4c1.1,1.6,2.6,3.3,4.4,2.9c0.4-0.1,0.7-0.2,0.9-0.5c0.2-0.3,0.2-0.6,0.3-0.9
		c0.5-4.4-2.2-8.6-4.9-12.1c-4.1-5.4-8.6-10.6-13.4-15.4c-0.9-0.9-1.7-1.5-2.8-1.8c-0.7,3.7,4.9,10.8,6.8,14.1
		C1665.1,166.4,1667.9,170.9,1671,175.4z" />
			<g>
				<g>
					<path fill="#1D1D1B" d="M1675.4,177.3c0.2,0.3,0.6,0.9,0.5,1.2c-0.3,0.4-0.6,0.8-0.9,1.1c-0.3-0.1-0.5-0.2-0.7-0.4
				c-0.7-0.5-1.1-1.2-1.5-1.9c-0.9-1.4-1.8-2.8-2.7-4.2c-1.8-2.8-3.5-5.6-5.2-8.5c-3.4-5.7-6.6-11.5-9.6-17.5
				c-0.3-0.5-1.1-0.1-0.8,0.5c3.8,7.6,8,15.1,12.5,22.3c1.1,1.7,2.2,3.5,3.3,5.2c1,1.5,2,3.5,3.4,4.7c0.8,0.6,1.9,1,2.7,0.3
				c1-0.9,0.4-2.4-0.2-3.4C1675.9,176.4,1675.1,176.8,1675.4,177.3L1675.4,177.3z" />
				</g>
			</g>
			<g>
				<g>
					<path fill="#1D1D1B" d="M1752.6,174.4c-0.6,0.6-0.9,1.5-0.8,2.3c0,0.2,0.1,0.3,0.2,0.4c0.1,0.1,0.3,0.1,0.5,0
				c0.3-0.2,0.5-0.5,0.6-0.9c0.1-0.3,0.1-0.7,0.1-1c-0.1-0.7-0.5-1.2-1.2-1.4c-0.1,0-0.4,0-0.5,0.1c-0.3,0.3-0.4,0.8-0.3,1.2
				c0.1,0.4,0.3,0.7,0.7,0.9c0.4,0.2,0.8,0.2,1.2-0.1c0.4-0.2,0.6-0.6,0.7-1.1c0-0.2-0.2-0.5-0.5-0.5c-0.3,0-0.4,0.2-0.5,0.5
				c0,0.1,0-0.1,0,0c0,0,0,0.1,0,0.1c0,0,0.1-0.1,0,0c0,0,0,0,0,0.1c0,0,0.1-0.1,0,0c0,0,0,0-0.1,0.1c-0.1,0.1,0,0,0,0
				c0,0-0.1,0-0.1,0c0,0-0.1,0-0.1,0c0,0,0.1,0,0,0c0,0,0,0-0.1,0c-0.1,0,0,0,0,0c0,0-0.1,0-0.1,0c-0.1,0,0,0,0,0c0,0-0.1,0-0.1,0
				c-0.1,0,0.1,0,0,0c0,0,0,0-0.1,0c-0.1,0,0,0.1,0,0c0,0,0,0-0.1-0.1c-0.1-0.1,0,0,0,0c0,0-0.1-0.1-0.1-0.1c0,0.1,0,0.1,0,0
				c0,0,0,0,0,0c0,0,0-0.1,0-0.1c0,0,0-0.1,0,0c0,0.1,0,0,0,0c0,0,0,0,0-0.1c0-0.1,0,0,0,0c0,0,0-0.1,0-0.1c0,0,0,0,0,0c0,0,0,0,0,0
				c0,0,0.1-0.2,0-0.1c-0.2,0-0.3,0.1-0.5,0.1c0,0,0,0,0.1,0c-0.1,0-0.1,0,0,0c0,0,0,0,0.1,0c0,0,0.1,0,0.1,0c0,0,0.1,0.1,0,0
				c0,0,0.1,0.1,0.1,0.1c0,0,0,0,0.1,0.1c0.1,0.1-0.1-0.1,0,0c0,0,0.1,0.1,0.1,0.1c0,0,0,0.1,0,0.1c0,0.1,0-0.1,0,0
				c0,0.1,0.1,0.2,0.1,0.3c0,0.1,0-0.1,0,0c0,0,0,0.1,0,0.1c0,0.1,0,0.1,0,0.2c0,0,0,0.1,0,0.1c0-0.1,0-0.1,0,0c0,0.1,0,0.1,0,0.2
				c0,0,0,0,0,0.1c0,0.1,0-0.1,0,0c0,0,0,0.1-0.1,0.1c0,0,0,0,0,0.1c0.1-0.1,0,0,0,0c0,0,0,0-0.1,0.1c0,0-0.1,0.1,0,0
				c0.2,0.1,0.5,0.3,0.7,0.4c0-0.2,0-0.4,0-0.5c0,0.1,0,0,0,0c0,0,0-0.1,0-0.1c0-0.1,0-0.2,0.1-0.3c0,0,0-0.1,0-0.1c0,0.1,0,0,0,0
				c0-0.1,0.1-0.1,0.1-0.2c0,0,0-0.1,0.1-0.1c0,0,0,0,0,0c0,0,0,0,0,0c0.1-0.1,0.1-0.1,0.2-0.2c0.2-0.2,0.2-0.5,0-0.7
				C1753.1,174.3,1752.8,174.2,1752.6,174.4L1752.6,174.4z" />
				</g>
			</g>
			<g>
				<g>
					<path fill="#1D1D1B" d="M1752.7,173.3c-0.2-0.2-0.5-0.3-0.7-0.4c-0.1,0-0.3,0-0.4,0c-0.2,0-0.3,0.1-0.5,0.1
				c-0.3,0.1-0.5,0.4-0.6,0.6c-0.1,0.4,0.1,0.7,0.4,0.9c0.1,0.1,0.3,0.2,0.5,0.2c0.2,0,0.4-0.1,0.6-0.2c0.1-0.1,0.1-0.2,0.1-0.3
				c0-0.1-0.1-0.2-0.1-0.3c-0.1-0.1-0.2-0.1-0.3-0.1c-0.1,0-0.2,0.1-0.3,0.1c0,0,0,0,0,0c0,0,0.1,0,0.1-0.1c0,0-0.1,0-0.1,0
				c0,0,0.1,0,0.1,0c0,0,0,0-0.1,0c0,0,0.1,0,0.1,0c0,0-0.1,0-0.1,0c0,0,0.1,0,0.1,0c0,0-0.1,0-0.1,0c0,0,0.1,0,0.1,0
				c0,0-0.1,0-0.1-0.1c0,0,0.1,0,0.1,0.1c0,0-0.1-0.1-0.1-0.1c0,0,0,0.1,0.1,0.1c0,0,0-0.1-0.1-0.1c0,0,0,0.1,0,0.1c0,0,0-0.1,0-0.1
				c0,0,0,0.1,0,0.1c0,0,0-0.1,0-0.1c0,0,0,0.1,0,0.1c0,0,0,0,0-0.1c0,0,0,0.1,0,0.1c0,0,0,0,0,0c0,0,0,0.1-0.1,0.1
				c0-0.1,0.1-0.1,0.2-0.2c0,0-0.1,0-0.1,0.1c0.1,0,0.1-0.1,0.2-0.1c0,0-0.1,0-0.1,0c0.1,0,0.2-0.1,0.3-0.1c0,0-0.1,0-0.1,0
				c0.1,0,0.2,0,0.3,0c0,0-0.1,0-0.1,0c0.1,0,0.2,0,0.3,0.1c0,0-0.1,0-0.1,0c0.1,0,0.1,0.1,0.2,0.1c0,0-0.1,0-0.1-0.1
				c0,0,0.1,0.1,0.1,0.1c0.2,0.2,0.5,0.2,0.7,0C1752.8,173.8,1752.8,173.5,1752.7,173.3L1752.7,173.3z" />
				</g>
			</g>
			<g>
				<g>
					<path fill="#1D1D1B" d="M1751.4,176.2c0.2-0.1,0.4-0.3,0.6-0.4c-0.2,0-0.4,0-0.6-0.1c0,0,0,0,0,0c0,0,0-0.1-0.1-0.1c0,0,0,0,0,0
				c0,0,0-0.1,0-0.1c0,0,0,0,0,0c0,0,0-0.1,0-0.1c0,0,0,0,0,0c0,0,0-0.1,0-0.1c0,0,0,0,0,0c0,0,0-0.1,0-0.1c0,0,0,0,0,0.1
				c0,0,0-0.1,0.1-0.1c0,0,0,0-0.1,0.1c0,0,0.1,0,0.1-0.1c0,0,0,0-0.1,0c0,0,0.1,0,0.1,0c0,0,0,0-0.1,0c0,0,0.1,0,0.1,0
				c0,0,0,0-0.1,0c0,0,0.1,0,0.1,0c0,0,0,0-0.1,0c0,0,0.1,0,0.1,0c0,0,0,0-0.1,0c0,0,0.1,0,0.1,0.1c0,0-0.1,0-0.1-0.1
				c0,0,0,0.1,0.1,0.1c0,0,0-0.1-0.1-0.1c0,0,0,0.1,0,0.1c0-0.1-0.1-0.2-0.1-0.2c0,0,0,0.1,0,0.1c0-0.2,0-0.4-0.1-0.6
				c-0.1-0.3-0.2-0.5-0.4-0.6c-0.1-0.1-0.3-0.1-0.4,0c-0.1,0-0.2,0.1-0.3,0.2c-0.1,0.1-0.1,0.2,0,0.4c0,0.1,0.1,0.2,0.2,0.3
				c0,0,0,0,0,0c0,0-0.1,0-0.1-0.1c0,0,0,0,0.1,0.1c0,0,0-0.1-0.1-0.1c0,0,0,0.1,0.1,0.1c0,0,0-0.1,0-0.1c0,0.1,0,0.2,0.1,0.2
				c0,0,0-0.1,0-0.1c0,0.2,0,0.4,0.1,0.6C1750.9,175.8,1751.1,176,1751.4,176.2c0.2,0,0.5-0.1,0.7-0.3c0.1-0.1,0.2-0.3,0.2-0.5
				c0-0.2-0.1-0.3-0.2-0.4c-0.1-0.1-0.2-0.1-0.3-0.1c-0.1,0-0.2,0-0.3,0.1c-0.2,0.1-0.4,0.3-0.6,0.4c-0.1,0.1-0.2,0.2-0.2,0.3
				c0,0.1,0,0.3,0,0.4c0.1,0.1,0.2,0.2,0.3,0.2C1751.2,176.2,1751.3,176.2,1751.4,176.2L1751.4,176.2z" />
				</g>
			</g>
			<g>
				<g>
					<path fill="#1D1D1B" d="M1752.3,174.3C1752.3,174.3,1752.3,174.3,1752.3,174.3C1752.3,174.3,1752.2,174.3,1752.3,174.3
				C1752.2,174.3,1752.3,174.3,1752.3,174.3C1752.3,174.3,1752.3,174.3,1752.3,174.3C1752.3,174.3,1752.3,174.3,1752.3,174.3
				C1752.3,174.3,1752.3,174.3,1752.3,174.3C1752.3,174.3,1752.3,174.3,1752.3,174.3C1752.3,174.3,1752.3,174.3,1752.3,174.3
				c0,0,0,0.1,0,0.1C1752.3,174.4,1752.3,174.3,1752.3,174.3c0,0,0,0.1,0,0.1c0,0.1,0,0.1,0,0.2c0,0.1,0.1,0.1,0.1,0.1
				c0,0,0.1,0.1,0.1,0.1c0.1,0,0.1,0,0.2,0c0.1,0,0.2,0,0.3-0.1c0,0,0-0.1,0.1-0.1c0-0.1,0.1-0.2,0.1-0.2c0-0.1,0-0.2,0-0.3
				c0,0,0-0.1,0-0.1c0-0.1,0-0.1-0.1-0.2c0-0.1-0.1-0.1-0.1-0.2c0,0,0,0-0.1-0.1c-0.1,0-0.1-0.1-0.2-0.1c-0.1,0-0.1-0.1-0.2-0.1
				c-0.1,0-0.1,0-0.2,0c-0.1,0-0.1,0-0.2,0.1c-0.1,0-0.1,0.1-0.1,0.1c0,0-0.1,0.1-0.1,0.2c0,0.1,0,0.3,0,0.4c0,0,0,0.1,0.1,0.1
				C1752.2,174.2,1752.2,174.3,1752.3,174.3L1752.3,174.3z" />
				</g>
			</g>
			<g>
				<g>
					<path fill="#1D1D1B" d="M1792.5,207.3c-0.5,1.6-1.2,3.2-2.2,4.6c-0.2,0.3,0.1,0.7,0.4,0.7c0.6,0,0.9-0.5,1.3-0.9
				c0.4-0.5,0.8-1.1,1.3-1.6c-0.2-0.2-0.5-0.4-0.7-0.6c-0.3,0.6-0.6,1.2-0.9,1.8c-0.2,0.4,0.2,0.9,0.6,0.6c0.2-0.1,0.5-0.3,0.7-0.4
				c-0.2-0.1-0.5-0.3-0.7-0.4c0,0.1,0,0.3,0,0.4c0,0.3,0.3,0.6,0.6,0.4c0.5-0.2,0.8-0.5,1-1c0.1-0.3-0.2-0.6-0.4-0.6
				c-0.2,0-0.4,0-0.5,0.2c-0.1,0.1-0.2,0.1-0.2,0.2c0,0,0.1,0,0.1,0c0,0,0,0,0,0c0,0,0-0.2,0-0.3c0-0.1,0.1-0.2,0.1-0.3
				c0.1-0.3,0.2-0.5,0.3-0.8c0.4-1,0.9-2,1.4-3c0.2-0.4-0.2-0.9-0.6-0.6c-0.4,0.3-0.7,0.6-1.1,0.8c-0.2,0.2-0.3,0.4-0.2,0.6
				c0.1,0.2,0.4,0.3,0.6,0.2c0.4-0.3,0.7-0.6,1.1-0.8c-0.2-0.2-0.4-0.4-0.6-0.6c-0.6,1.3-1.2,2.6-1.7,3.9c-0.2,0.6-0.4,1.2,0.1,1.7
				c0.2,0.2,0.5,0.3,0.8,0.2c0.1,0,0.2-0.1,0.3-0.2c0,0,0.1-0.1,0.1-0.1c0.1-0.1,0,0,0.1,0c-0.1-0.2-0.3-0.4-0.4-0.6
				c-0.1,0.2-0.2,0.3-0.3,0.3c0.2,0.1,0.4,0.3,0.6,0.4c0-0.1,0-0.3,0-0.4c0-0.4-0.4-0.6-0.7-0.4c-0.2,0.1-0.5,0.3-0.7,0.4
				c0.2,0.2,0.4,0.4,0.6,0.6c0.3-0.6,0.6-1.2,0.9-1.8c0.1-0.2,0.1-0.5-0.1-0.6c-0.2-0.1-0.5-0.1-0.6,0c-0.3,0.4-0.7,0.9-1,1.3
				c-0.2,0.2-0.3,0.4-0.5,0.6c-0.1,0.1-0.2,0.3-0.4,0.3c0.1,0.2,0.3,0.5,0.4,0.7c1-1.5,1.7-3.1,2.2-4.8
				C1793.5,207,1792.7,206.7,1792.5,207.3L1792.5,207.3z" />
				</g>
			</g>
			<g>
				<g>
					<path fill="#1D1D1B" d="M1794.7,212.2c2-1.2,3.6-2.9,4.9-4.9c0.3-0.5-0.5-1-0.8-0.5c-1.2,1.8-2.7,3.4-4.6,4.5
				C1793.8,211.7,1794.2,212.5,1794.7,212.2L1794.7,212.2z" />
				</g>
			</g>
			<g>
				<g>
					<path fill="#1D1D1B" d="M1697,176.4C1697,176.5,1697,176.5,1697,176.4c-0.4,0.6,0.4,1,0.8,0.6c0.8-1,1.3-2.2,1.5-3.5
				c0.1-0.4-0.4-0.8-0.8-0.5c-0.4,0.4-0.7,0.8-1.1,1.3c0.3,0.2,0.5,0.3,0.8,0.5c0.6-1.4,0.7-3,0.3-4.5c-0.1-0.4-0.5-0.4-0.8-0.2
				c-1.4,1.3-2.8,2.6-3.6,4.3c-0.7,1.4-1.1,3.2-2.5,4.2c-0.2,0.1-0.3,0.5-0.1,0.7c1,0.8,2-0.1,2.6-1c0.9-1.3,1.8-2.7,2.7-4.1
				c0.9-1.2,2.1-2.2,3.7-2.1c1.4,0.1,2.6,1.2,4.1,1.1c0.3,0,0.6-0.4,0.4-0.7c-1.2-1.7-3.2-2.5-5.3-2.1c-0.5,0.1-0.4,0.8,0,0.9
				c0.1,0,0.2,0.1,0.3,0.1c0.6,0.2,0.8-0.7,0.2-0.9c-0.1,0-0.2-0.1-0.3-0.1c0,0.3,0,0.6,0,0.9c1.6-0.3,3.3,0.3,4.2,1.7
				c0.1-0.2,0.3-0.5,0.4-0.7c-1.3,0.1-2.5-0.9-3.8-1.1c-1.2-0.2-2.4,0.2-3.4,0.9c-1,0.8-1.7,1.9-2.4,3c-0.3,0.4-2.3,3.9-2.9,3.4
				c0,0.2-0.1,0.5-0.1,0.7c1.4-0.9,2-2.5,2.7-4c0.8-1.9,2.2-3.2,3.7-4.6c-0.3-0.1-0.5-0.1-0.8-0.2c0.3,1.4,0.2,2.7-0.3,4
				c-0.2,0.4,0.5,0.8,0.8,0.5c0.4-0.4,0.7-0.8,1.1-1.3c-0.3-0.2-0.5-0.3-0.8-0.5C1698.2,174.4,1697.8,175.5,1697,176.4
				c0.2,0.3,0.5,0.4,0.8,0.6c0.2-0.3,0.2-0.7,0-1C1697.6,175.4,1696.8,175.9,1697,176.4L1697,176.4z" />
				</g>
			</g>
			<g>
				<g>
					<path fill="#1D1D1B" d="M1699.5,170.1c-0.2,0-0.2-0.1-0.2-0.2c-0.2,0.1-0.5,0.2-0.7,0.3c2,1.2,4,2.4,6,3.5c1.7,1,3.6,2.1,5.7,2.1
				c0.6,0,0.6-0.9,0-0.9c-2.1,0-3.9-1.1-5.6-2.2c-1.9-1.1-3.8-2.2-5.6-3.3c-0.3-0.1-0.6,0-0.7,0.3c-0.2,0.6,0.2,1.3,0.9,1.4
				C1699.9,171.1,1700.1,170.2,1699.5,170.1L1699.5,170.1z" />
				</g>
			</g>
			<g>
				<g>
					<path fill="#1D1D1B" d="M1695.3,179.1c2-1.3,4-2.6,6-3.8c0.5-0.3,0-1.1-0.5-0.8c-2,1.3-4,2.6-6,3.8
				C1694.3,178.6,1694.8,179.4,1695.3,179.1L1695.3,179.1z" />
				</g>
			</g>
			<g>
				<g>
					<path fill="#1D1D1B" d="M1741.5,169.3c-0.2-1.1,0.1-2.3,0.7-3.3c0.3-0.5-0.5-1-0.8-0.5c-0.7,1.2-1,2.6-0.8,4
				c0,0.2,0.3,0.4,0.6,0.3C1741.5,169.8,1741.6,169.6,1741.5,169.3L1741.5,169.3z" />
				</g>
			</g>
			<g>
				<path fill="#FFFFFF" d="M1754,289.9c0.1,0.2,0.3,0,0.5,0.1c-0.1-0.2,0.3-0.8-0.1-0.5c0.5-0.4,3.6-4.6,4.3-3.9
			c1.9-1,3.6-0.5,5.2-0.4c0.4,0.1,0.8-0.3,1.3-0.2c0.2,0,0.5,0.4,0.8,0.3c0.3,0.1,0.5-0.3,0.7-0.3c0.6,0,0.9,0.4,1.3,0.5
			c0.7,0.1,1.4-0.1,2.1,0.2l0.2,0.6c1.1,0.3-0.4,4.2,0.2,4.9c-0.6,0-0.1,0.5-0.7,0.5c0.2,0.5,0.2,0.8,0.2,0.9c-0.7,0.2-1,0.4-1,0.8
			c-2.4,0.1-2.8,1.5-4.6,2.4c0.1,1.2-1,1.8-0.5,3.2c-1.4,1.3-0.7,3.5,0,5.6c2.4,0.1,5.9-0.7,8.5-0.5c0.9,0.1,1.8,0.6,2.5,0.6
			c0.3,0.1,0.5-0.3,0.7-0.1s0.5,0.4,0.8,0.5c0.3,0.1,0.4-0.2,0.7-0.1c0.4,0.1,0.7,0.6,1.2,0.7c0.2,0,0.4-0.2,0.5-0.1
			c0.1,0,0.1,0.4,0.2,0.4c0.7,0.3,1.4,0.2,2,0.5c0.6,0.4,0.8,1.2,1.5,1.3c0.1,0.2,0.1,0.3,0.1,0.6c0.6,0,0.7,1,1.2,0.7
			c0.3,0.5,0.1,1.8,0.9,2.4c-0.1,1.2,0.6,2.7,0.7,4c0,1,0,2.1-0.7,2.7c0,0.2,0,0.4,0.1,0.7c-1,0.8-0.8,2.4-2,3.1
			c-0.6,0.8-0.4,2-1.8,2.5c-0.7,1.5-3.5,2.2-4.2,3.7c-0.5,0.3-1.5,0.3-1.3,0.9c-0.8,0.3-1.8,0.6-1.8,1.3c-0.5,0.3-0.6-0.3-0.7,0.3
			c-0.3,0.3-0.2-0.4-0.5,0c-1.1,1.1-3.1,1.4-4.3,1.5c-0.2,0.1-0.2-0.3-0.3-0.4c-0.8,1-2-0.5-2.9,0.5c-0.3-0.1-0.1-0.1-0.2-0.5
			c0,1-1.3-0.5-1.2,0.3c-0.2-0.3-1-0.1-0.8-0.6c-0.2,0.1-0.7,0.1-0.6,0.4c-1.7-1.3-3.8-1.4-5.3-3c-0.3,0.2-0.4-0.1-0.7,0.1
			c-0.6,0,0.2,0.7-0.4,0.6c-0.4-0.7-1.1-0.9-0.9-1.7c-0.3-0.1-0.5-0.2-0.8-0.1c-0.5-1.2,0.8-2.7-0.4-3.5c1.2-0.8,1.1-2.3,2-3.2
			l0.1,0.3c0.5-0.1,0.3-0.5,0.5-0.7c0.3,0.5,0.9,0.2,1.4,0.1c0,0.2,0.5,0.4,0.2,0.6c0.5-0.3,1.1,0.3,1.7,0.3c0.3,0,0.1-0.2,0.2-0.5
			c-0.3-0.5-0.8-0.5-1-1c-0.1-0.2,0.8,0.1,0.8-0.5c1.2,0.7,2.5,0.6,3.8,0.7c0.5,1.2,1.8,0.7,2.4,1.6c1.7-0.4,1.9-1.6,3.3-2.2
			c0.5-0.4,0.5-1.1,0.9-1.6c0.7-0.9,2.3-1.3,2-2.8c-0.5-0.4-0.6-1.3-1-2c-1.4-1-3.1-1.5-4.9-1.9c-1,0.5-1.9,0.1-2.7,0.1
			c-1.2,0.1-2.5,0.3-3.6,0.2c-0.4-0.1-0.8-0.5-1.3-0.6c-0.3-0.1-0.5,0.3-0.7,0.1c-0.9-0.1-1.4-0.6-2.1-0.9c-0.7-0.3-2.5-1.3-3.1-2
			c-0.1-0.2,0.2-0.2,0.2-0.3c-0.2-0.5-0.7-0.5-1.1-0.9c-0.5-0.7-1.7-3-1.6-4.2c0-0.1,0.3-0.2,0.3-0.3c-0.1-0.8-0.7-1.6-0.6-2.8
			c0.2,0,0.2-0.2,0.4-0.3c-0.5-2.9,1-5.2,1.6-7.7c0.4-0.4,1-0.6,0.7-1.2c0.9-0.4,1-1,1.7-1.5C1754.3,289,1753.9,289.7,1754,289.9z
			 M1756.6,323c0.5-0.3,0.6,0.7,1.1,0.4c0-0.6-0.5-0.8-0.5-1.5c-0.3-0.1-0.6,0.1-1,0.2L1756.6,323z" />
				<path fill="#FFFFFF" d="M1814,266.5c1.8,1.9,3.3,4.3,5.1,5.4c2.5,2.5,6.9,7.4,9.9,10.6c1,1,2.1,2,2.2,2.8c0.2,0.5-0.4,0.9,0.3,1.4
			c-0.5,0.4,0.2,0.7-0.4,0.5c-0.2,1.1-1,2-1.7,3c-0.1,1.3,0.7,1-0.6,1.7c-0.8,1.6-3.3,2.9-5.2,4l-0.4-0.4c-0.3,0.4,0,0.3-0.5,0.5
			c-0.2-0.1-0.1-0.3,0.1-0.4c-4.4-1.2-13.1-6.3-17.4-8.6c-4.5-3.1-10-6.3-14.3-7.5c-0.2,0.9,1.4,1.4,0.9,2.3
			c1.5,1.5,3.7,4.1,5.2,4.5c1.3,2.1,3.7,3.1,5.4,5.6c2.6,1.4,6.7,7.5,9.3,9.5c-0.4,0.3,0.4,0.5-0.2,0.7c0.3,0,0.6,0,0.6,0.1
			c1,0.7,1,1.5,1.5,2.4c-0.2,0.7-0.4,1.4,0,2.1c-1.2,1.8-1.7,3.1-2.5,4.7c-0.1,0.1-0.2,0-0.4-0.2c-1.1,1.2-2.1,1.3-2.3,2.6
			c-0.4,0-0.8-0.2-1.2,0.4c-0.8-0.5-0.9-1.3-2-1.2c0.4-0.3-0.1-0.6,0.5-0.8c-3.3-3.6-10.3-10-14.3-13.1c-0.4-0.3-0.2-0.3-0.5-0.5
			c-2.1-1.5-3.6-4.2-5.7-5.4c-0.5-0.2,0.3-0.3,0-0.5c-0.2-0.5-0.4-0.1-0.7-0.4c0.2-0.8-2-2.2-2.7-2.8c0.1-0.2,0.2-0.4,0.3-0.5
			c-2-2.7-3.7-6.2-3-9.2c-0.4-0.7,0.1-1.3,0.2-2.6c0-0.8,0-1.5,0.2-2.1c0.9-2.5,3.3-4.5,5.6-6.8c0.1,0.9,0.2-0.4,0.8,0.2
			c0.6-0.7,1.2-1,1.8-0.7c-0.1-0.3,0.1-0.5,0.4-0.7c0.2-0.1,0.4-0.2,0.5-0.2c0.4-0.4,0.2,0.2-0.1,0.3c0.3,0.2,0.6,0,0.5-0.3
			c0.6-0.3,1.1-0.3,1.7-0.6c2.3,0.9,6,2.8,8.3,3.2c1,1.3,2,0.5,3.1,1.6c0.1,0,0.3,0.1,0.4,0.1c-0.2-0.2-0.4-0.5-0.6-0.7
			c0-1.5-5.7-6.4-6.5-7.6c-0.6-1.4-0.1-2.6-0.4-3.9c0.2-0.5,0.7-0.9,1-1.7c0.1-0.2,0-0.6,0.1-0.8c0-0.4,0.5-0.5,0.6-0.7
			c0,0-0.1-0.1-0.1-0.2c-0.1-0.1-0.1-0.1-0.1-0.2c0.1-0.1,1.3,0.2,0.4-0.3c0.6-0.2,1.2-0.5,1.8-0.9c0.8,0.1,2.4,0.4,2.6,0.6
			c0.1,0.2,1.2,1.1,2.2,2.1c0.6,0.5,1.3,1.2,2,1.9l0.1-0.2c1.3,1.6,3.9,4.5,4.8,4.9C1812,264.5,1813,265.9,1814,266.5z" />
				<path fill="#FFFFFF" d="M1804.3,244.2c0.1-0.3-0.1-0.5-0.1-0.7c0.8-2.2,2.5-3.3,4.2-3.9c1.6,1.2,3.4-0.3,4.3,1
			c2.2-0.3,2.5,2.6,4.1,3.1c-0.2,0.3-0.2,0.9-0.6,0.9c-0.2,0.5,0.2,0.8,0.3,1.1c-0.8,1.8-1.5,3.1-2.8,4c-0.7,0.6-1.4,1.1-2.1,2
			c-2.1,0.2-4,0-6.4-1.1c-0.2-0.4-0.2,0.4-0.6,0c-0.3-1-1.8-0.9-2.2-1c-0.2-0.1,0-0.2,0.1-0.4c-0.4-0.3-0.7-0.5-0.8-0.7
			c0.5-1.1,0.2-2.1,1-3.2C1803.5,245.3,1803.5,244.1,1804.3,244.2z M1820.1,249.9c0.6-0.9,1.3-1.4,2-1.3c0.2-0.1,0.3-0.2,0.2-0.3
			c3-0.6,6.3,0.1,9.8,1.5c-0.2,0.2,1.1,0.5,1.4,0.4c1.3,0.6,2.7,1.5,4,1.7c2,2,8.6,3.6,10.6,5.8c-0.6,0.8-0.1,1.3-0.8,1.9
			c0.7,0.4,0.4-0.1,0.8,0.5c-0.9,0.3-1.5,1.8-2.5,1.7c0.1,0.4-0.1,0.8,0.5,1c0.1,1.1-0.9,1.8-1.8,2.6c-0.9,0.6-1,1.1-1.8,0.8
			c-0.1,0.4-0.6,0.6-0.2,1.1c-0.4,0.2-0.8,0.2-0.9,0.8c-0.6-0.6-0.9-0.1-1.3,0.1c-0.1-0.3-0.9-0.2-0.4-0.6c-0.2-0.3-0.3,0-0.6,0.1
			c-3.2-1.8-9.4-6.2-13.2-7.7c-0.1-0.1-0.2,0-0.3,0.1c-1.5-1.4-4.4-1.9-6-3.6c-1.3,0.5-1.9-1.2-2.9-1.3c0.2-0.6,0.4-0.5,0.4-1.1
			c-0.3-0.5-0.3,0.2-0.8-0.1C1817.7,252.4,1818.5,250.4,1820.1,249.9z" />
				<path fill="#FFFFFF" d="M1812.8,208c0.6-0.4,1.3-0.5,1.7-1.3c0.3,0,0.9,0.3,0.8-0.3c0.5,0.1,0.4,0.1,1,0.1
			c0.3-0.5-0.6-0.1-0.4-0.6c0.5,0.3,0.4-0.2,0.5-0.5c0.9-0.1,1.4-0.7,2.1-1.1c0.7,0,0.9,0.3,1.5,0.4c0.3,0.9,0.6,1.4,1.2,2
			c0.1,3.3-1.4,6-0.3,8.4c-0.2,1.7,0.5,3.1,0.6,4.3c0.7,0.9,0.6,2.2,1.1,3.1c1.2-0.4,2.9,0.3,4.1-0.1c1.1,0.2,3.7,0.7,5.7,0.8
			c-0.7-3-0.4-7.3-2.4-9.4c0.1-1,0-1.7-0.3-2.1c0.3-0.6,0.4-1.2,1-1.4c0.1-1.1,0.3-1.2,0.9-1.9c0.3,0.3,0.4,0.4,0.9,0.4
			c-0.5-0.9-0.1-1.2,0.3-2c1-0.1,0.5,1,1.3,0.9c-0.2-0.4-0.2-0.9-0.7-1.2c1.1-0.1,1.1-1.1,1.4-1.6c0.3-0.3,0.4,0.3,0.3,0.8
			c0.8,0,0.4-0.5,0.7-1c0.3,0,0.6,0.2,0.9,0.1c-0.1-0.5,0-0.9,0.2-1.3c0.2,0,0.9-0.2,0.6,0.3c0.4,0.1,0.1-0.8,0.6-0.5
			c0,0.5-0.1,1,0.8,0.9c-0.1,0.9,0.3,1.4,0.4,2.2c0,0.3-0.2,0.1-0.3,0.3c0,0.3,0.3,0.3,0.3,0.6c-0.5,1.7,1,2.8,0.4,4.9
			c0.6,0.6,0.5,1.8,0.4,2.5c0.9,1.3,0.3,3.7,0.6,5.5c0.2,0.3,0.4,0.2,0.6,0.3c-0.3,1.7,0,2.7,0,4.1c1-0.4,1.7,0.5,2.3,0.1
			c0.3,0,0.2,0.5,0.7,0.3c1.2-0.4,2.5,0.2,4.3,0.2c0,0.2,0,0.4,0.1,0.4c0.4,0.1,0.5,0.1,0.5-0.3c0.5,0.1,0.5,0.4,0.8,0.5
			c0.3-0.3,0.2-0.4,0.2-0.4s0,0.1,0.5,0.5c1.9-0.7,1.5-0.3,3.3-0.7c1,1.1,2.5-0.2,3.7,0.7c-0.2,0.9-0.4,2.1-1.4,1.6
			c-0.3,0.8,0.6,0.5,1.1,0.8l-0.1,0.7c0.5,0.1,0.4-0.2,0.7-0.4c0.2,0.7,0.5,0,0.9,0.4c-0.4,0.2-0.8,0.6-1.1,1.1
			c-0.4-0.6-0.5,0.3-1,0.2c0.5,0.9,1.2,0.5,2,0.9c-0.3,0.3-0.5,0.6-0.8,0.9c-0.5,0.1-0.2-0.4-0.4-0.5c-0.3,0.5-0.2,0.7,0,1.2
			c-0.5-0.5-0.9-0.6-2-0.9c-0.3,0.3,0,0.8-0.3,1.4c0.3,0.3,1.9,0.8,2,0c0.1,0.5,0,1.4-0.6,1.6c-0.1,0.5,0.2,0.4,0.4,0.7
			c-0.1,1.4-1.2,1.6-1.6,2.6c-0.4,0-0.7-0.8-0.8,0c-0.8-0.5-1.3,0.1-2,0.2c-1.3,0-2.9-0.5-4.4-0.6c-2.1-0.3,1.1-0.7-0.9-0.3
			c-0.6-0.3-2.7-0.1-3.6-0.9c-0.2,0-0.4,0.2-0.5,0.5c-1.2-0.4-2.2-0.2-3-0.8c-0.2,0-0.1,0.2,0,0.2c-7.9-0.7-14-2.2-21.2-3.6
			c-0.3,0.3-0.7,0.6-1.2,0.7c-0.9-0.6-2.2,0.5-3,1.1c-0.2-0.1-0.1-0.5-0.5-0.4c-0.3,0.3-0.3,0.6-0.9,0.8c-0.2-0.3,0-0.1,0.1-0.5
			c-0.4,0.5-0.9-0.3-1.5-0.3c0.1-0.6-0.4-0.7-0.5-1c-0.1-0.5,0.4-0.2,0.4-0.5c-0.2-0.6-0.3,0.3-0.7,0.1c-0.9-1.2,0-4.7,0.9-5.6
			c0-2.5-1.2-4.4-1.4-7c-0.1-0.6,0.3-1.3-0.1-1.9c0.5-2-0.2-3.1-0.3-4.7c-1-1.2,0.2-2.2,0.8-3c0.7-0.9,0.9-2.1,1.6-2.3
			c-0.4-0.7,0.1,0.2,0.4,0.1C1813.2,208.4,1812.7,208.3,1812.8,208z M1833.1,207.9c-0.3,0.2-0.4-0.4-0.4-0.1c0.1,0,0.1,0.2-0.1,0.4
			C1833,208.2,1833.2,208.1,1833.1,207.9z" />
			</g>
		</g>
		<g id="button-start">
			<g>
				<path fill="#819777" d="M1291,732H611c-29.8,0-54-24.2-54-54v-8c0-29.8,24.2-54,54-54h680c29.8,0,54,24.2,54,54v8
			C1345,707.8,1320.8,732,1291,732z" />
			</g>
			<g>
				<path fill="#9AB48E" d="M1283,721H603c-29.8,0-54-24.2-54-54v-8c0-29.8,24.2-54,54-54h680c29.8,0,54,24.2,54,54v8
			C1337,696.8,1312.8,721,1283,721z" />
			</g>
			<rect x="618" y="611" fill="none" width="657" height="138" />
			<text transform="matrix(1 0 0 1 766.2793 701.3799)" fill="#FFFFFF" font-family: "'Roboto'"
				font-size="7.5em">START</text>
		</g>
		<g>
			<path fill="#819777" d="M1386,875H537c-29.8,0-54-24.2-54-54v-8c0-29.8,24.2-54,54-54h849c29.8,0,54,24.2,54,54v8
		C1440,850.8,1415.8,875,1386,875z" />
		</g>
		<g id="button-achievements">
			<g>
				<path fill="#9AB48E" d="M1381,865H532c-29.8,0-54-24.2-54-54v-8c0-29.8,24.2-54,54-54h849c29.8,0,54,24.2,54,54v8
			C1435,840.8,1410.8,865,1381,865z" />
			</g>
			<rect x="529" y="762" fill="none" width="865" height="138" />
			<text transform="matrix(1 0 0 1 556.0898 844.791)" fill="#FFFFFF" font-family: "'Roboto'"
				font-size="6.5em">ACHIEVEMENTS</text>
		</g>
		<rect x="418" y="268" fill="none" width="1056" height="254.7" />
		<text transform="matrix(1 0 0 1 424.9307 364.5898)" fill="#705452" font-family: "'Roboto'"
			font-size="7.5em">CATCH
			AND SAVE</text>
	</g>
</svg>