<?xml version="1.0" encoding="utf-8"?>
<!-- Generator: Adobe Illustrator 24.1.2, SVG Export Plug-In . SVG Version: 6.00 Build 0)  -->
<svg id="water" xmlns="http://www.w3.org/2000/svg" viewBox="0 0 108.51 65.85" width='100' height='100'>
    <g>
        <g>
            <path
                d="M64.81,33.51A26.52,26.52,0,0,1,91.53,7.19L106,7.3a2.49,2.49,0,0,1,2.47,2.5A10.71,10.71,0,0,1,97.73,20.42l4.23,0a2.49,2.49,0,0,1,2.47,2.5A10.7,10.7,0,0,1,93.66,33.57l4.22,0a2.48,2.48,0,0,1,2.47,2.5A10.7,10.7,0,0,1,89.58,46.72l-24.77-.23Z"
                fill="#e9e8e8" />
            <path
                d="M43.7,33.51A26.53,26.53,0,0,0,17,7.19L2.47,7.3A2.48,2.48,0,0,0,0,9.8,10.7,10.7,0,0,0,10.77,20.42l-4.22,0A2.48,2.48,0,0,0,4.08,23,10.7,10.7,0,0,0,14.85,33.57l-4.23,0a2.48,2.48,0,0,0-2.46,2.5A10.69,10.69,0,0,0,18.93,46.72l24.77-.23Z"
                fill="#e9e8e8" />
        </g>
        <g>
            <path d="M84.2,32.92A29.75,29.75,0,1,1,54.45,3.17,29.74,29.74,0,0,1,84.2,32.92" fill="#92d2e0"
                stroke="#1d1d1b" stroke-miterlimit="10" />
            <path d="M84.2,32.92A29.75,29.75,0,1,1,54.45,3.17,29.74,29.74,0,0,1,84.2,32.92Z" fill="none"
                stroke="#ededed" stroke-miterlimit="10" stroke-width="1.93" />
            <path
                d="M54.69,47.27c-5.2,0-10.49-3.81-10.49-11.05a1.87,1.87,0,1,1,3.73,0c0,5,3.5,7.32,6.76,7.32a1.87,1.87,0,1,1,0,3.73m1-32.75a1.78,1.78,0,0,0-2.43,0c-3.54,3.37-13.63,13.75-13.63,22.54,0,10.61,7.71,14.75,14.86,14.75s14.87-4.14,14.87-14.75c0-8.79-10.13-19.17-13.67-22.54"
                fill="#0b1213" stroke="#1d1d1b" stroke-miterlimit="10" />
        </g>
        <rect id="waterRect" x="2.62" width="103.67" height="65.85" fill="none" />
    </g>
</svg>